<svg fill="none" height="282" viewBox="0 0 480 282" width="480" xmlns="http://www.w3.org/2000/svg" xmlns:xlink="http://www.w3.org/1999/xlink"><clipPath id="a"><path d="m0 0h480v281.969h-480z"/></clipPath><g clip-path="url(#a)" fill="#fff"><path d="m470.984 224.908v8.294h7.962v8.957h-7.962v13.934c0 2.848 1.16 4.239 4.549 4.239 1.519 0 3.479-.51 3.479-.51l.988 8.291s-2.552 1.036-7.241 1.036c-8.747 0-13.387-4.311-13.387-12.393v-14.597h-5.175v-8.957h5.175v-8.294zm-37.758 6.996c-10.862 0-18.681 7.023-18.681 18.682 0 11.402 7.901 18.661 20.796 18.661 6.363 0 12.648-2.841 12.648-2.841l-2.55-8.252s-4.288 2.198-9.165 2.198c-6.126 0-8.979-3.445-9.745-6.573h25.213c.357-11.902-4.565-21.875-18.516-21.875zm.498 8.377c4.026 0 6.93 2.822 7.451 6.531h-14.833c.415-3.986 4.087-6.531 7.382-6.531zm-60.275 27.755v-34.834h11.478v4.569s3.816-5.897 12.247-5.897c9.528 0 12.767 6.039 12.767 13.603v22.559h-11.478v-18.578c0-5.873-2.267-8.29-6.044-8.29-4.325 0-7.492 3.739-7.492 9.617v17.251zm-87.707-36.132c10.857 0 17.604 8.763 17.604 18.412 0 11.114-8.045 18.972-17.791 18.972-7.181 0-11.632-5.225-11.632-5.225v17.906h-11.404v-48.759h11.404v4.313s3.877-5.619 11.819-5.619zm-3.359 9.621c-5.158 0-8.791 5.116-8.791 8.978 0 5.289 4.121 8.895 8.791 8.895 4.444 0 9.04-3.005 9.04-8.833 0-4.614-3.805-9.04-9.04-9.04zm25.564 26.511v-48.768h11.611v48.768zm34.093-36.132c-10.857 0-17.604 8.763-17.604 18.412 0 11.114 8.045 18.972 17.79 18.972 7.182 0 11.632-5.225 11.632-5.225v3.981h11.404v-34.834h-11.404v4.313s-3.877-5.619-11.818-5.619zm3.358 9.621c5.158 0 8.792 5.116 8.792 8.978 0 5.289-4.122 8.895-8.792 8.895-4.444 0-9.04-3.005-9.04-8.833 0-4.614 3.805-9.04 9.04-9.04zm-117.511 26.511v-48.768h11.611v48.768zm-31.371-36.132c-10.856 0-17.603 8.763-17.603 18.412 0 11.114 8.044 18.972 17.79 18.972 7.182 0 11.632-5.225 11.632-5.225v3.981h11.404v-34.834h-11.404v4.313s-3.877-5.619-11.819-5.619zm3.359 9.621c5.158 0 8.792 5.116 8.792 8.978 0 5.289-4.122 8.895-8.792 8.895-4.444 0-9.04-3.005-9.04-8.833 0-4.614 3.805-9.04 9.04-9.04zm-50.69 9.923v16.588h-11.479v-18.578c0-5.873-2.267-8.29-6.044-8.29-4.325 0-7.491 3.739-7.491 9.617v17.251h-11.479v-34.834h11.479v4.569s3.815-5.897 12.246-5.897c5.844 0 9.323 2.272 11.139 5.775 0 0 3.749-5.811 13.386-5.811 9.039 0 13.456 5.499 13.456 12.975v23.223h-11.479v-18.578c0-4.531-1.783-8.398-6.048-8.398-4.358 0-7.686 3.929-7.686 10.388zm-43.549-31.166c0 1.79-.712 3.507-1.977 4.773-1.266 1.266-2.983 1.977-4.7735 1.977-1.7903 0-3.5072-.711-4.7731-1.977s-1.9771-2.983-1.9771-4.773.7112-3.507 1.9771-4.773 2.9828-1.977 4.7731-1.977c1.7905 0 3.5075.711 4.7735 1.977 1.265 1.266 1.977 2.983 1.977 4.773zm-12.6501 47.754v-34.834h11.6111v34.834zm-43.9903 0v-34.834h11.4786v4.569s3.8153-5.897 12.2468-5.897c9.5276 0 12.7673 6.039 12.7673 13.603v22.559h-11.4786v-18.578c0-5.873-2.2668-8.29-6.0438-8.29-4.325 0-7.4917 3.739-7.4917 9.617v17.251zm-31.392-36.132c-10.85667 0-17.6036 8.763-17.6036 18.412 0 11.114 8.04473 18.972 17.7902 18.972 7.1816 0 11.632-5.225 11.632-5.225v3.981h11.404v-34.834h-11.404v4.313s-3.8768-5.619-11.8186-5.619zm3.359 9.621c5.1579 0 8.7914 5.116 8.7914 8.978 0 5.289-4.1219 8.895-8.7914 8.895-4.4441 0-9.0403-3.005-9.0403-8.833 0-4.614 3.8051-9.04 9.0403-9.04z"/><path d="m268.738 0v55.2768s8.584 7.0259 12.667 12.6676c-21.029-13.7199-43.371-19.4826-70.537-19.4826-44.721 0-85.439 20.7195-105.541 55.0142l2.595 4.877s8.747-10.5168 28.957-20.8314c-22.075 21.7764-31.321 39.1484-44.8936 79.2034l21.5306 21.442c28.171-31.519 69.618-52.345 116.406-52.345 44.273 0 85.04 19.814 110.527 46.156l23.193-23.263c-13.002-22.251-29.885-42.773-43.305-57.021 13.885 7.93 36.052 12.465 57.227 12.465 37.043 0 64.263-19.9458 64.263-47.1028 0-33.4537-28.683-53.8127-75.466-61.5541l-7.565 12.6923c23.544 4.1985 60.171 17.9016 60.171 42.3811 0 13.4283-10.388 24.6916-25.355 24.6916-18.498 0-33.859-20.628-43.194-38.8436l-14.286-.3439c-16.397-20.2903-42.905-40.09054-67.394-46.0796z"/></g></svg>