<svg fill="none" height="250" viewBox="0 0 480 250" width="480" xmlns="http://www.w3.org/2000/svg" xmlns:xlink="http://www.w3.org/1999/xlink"><clipPath id="a"><path d="m0 0h480v249.23h-480z"/></clipPath><g clip-path="url(#a)"><path d="m325.173 52.6786c0 19.6775-10.146 32.9149-25.56 44.3636 0 0-11.553 8.9438-17.853 13.2378l49.684 59.823c1.406-1.923 17.404-21.094 17.404-21.094h123.041v-53.4127h-123.041v-38.0732l131.138-.0858.014-57.4229267-185.445.0144549c19.379 9.9728718 30.618 29.1858718 30.618 52.6497718zm45.403 135.4494c-8.47 9.719-8.784 10.897-11.852 14.385l38.744 46.705 82.322-.015.015-61.045zm-253.026-44.975 24.752-73.7756 24.153 73.7756zm108.66-143.1390647-126.6934-.01445483-99.51684414 249.20351953 84.19304414.029 16.2662-46.242 78.791.071c-2.828-8.541-4.31-18.127-4.31-28.756 0-32.542 23.136-53.65 44.82-68.319-10.132-11.8067-24.857-29.695-24.857-54.0236 0-23.3448 11.269-42.12455 31.307-51.9484647zm40.195 74.4879647c8.052-5.7244 14.337-12.522 14.337-21.4663 0-11.8064-7.692-20.751-20.651-20.751-13.663 0-20.652 8.9446-20.652 20.751 0 9.3021 7.677 18.2465 16.431 28.6219 3.517-2.1467 10.535-7.1556 10.535-7.1556zm-44.879 100.8471c0 21.123 19.589 40.22 40.585 40.22 14.71 0 25.575-4.636 37.127-15.012l-52.497-64.205c-15.084 10.733-25.215 20.75-25.215 38.997z" fill="#fff"/></g></svg>