<svg fill="none" height="145" viewBox="0 0 480 145" width="480" xmlns="http://www.w3.org/2000/svg" xmlns:xlink="http://www.w3.org/1999/xlink"><clipPath id="a"><path d="m0 0h480v144.876h-480z"/></clipPath><g clip-path="url(#a)" fill="#fff"><path d="m297.717 113.181c-27.861 20.536-68.242 31.492-103.01 31.492-48.751 0-92.638-18.031-125.8413-48.02-2.6086-2.3582-.2713-5.5721 2.8591-3.7356 35.8322 20.8486 80.1372 33.3906 125.9032 33.3906 30.866 0 64.82-6.386 96.04-19.638 4.716-2.003 8.661 3.089 4.049 6.511z"/><path d="m309.299 99.9295c-3.548-4.5495-23.541-2.1495-32.514-1.0852-2.734.3339-3.152-2.0452-.689-3.7564 15.923-11.2068 42.051-7.9721 45.098-4.2156 3.047 3.7773-.793 29.9677-15.756 42.4687-2.296 1.92-4.487.897-3.464-1.649 3.36-8.389 10.893-27.192 7.325-31.7625z"/><path d="m277.411 15.9729v-10.89371c0-1.64867 1.252-2.75473 2.755-2.75473h48.771c1.565 0 2.817 1.12694 2.817 2.75473v9.32851c-.021 1.5652-1.336 3.6103-3.673 6.8451l-25.272 36.0827c9.391-.2296 19.304 1.1687 27.818 5.9686 1.92 1.0851 2.442 2.6712 2.588 4.2364v11.6241c0 1.5861-1.753 3.4434-3.59 2.4834-15.004-7.8676-34.935-8.7233-51.525.0835-1.691.9182-3.465-.9182-3.465-2.5043v-11.0398c0-1.7738.021-4.7999 1.795-7.492l29.279-41.9887h-25.481c-1.565 0-2.817-1.106-2.817-2.7338z"/><path d="m99.5015 83.9437h-14.8379c-1.4191-.1044-2.5461-1.1687-2.6504-2.5252v-76.15144c0-1.52345 1.273-2.73387 2.8591-2.73387h13.8362c1.4395.06257 2.5875 1.16867 2.6925 2.54604v9.95457h.271c3.61-9.62067 10.393-14.10753 19.533-14.10753 9.287 0 15.089 4.48686 19.263 14.10753 3.589-9.62067 11.749-14.10753 20.493-14.10753 6.219 0 13.022 2.5669 17.175 8.32678 4.696 6.40685 3.736 15.71445 3.736 23.87425l-.021 48.0617c0 1.5234-1.273 2.7547-2.859 2.7547h-14.817c-1.482-.1044-2.671-1.2939-2.671-2.7547v-40.3609c0-3.2139.292-11.2276-.418-14.2745-1.106-5.113-4.424-6.5529-8.723-6.5529-3.589 0-7.346 2.3999-8.869 6.2398-1.524 3.84-1.378 10.2676-1.378 14.5876v40.3609c0 1.5234-1.273 2.7547-2.859 2.7547h-14.817c-1.502-.1044-2.671-1.2939-2.671-2.7547l-.021-40.3609c0-8.4938 1.398-20.9944-9.141-20.9944-10.664 0-10.246 12.1876-10.246 20.9944v40.3609c0 1.5234-1.273 2.7547-2.8595 2.7547z"/><path d="m373.743.92627c22.017 0 33.933 18.90743 33.933 42.94863 0 23.2274-13.169 41.6548-33.933 41.6548-21.621 0-33.391-18.9074-33.391-42.4687 0-23.7073 11.916-42.13473 33.391-42.13473zm.125 15.54753c-10.936 0-11.624 14.9005-11.624 24.1873 0 9.3076-.146 29.175 11.499 29.175 11.499 0 12.041-16.0274 12.041-25.7942 0-6.4277-.271-14.1075-2.212-20.2013-1.669-5.3008-4.988-7.3668-9.704-7.3668z"/><path d="m436.225 83.9437h-14.775c-1.482-.1044-2.672-1.2939-2.672-2.7547l-.02-76.17238c.125-1.39823 1.356-2.48343 2.859-2.48343h13.752c1.294.06257 2.359.93912 2.651 2.12866v11.64495h.271c4.153-10.41368 9.975-15.38053 20.222-15.38053 6.657 0 13.148 2.39995 17.322 8.97372 3.881 6.09381 3.881 16.34051 3.881 23.70731v47.9364c-.167 1.3356-1.398 2.4-2.859 2.4h-14.879c-1.357-.1044-2.484-1.1061-2.63-2.4v-41.3626c0-8.3268.96-20.5144-9.287-20.5144-3.61 0-6.928 2.4209-8.577 6.0938-2.087 4.6539-2.358 9.2868-2.358 14.4206v41.0079c-.021 1.5234-1.315 2.7547-2.901 2.7547z"/><path d="m238.532 47.5687v-3.2138c-10.727 0-22.059 2.2956-22.059 14.9423 0 6.4068 3.318 10.7476 9.015 10.7476 4.174 0 7.91-2.5669 10.268-6.7407 2.922-5.1339 2.776-9.9546 2.776-15.7354zm14.963 36.1662c-.981.8765-2.4.9391-3.506.3548-4.925-4.0903-5.802-5.9894-8.515-9.892-8.139 8.306-13.899 10.7894-24.458 10.7894-12.48 0-22.205-7.7007-22.205-23.123 0-12.0415 6.532-20.2431 15.819-24.2499 8.055-3.5478 19.304-4.1739 27.902-5.1547v-1.92c0-3.5269.271-7.7007-1.795-10.7476-1.816-2.7338-5.28-3.8608-8.327-3.8608-5.655 0-10.706 2.9008-11.937 8.9111-.25 1.3357-1.231 2.6504-2.567 2.713l-14.4-1.5443c-1.21-.2713-2.546-1.2521-2.212-3.1095 3.318-17.44657 19.075-22.705599 33.182-22.705599 7.221 0 16.654 1.919959 22.351 7.387669 7.221 6.74073 6.532 15.73533 6.532 25.52293v23.123c0 6.9495 2.88 9.9963 5.593 13.7528.96 1.3356 1.169 2.9425-.042 3.9442-3.026 2.5252-8.41 7.2208-11.373 9.8503z"/><path d="m44.0106 47.5687v-3.2138c-10.7267 0-22.0587 2.2956-22.0587 14.9423 0 6.4068 3.3182 10.7476 9.0155 10.7476 4.1738 0 7.9094-2.5669 10.2676-6.7407 2.9217-5.1339 2.7756-9.9546 2.7756-15.7354zm14.9632 36.1662c-.9809.8765-2.4.9391-3.506.3548-4.9251-4.0903-5.8017-5.9894-8.5146-9.892-8.139 8.306-13.8989 10.7894-24.4587 10.7894-12.4797 0-22.204705-7.7007-22.204705-23.123 0-12.0415 6.532035-20.2431 15.818805-24.2499 8.0555-3.5478 19.3039-4.1739 27.902-5.1547v-1.92c0-3.5269.2713-7.7007-1.7947-10.7476-1.8156-2.7338-5.2799-3.8608-8.3268-3.8608-5.6555 0-10.7059 2.9008-11.9372 8.9111-.2504 1.3357-1.2312 2.6504-2.5669 2.713l-14.39965-1.5443c-1.21041-.2713-2.54604-1.2521-2.21213-3.1095 3.31819-17.44657 19.07438-22.705599 33.18188-22.705599 7.2207 0 16.6536 1.919959 22.3509 7.387669 7.2207 6.74073 6.532 15.73533 6.532 25.52293v23.123c0 6.9495 2.88 9.9963 5.5929 13.7528.96 1.3356 1.1687 2.9425-.0417 3.9442-3.026 2.5252-8.4103 7.2208-11.3737 9.8503z"/></g></svg>