<svg fill="none" height="363" viewBox="0 0 480 363" width="480" xmlns="http://www.w3.org/2000/svg" xmlns:xlink="http://www.w3.org/1999/xlink"><clipPath id="a"><path d="m0 0h480v362.763h-480z"/></clipPath><g clip-path="url(#a)"><path d="m0 0v362.763l100.036-94.703h379.964v-268.06z" fill="#fff"/><g fill="#000"><path d="m84.901 100.036c-17.3934 0-24.4084 11.339-24.4084 11.339v-48.4801l-17.2973 15.8559v101.5252h17.2973v-9.369s6.8709 11.339 24.4084 11.339c24.12 0 39.159-19.219 39.159-41.033-.048-23.832-17.009-41.177-39.159-41.177zm-2.0661 66.066c-12.6846 0-23.4954-9.177-23.4954-24.985 0-14.126 9.3213-24.985 23.4954-24.985 13.5976 0 23.5921 9.898 23.5921 24.937 0 14.799-9.7542 25.033-23.5921 25.033z"/><path d="m152.649 110.655v-8.649h-17.057v78.222h17.297v-43.435c0-10.859 5.43-20.421 18.835-20.421 7.063 0 12.829 2.787 12.829 2.787l3.892-17.057s-5.478-2.066-12.973-2.066c-17.105-.048-22.823 10.619-22.823 10.619z"/><path d="m252.204 111.375s-7.015-11.339-24.408-11.339c-22.15 0-39.111 17.345-39.111 41.177 0 21.766 15.039 41.033 39.159 41.033 17.538 0 24.408-11.339 24.408-11.339v9.369h17.298v-78.27h-17.298v9.369zm-22.342 54.727c-13.838 0-23.592-10.234-23.592-25.033 0-15.039 9.994-24.937 23.592-24.937 14.174 0 23.495 10.859 23.495 24.985 0 15.808-10.81 24.985-23.495 24.985z"/><path d="m342.487 102.006-23.015 60.396-23.064-60.396h-18.69l31.423 78.222h20.276l31.28-78.222z"/><path d="m402.931 99.988c-26.234 0-42.282 19.123-42.282 41.081 0 21.766 16.144 41.129 42.09 41.129 24.985 0 42.042-18.21 42.042-41.081 0-25.273-19.796-41.129-41.85-41.129zm-.192 66.21c-14.319 0-24.505-10.666-24.505-25.081 0-13.501 9.898-25.033 24.457-25.033 13.165 0 24.6 9.466 24.6 25.129 0 14.895-11.291 24.985-24.552 24.985z"/></g></g></svg>