<svg fill="none" height="147" viewBox="0 0 480 147" width="480" xmlns="http://www.w3.org/2000/svg" xmlns:xlink="http://www.w3.org/1999/xlink"><clipPath id="a"><path d="m0 0h480v146.198h-480z"/></clipPath><g clip-path="url(#a)" fill="#fff"><path d="m72.2379 0c-40.24 0-72.2379 32.8549-72.2379 72.8757 0 40.4593 31.9979 73.3223 72.2379 73.3223 40.4521 0 72.0211-32.857 72.0211-73.3095.007-40.0209-31.569-72.8885-72.0211-72.8885zm0 30.9336c32.8561 0 56.9261 20.8657 67.0971 41.9549-10.171 21.4111-34.241 42.3755-67.0971 42.3755-33.0687 0-56.9455-20.9713-67.10994-42.3755 10.16444-21.0824 34.04804-41.9422 67.10994-41.9422zm0 3.3166c-21.4043 0-38.8551 17.324-38.8551 38.6255 0 21.6234 17.4508 38.8553 38.8551 38.8553s38.6251-17.2328 38.6251-38.8425c0-21.3016-17.2208-38.6383-38.6251-38.6383z"/><path d="m213.321 8.67413c-37.782 0-64.113 28.67987-64.113 63.56377v.4209c0 35.3152 26.868 63.2572 63.156 63.2572 23.651 0 37.782-8.459 50.412-22.055l-17.233-17.3227c-9.638 8.7667-18.317 14.4527-32.337 14.4527-21.083 0-35.743-17.6776-35.743-38.7531v-.3189c0-21.0824 14.982-38.3194 35.743-38.3194 12.308 0 21.942 5.2456 31.469 13.9169l17.234-19.9123c-11.453-11.2329-25.362-18.93007-48.588-18.93007z"/><path d="m272.968 10.8044v122.9566h58.538c27.712 0 46.011-11.223 46.011-33.689v-.434c0-16.4795-8.765-24.7288-23.012-30.1809 8.781-4.9179 16.162-12.6217 16.162-26.5328v-.3189c0-8.4658-2.786-15.3125-8.457-20.9838-7.055-6.9521-18.08-10.8172-32.107-10.8172zm26.316 23.6499h26.762c11.452 0 17.757 4.6011 17.757 12.6285v.4337c0 9.096-7.594 12.9475-19.581 12.9475l-24.938.0127zm0 48.4987h31.367c13.795 0 20.002 5.1414 20.002 13.3812v.421c0 9.0958-7.27 13.2668-19.147 13.2668l-32.222.012z"/><path d="m430.57 8.99304c-25.041 0-43.014 14.76396-43.014 37.12026v.3317c0 24.4111 16.043 31.2644 40.769 37.5795 20.548 5.3425 24.823 8.7641 24.823 15.6135v.434c0 7.164-6.748 11.557-17.769 11.557-14.13 0-25.685-5.791-36.712-14.8866l-16.047 19.1596c14.767 13.165 33.6 19.593 52.223 19.593v-.012c26.542 0 45.157-13.706 45.157-38.09v-.3189c0-21.5071-14.121-30.4084-39.059-36.929-21.185-5.4658-26.546-8.1346-26.546-16.162v-.3189c0-5.9932 5.46-10.8045 15.843-10.8045 10.384 0 21.088 4.593 32.005 12.1821l14.019-20.4225c-12.417-9.9521-27.712-15.62626-45.692-15.62626z"/></g></svg>