<svg fill="none" height="109" viewBox="0 0 480 109" width="480" xmlns="http://www.w3.org/2000/svg" xmlns:xlink="http://www.w3.org/1999/xlink"><clipPath id="a"><path d="m0 0h480v108.409h-480z"/></clipPath><g clip-path="url(#a)" fill="#fff"><path d="m.154785 31.8189c0-21.0443 13.115915-31.661918 37.328415-31.661918h70.7668v44.980918h-5.788c-2.437-26.1227-14.1009-36.86155-37.798-36.86155h-14.6076c-11.3725 0-16.8996 5.66965-16.8996 16.86325v58.1332c0 11.1937 5.524 16.8632 16.8996 16.8632h14.6167c23.3485 0 35.2274-11.3755 37.7859-38.3258h5.788v46.4448h-70.7607c-24.2126 0-37.32848-10.6172-37.32848-31.6614v-44.7747z"/><path d="m233.191.160017v108.097983h-28.778l-70.719-86.0593v38.7474c0 28.5026 11.433 39.0719 37.235 41.8819v5.43h-45.833v-108.097983h33.102l66.395 80.820683v-33.8964c0-28.3116-11.482-38.98684-36.647-41.49723v-5.430088h45.245z"/><path d="m250.309.156982h108.099v44.980918h-5.788c-2.45-26.2197-14.102-36.9798-37.799-36.9798h-32.513v40.5362h11.014c18.389 0 26.208-8.2528 28.069-25.9559h5.885v59.4187h-5.885c-1.849-17.788-9.644-25.9802-28.069-25.9802h-11.014v44.0801h32.525c23.349 0 35.228-11.4086 37.787-38.4468h5.788v46.4448h-108.099z"/><path d="m479.82.156982v44.980918h-5.788c-2.498-24.7432-12.84-36.23699-32.262-38.32595v76.01515c0 13.2129 4.66 18.4979 21.714 19.6009v5.824h-75.427v-5.824c17.058-1.106 21.718-6.388 21.718-19.6009v-76.01818c-19.422 2.08896-29.764 13.58278-32.262 38.32588h-5.791v-44.977818z"/></g></svg>