<svg fill="none" height="170" viewBox="0 0 480 170" width="480" xmlns="http://www.w3.org/2000/svg" xmlns:xlink="http://www.w3.org/1999/xlink"><clipPath id="a"><path d="m0 0h480v169.637h-480z"/></clipPath><g clip-path="url(#a)"><path d="m239.959 8.5221c1.77-2.88982 4.706-5.91352 7.868-7.19239 5.443-2.47616 12.737-1.411314 17.177 2.50688 4.297 3.89275 6.477 9.22801 5.448 15.19291 1.054-.1944 2.118-.8691 3.234-1.253 6.67-1.8825 13.724.1588 18.001 5.8775 3.212 4.0823 4.051 10.4249 2.123 15.3566-.957 2.4804-2.589 4.7109-4.711 6.6141l.214.215c6.205.3013 12.304 5.1203 14.186 11.0285 2.041 5.9596.245 12.328-4.113 16.6867-3.561 3.5194-8.139 4.7374-13.229 4.6347h-92.4c-7.587.1636-13.449-3.1975-16.605-9.944-2.476-5.7912-1.253-13.1981 3.371-17.6124 2.915-3.0492 6.568-4.2978 10.507-4.9265-4.46-4.1384-6.609-9.8009-5.356-15.8733.896-4.9207 5.09-9.9032 9.909-11.6221 4.245-1.6882 9.996-1.3917 13.883.8997l.139-.1689c-1.172-6.6962 1.795-12.73733 7.35-16.44101 4.952-3.350016 12.871-3.263638 17.72.29752 2.179 1.33454 3.975 3.62643 5.284 5.72349z" fill="#000"/><g fill="#fff"><path d="m266.119 11.0237c1.985 4.0055.819 9.2539-1.253 12.8501l-16.032 36.0689-.138.169-5.795-36.5906c-.465-3.5137 3.289-5.0128 5.499-6.701-.113-.5163-.681-.4909-1.038-.7313l-5.417-.0566-.165-.1637c.031-4.5425 2.476-8.73709 6.62-10.94164 4.328-2.50112 10.425-1.82113 14.18 1.38636 1.524 1.35997 2.808 2.9402 3.539 4.71048z"/><path d="m236.583 9.77029c1.31 2.42481 2.067 5.17741 1.606 8.22551l-6.537 41.8956c.036.0509-.025.1075-.077.1325l-1.693-3.3707-16.385-36.5905c-1.525-4.7115-.112-9.6374 3.32-13.01427 3.458-3.50885 9.146-4.46045 13.668-2.55726 2.395 1.03365 4.681 2.93684 6.098 5.27912z"/><path d="m289.835 27.4081c2.204 3.7594 1.708 9.4483-.743 12.937-1.518 2.4502-4.025 3.673-6.148 5.2791l-33.951 23.3052h-.077l.379-1.1148 17.996-40.621c2.696-4.7882 7.842-7.213 13.285-6.4817 3.729.681 7.458 3.1053 9.259 6.6962z"/><path d="m212.709 27.1936 18.728 41.7315h-.301l-37.757-26.0223c-3.842-3.2377-5.417-8.0873-4.113-12.9878.977-3.673 4.026-7.1051 7.653-8.4665 5.938-2.1738 12.628.1382 15.79 5.7451z"/><path d="m299.687 56.8677c1.882 3.9748 1.141 9.4176-1.55 12.7983-2.669 3.2387-6.241 5.0085-10.431 4.8957l-40.258.0259 33.725-23.464c3.296-2.123 8.304-2.5074 11.9-.7885 2.777 1.0898 5.391 3.8112 6.614 6.5326z"/><path d="m180.472 56.8677c-1.877 3.9748-1.141 9.4176 1.555 12.7983 2.67 3.2387 6.23 5.0085 10.425 4.8957l40.259.0259-33.726-23.464c-3.294-2.123-8.302-2.5074-11.893-.7885-2.779 1.0898-5.392 3.8112-6.62 6.5326z"/><path d="m108.181 98.6865c-19.5615 0-35.4598 15.9085-35.4598 35.4705 0 19.556 15.8983 35.475 35.4598 35.475 19.561 0 35.47-15.919 35.47-35.475 0-19.561-15.909-35.4705-35.47-35.4705zm0 63.9575c-15.7095 0-28.493-12.782-28.493-28.486 0-15.701 12.7835-28.484 28.493-28.484 15.709 0 28.493 12.784 28.493 28.484 0 15.704-12.784 28.486-28.493 28.486z"/><path d="m414 134.607c-1.902-.998-13.478-6.957-15.141-7.821-6.072-3.106-8.226-5.848-8.226-10.492 0-6.456 5.301-10.625 13.52-10.625 4.825 0 9.489 2.123 12.226 3.663.497.271 1.085.424 1.699.424 1.913 0 3.483-1.57 3.483-3.483 0-1.289-.706-2.42-1.744-3.024-3.447-1.924-9.326-4.5577-15.664-4.5577-12.077 0-20.502 7.2327-20.502 17.6027 0 9.305 6.118 13.694 12.103 16.753 1.677.854 13.387 6.89 15.141 7.816 4.625 2.419 7.183 6.052 7.183 10.231 0 5.601-4.747 11.556-13.53 11.556-8.543 0-15.178-5.73-17.009-7.495l-.548-.522-5.161 4.707.603.603c2.292 2.272 10.671 9.689 22.115 9.689 12.829 0 20.497-9.428 20.497-18.538 0-6.803-4.021-12.815-11.045-16.487z"/><path d="m35.4604 105.674c7.6166 0 14.773 2.968 20.1443 8.333 1.2789 1.274 3.683 1.274 4.9413 0 .6651-.65 1.0178-1.524 1.0178-2.46 0-.926-.3527-1.811-1.0178-2.461l-.4295-.44c-6.6401-6.425-15.4026-9.9595-24.6561-9.9595-19.5515 0-35.4604 15.9145-35.4604 35.4655 0 19.562 15.9089 35.48 35.4604 35.48 10.3222 0 19.6222-4.428 26.1034-11.489l-4.9365-4.941c-5.2177 5.791-12.7681 9.443-21.1673 9.443-15.7045 0-28.48788-12.788-28.48788-28.493.00048-15.689 12.78388-28.478 28.48828-28.478z"/><path d="m275.901 105.674c7.607 0 14.773 2.968 20.143 8.333 1.274 1.274 3.679 1.274 4.937 0 .666-.65 1.034-1.524 1.034-2.46 0-.926-.369-1.811-1.034-2.461l-.424-.44c-6.655-6.425-15.408-9.9595-24.656-9.9595-19.556 0-35.471 15.9135-35.471 35.4645 0 19.562 15.915 35.481 35.471 35.481 10.317 0 19.617-4.429 26.108-11.489l-4.941-4.942c-5.218 5.791-12.779 9.443-21.167 9.443-15.71 0-28.499-12.787-28.499-28.492 0-15.689 12.789-28.478 28.499-28.478z"/><path d="m215.82 98.6865c-1.31 0-2.343.8441-2.906 1.9335-.573 1.089-20.871 51.297-20.876 51.297 0 0-20.298-50.208-20.866-51.297-.568-1.0899-1.6-1.9335-2.91-1.9335-1.53 0-2.68 1.1253-3.085 2.5425-.404 1.427-11.857 64.617-11.857 64.617-.041.206-.061.421-.061.64 0 1.738 1.417 3.146 3.146 3.146 1.535 0 2.813-1.094 3.089-2.542l9.919-54.065s19.137 47.277 19.694 48.402c.563 1.12 1.607 1.995 2.937 1.995s2.368-.875 2.926-1.995c.563-1.126 19.699-48.402 19.699-48.402l10.307 56.218h6.406s-12.068-66.587-12.472-68.014c-.41-1.4172-1.561-2.5425-3.09-2.5425z"/><path d="m341.925 98.6914c-1.325-.0048-2.353.8594-2.931 1.9846-.573 1.121-26.267 64.583-26.267 64.583-.154.373-.241.788-.241 1.227 0 1.739 1.407 3.151 3.146 3.151 1.325 0 2.461-.829 2.927-2l9.974-24.538h26.789l10.641 26.144h6.798s-27.347-67.447-27.909-68.567c-.559-1.1252-1.597-1.9894-2.927-1.9846zm-10.548 37.4236 10.547-25.935 10.559 25.935z"/><path d="m476.501 99.0647h-39.491c-1.924 0-3.484 1.5663-3.484 3.4943 0 1.918 1.56 3.483 3.484 3.483h16.553v63.196h6.395v-63.195h16.543c1.924 0 3.499-1.566 3.499-3.484 0-1.928-1.575-3.4943-3.499-3.4943z"/></g></g></svg>