<svg fill="none" height="284" viewBox="0 0 480 284" width="480" xmlns="http://www.w3.org/2000/svg"><g fill="#fff"><path d="m296.849 59.6904-21.43-58.868195-58.861 21.426095 21.419 58.8681z"/><path d="m142.538 218.016v12.803h69.249v-174.1411h-69.249v56.6611c-10.907-7.138-26.522-17.2463-58.0567-17.2463-54.4875 0-83.659034 33.4893-83.659034 69.9543 0 39.905 33.590034 67.743 82.802334 67.743 12.6476 0 24.7494-1.993 35.9324-5.434 11.787-3.441 17.097-6.647 22.981-10.34zm-72.4835-53.199c0-18.476 14.4303-29.306 36.5305-29.306 25.046 0 35.953 14.292 35.953 29.306 0 17.242-14.431 30.56-36.53 30.56-18.2792-.003-35.9535-9.621-35.9535-30.56z"/><path d="m279.506 101.119h-57.441v129.565h57.441z"/><path d="m129.351 254.847c-2.377-1.386-4.947-1.973-8.768-1.973-5.863 0-9.248 1.859-12.364 4.125v-3.596h-12.7966v28.504h12.7966v-12.689c0-2.522.058-5.006 2.356-6.902 1.205-.957 2.708-1.33 4.252-1.33 2.377 0 5.22.957 6.136 4.245.207.764.325 1.78.325 3.656v13.024h12.737v-15.018c0-5.631-.266-9.445-4.674-12.046z"/><path d="m173.927 257.918c-4.425-4.516-10.906-5.317-16.676-5.317-4.246 0-12.796.176-17.643 6.353-1.496 1.879-2.843 4.83-2.843 8.582 0 6.671 3.931 11.086 9.414 13.276 3.489 1.41 7.244 1.879 11.034 1.879 2.467 0 9.231-.314 14.178-2.991 3.942-2.17 5.317-4.827 6.022-6.139l-13.218-.626c-.763.764-1.299 1.272-2.639 1.817-.919.37-2.267.764-3.766.764-2.422 0-6.871-1.078-7.908-6.08h28.274c-.101-3.168-.266-7.469-4.229-11.518zm-23.606 6.567c.536-1.309 1.886-4.633 7.245-4.633 1.35 0 3.51.218 5.23 1.624 1.34 1.113 1.603 1.917 2.042 3.009z"/><path d="m194.945 271.312v-9.366h4.564v-7.352h-4.622v-9.638h-12.261l-.097 9.638h-4.104v7.352h3.987l-.166 11.556-.059 1.955c.059 1.444 0 2.892 1.24 4.457 1.659 1.603 3.88 1.876 8.005 1.993h8.132v-8.077c-3.278 0-4.518 0-4.619-2.518z"/><path d="m246.445 253.402-2.367 12.258c-.535 2.58-.653 3.226-1.078 5.866-.38-3.286-.604-4.087-1.658-7.217l-3.99-10.907h-12.793l-4.567 10.869c-1.299 3.261-1.496 4.087-2.031 7.096-.284-2.422-.38-3.071-.802-5.707l-1.945-12.258h-13.874l9.501 28.484h12.758l5.209-12.63c.957-2.463 1.175-3.068 1.876-5.648.588 2.366.802 3.088 1.721 5.61l4.563 12.668h12.534l10.274-28.484z"/><path d="m278.079 252.656c-10.108.159-20.158 4.343-20.158 15.039 0 11.2 11.066 14.955 21.057 14.955 11.791 0 21.077-5.002 21.077-15.052-.004-7.196-5.262-15.152-21.976-14.942zm1.172 22.311c-3.752 0-8.212-1.721-8.212-7.49 0-3.168 1.72-7.214 7.393-7.352 5.337-.176 8.564 2.678 8.564 7.352-.003 6.218-5.165 7.49-7.745 7.49z"/><path d="m315.363 257.918v-4.515h-12.69v28.504h12.631v-12.748c.059-1.288.114-2.639 1.368-3.751.784-.764 2.131-1.524 5.514-1.524 1.095 0 2.055.118 3.033.232v-11.242c-1.624.041-3.538.155-5.925 1.448-1.603.86-2.936 2.09-3.931 3.596z"/><path d="m327.309 243.94.097 37.967h12.475v-6.159l5.099-4.395 6.999 10.554h14.019l-12.471-18.023 12.06-10.423h-15.992l-9.773 9.093v-18.614z"/><path clip-rule="evenodd" d="m267.988 70.3672 65.194 110.1858c6.613 9.552 7.554 16.6-6.677 16.951h-36.524v33.903h53.019c29.298 1.711 53.829-14.817 72.656-53.166l63.522-107.9308h-74.519l-31.418 76.3388-29.848-76.2818z" fill-rule="evenodd"/></g></svg>