<svg fill="none" height="93" viewBox="0 0 480 93" width="480" xmlns="http://www.w3.org/2000/svg" xmlns:xlink="http://www.w3.org/1999/xlink"><clipPath id="a"><path d="m0 0h480v92.8998h-480z"/></clipPath><g clip-path="url(#a)" fill="#fff"><path d="m37.5558 14.5529c-5.6512 0-7.2851 2.5064-7.2851 8.0347v9.1708h15.0739l-1.5109 14.8162h-13.5571v44.9639h-18.0898v-44.9639h-12.1868v-14.8162h12.1868v-8.919c0-14.94502 6.026-22.83916795 22.8391-22.83916795 3.5231-.00819869 7.0439.20086295 10.5412.62660895v13.943659z"/><path d="m46.5978 59.7627c0-16.7019 7.9117-29.281 24.4906-29.281 9.042 0 14.5644 4.6498 17.2055 10.424v-9.1474h17.3281v59.7801h-17.3281v-9.0419c-2.5123 5.7801-8.1635 10.301-17.2055 10.301-16.5789 0-24.4906-12.5615-24.4906-29.281zm18.0839 4.0232c0 8.9132 3.2619 14.8162 11.6773 14.8162 7.4139 0 11.1795-5.3994 11.1795-13.9378v-6.0026c0-8.5383-3.7656-13.9377-11.1795-13.9377-8.4154 0-11.6773 5.903-11.6773 14.8162z"/><path d="m143.301 30.4993c7.028 0 13.686 1.5109 17.329 4.0173l-4.018 12.8134c-3.767-1.7944-7.884-2.7384-12.058-2.7641-9.797 0-14.054 5.6512-14.054 15.3257v3.5137c0 9.6744 4.269 15.3256 14.054 15.3256 4.174-.0263 8.291-.9697 12.058-2.7641l4.018 12.8075c-3.643 2.5123-10.295 4.0233-17.329 4.0233-21.228 0-30.897-11.4314-30.897-29.7671v-2.7642c0-18.3357 9.669-29.767 30.897-29.767z"/><path d="m163.013 63.9324v-5.2706c0-16.9537 9.669-28.1098 29.392-28.1098 18.588 0 26.752 11.3025 26.752 27.8814v9.5456h-38.066c.381 8.1635 4.024 11.8061 14.055 11.8061 6.788 0 13.944-1.3821 19.22-3.6426l3.309 12.3859c-4.773 2.5182-14.57 4.398-23.232 4.398-22.891-.0058-31.43-11.4254-31.43-28.994zm18.084-7.7888h21.855v-1.505c0-6.5297-2.635-11.7124-10.541-11.7124-8.169.0058-11.314 5.1593-11.314 13.194z"/><path d="m286.193 63.5342c0 16.7019-8.035 29.2811-24.596 29.2811-9.042 0-15.32-4.521-17.833-10.3011v9.042h-17.076v-89.81661l18.084-1.6397365v39.9393465c2.635-5.2706 8.415-9.5457 16.83-9.5457 16.579 0 24.596 12.5616 24.596 29.2811zm-18.084-4.1462c0-8.4153-3.262-14.6932-11.929-14.6932-7.414 0-11.432 5.2706-11.432 13.8148v6.2779c0 8.5383 4.018 13.8147 11.432 13.8147 8.667 0 11.929-6.2778 11.929-14.6932z"/><path d="m292.242 63.1534v-3.01c0-17.2114 9.798-29.6441 29.767-29.6441 19.97 0 29.773 12.4327 29.773 29.6441v3.01c0 17.2056-9.797 29.6442-29.767 29.6442s-29.773-12.4386-29.773-29.6442zm41.45-4.2691c0-7.9117-3.267-14.1896-11.712-14.1896s-11.683 6.2779-11.683 14.1896v5.5282c0 7.9118 3.268 14.1896 11.683 14.1896s11.712-6.2778 11.712-14.1896z"/><path d="m357.796 63.1534v-3.01c0-17.2114 9.798-29.6441 29.767-29.6441 19.97 0 29.768 12.4327 29.768 29.6441v3.01c0 17.2056-9.798 29.6442-29.768 29.6442-19.969 0-29.767-12.4386-29.767-29.6442zm41.451-4.2691c0-7.9117-3.268-14.1896-11.684-14.1896-8.415 0-11.677 6.2779-11.677 14.1896v5.5282c0 7.9118 3.262 14.1896 11.677 14.1896 8.416 0 11.684-6.2778 11.684-14.1896z"/><path d="m442.196 60.2665 17.832-28.508h19.214l-18.71 29.5152 19.466 30.2649h-19.214l-18.588-29.281v29.281h-18.09v-89.79901l18.09-1.6397365z"/></g></svg>