<svg fill="none" height="150" viewBox="0 0 480 150" width="480" xmlns="http://www.w3.org/2000/svg" xmlns:xlink="http://www.w3.org/1999/xlink"><clipPath id="a"><path d="m0 0h480v149.328h-480z"/></clipPath><g clip-path="url(#a)"><path d="m73.5116 0c-24.8092 0-41.6512 19.1138-41.8624 41.5725v4.3538h-22.54421s-9.449996 23.5586-9.09524633 23.4626h31.63945633v40.8141c0 5.314-1.6897 12.053-9.729 15.24l9.3259 23.885c14.514-5.698 25.8844-19.618 25.9035-39.125v-40.8141h17.8838v56.3851h25.5096v-50.9806c2.842-3.2925 7.963-6.0285 16.876-7.0414-2.534 5.5342-3.883 11.6351-3.883 17.8654 0 12.84 4.67 24.2306 14.106 32.2026 7.113 6.01 16.929 9.788 29.489 9.822 8.083.018 14.534-1.21 20.999-3.596l-7.257-19.205c-3.168 1.167-7.91 2.18-11.543 2.175-4.454-.01-9.633-1.335-12.969-3.73-3.048-2.189-5.227-5.2655-6.422-9.0477h46.854c1.661 9.2877 6.096 17.4527 13.358 23.5877 7.113 6.009 16.928 9.787 29.489 9.82 8.083.019 14.533-1.209 20.998-3.595l-7.257-19.205c-3.167 1.166-7.91 2.179-11.543 2.175-4.454-.01-9.633-1.335-12.969-3.73-3.047-2.189-5.226-5.2656-6.421-9.0479h58.613l12.374 31.5359h27.065l14.26-36.3456c.84 11.2796 5.471 21.2206 13.962 28.3966 7.113 6.01 16.928 9.788 29.489 9.821 8.083.019 14.533-1.21 20.998-3.595l-7.257-19.205c-3.167 1.166-7.909 2.179-11.543 2.174-4.454-.009-9.633-1.334-12.968-3.729-3.048-2.189-5.227-5.2657-6.422-9.048h46.897c1.661 9.288 6.096 17.452 13.358 23.587 7.113 6.009 16.928 9.787 29.489 9.821 8.082.019 14.533-1.21 20.998-3.595l-7.257-19.205c-3.168 1.166-7.91 2.179-11.543 2.174-4.454-.009-9.638-1.334-12.974-3.73-3.047-2.188-5.226-5.2649-6.421-9.0475h56.434v-8.5387c0-19.095-12.685-41.7938-40.716-41.7938-17.182 0-30.088 8.832-36.837 21.0863-6.052-11.7409-17.72-21.0863-35.705-21.0863-11.452 0-21.003 3.9262-28.102 10.1711l3.197-8.1502h-26.993l-17.846 50.1165-18.008-50.1165h-26.869l2.991 7.6271c-6.518-5.8275-15.436-9.648-26.936-9.648-17.164 0-30.06 8.8174-36.814 21.048-6.057-11.7217-17.72-21.048-35.685-21.048-12.642 0-22.966 4.7809-30.233 12.1871v-12.3502c-6.307 0-13.477 2.184-19.909 7.0173-1.771 1.3298-3.494 2.88-4.968 4.656v-9.4942h-43.393v-4.4786c0-10.2094 7.2761-16.7614 17.0194-16.7614 1.608 0 3.2111.336 4.4253.6289l8.889-22.53115c-3.9405-1.66575-8.2841-2.784-13.9717-2.784zm82.4724 64.5649c7.627 0 14.606 3.2782 16.161 12.1294h-32.465c1.416-6.8974 6.268-12.1294 16.304-12.1294zm72.499 0c7.627 0 14.605 3.2782 16.161 12.1294h-32.465c1.416-6.8974 6.268-12.1294 16.304-12.1294zm138.562 0c7.626 0 14.605 3.2782 16.16 12.1294h-32.465c1.416-6.8974 6.269-12.1294 16.305-12.1294zm72.542 0c7.626 0 14.605 3.2782 16.16 12.1294h-32.465c1.416-6.8974 6.268-12.1294 16.305-12.1294z" fill="#fff"/></g></svg>