<svg fill="none" height="325" viewBox="0 0 480 325" width="480" xmlns="http://www.w3.org/2000/svg" xmlns:xlink="http://www.w3.org/1999/xlink"><clipPath id="a"><path d="m0 0h480v324.89h-480z"/></clipPath><g clip-path="url(#a)" fill="#fff"><path d="m25.7877 258.335v-126.108h-25.54771v-47.8343h25.54771v-23.3734c0-34.4817 17.4503-59.24909 65.2118-59.2491h11.9755l14.132 43.4856h-9.268c-15.8585 0-22.2586 8.5124-22.2586 23.4941v15.6428h21.1996l17.103 47.8343h-38.3026v126.108z"/><path d="m122.543 84.3927h56.8l35.332 97.7053 35.269-97.7053h56.869l-63.811 177.5333c-14.577 43.364-37.755 62.724-72.625 62.724l-16.307-45.116c15.272 0 25.697-6.428 31.997-18.467z"/><path d="m305.376 132.227 17.201-47.8343h77.186v173.9423h-59.792v-126.108z"/><path d="m401.507 32.4624c0 17.796-14.426 32.2225-32.222 32.2225s-32.223-14.4265-32.223-32.2225c0-17.7959 14.427-32.22241 32.223-32.22241s32.222 14.42651 32.222 32.22241z"/><path d="m447.598 259.966c-21.163 0-32.287-16.12-32.287-32.015 0-18.879 15.083-32.156 32.156-32.156 15.548 0 32.293 12.689 32.293 32.293 0 6.653-2.86 13.305-5.547 21.123l-16.831 45.543h-9.784z"/></g></svg>