<svg fill="none" height="163" viewBox="0 0 480 163" width="480" xmlns="http://www.w3.org/2000/svg"><g fill="#fff"><path d="m204.265 83.2589c0 22.5351-17.63 39.1411-39.265 39.1411s-39.265-16.606-39.265-39.1411c0-22.6942 17.63-39.1412 39.265-39.1412s39.265 16.447 39.265 39.1412zm-17.188 0c0-14.0824-10.218-23.7177-22.077-23.7177s-22.076 9.6353-22.076 23.7177c0 13.9411 10.217 23.7171 22.076 23.7171s22.077-9.7936 22.077-23.7171z"/><path d="m288.971 83.2589c0 22.5351-17.63 39.1411-39.265 39.1411s-39.265-16.606-39.265-39.1411c0-22.6765 17.63-39.1412 39.265-39.1412s39.265 16.447 39.265 39.1412zm-17.188 0c0-14.0824-10.218-23.7177-22.077-23.7177s-22.076 9.6353-22.076 23.7177c0 13.9411 10.217 23.7171 22.076 23.7171s22.077-9.7936 22.077-23.7171z"/><path d="m370.147 46.4824v70.2706c0 28.906-17.047 40.712-37.2 40.712-18.97 0-30.388-12.689-34.694-23.065l14.965-6.229c2.664 6.37 9.194 13.888 19.711 13.888 12.9 0 20.895-7.959 20.895-22.941v-5.63h-.6c-3.847 4.747-11.259 8.894-20.612 8.894-19.571 0-37.5-17.047-37.5-38.982 0-22.0941 17.929-39.2823 37.5-39.2823 9.335 0 16.747 4.147 20.612 8.7529h.6v-6.3706h16.323zm-15.106 36.9176c0-13.7823-9.194-23.8588-20.894-23.8588-11.859 0-21.794 10.0765-21.794 23.8588 0 13.6412 9.935 23.576 21.794 23.576 11.7 0 20.894-9.9348 20.894-23.576z"/><path d="m397.059 5.29407v114.70593h-16.765v-114.70593z"/><path d="m462.388 96.1411 13.341 8.8939c-4.306 6.371-14.682 17.347-32.611 17.347-22.236 0-38.842-17.188-38.842-39.1409 0-23.2764 16.747-39.1411 36.918-39.1411 20.312 0 30.247 16.1647 33.494 24.9l1.782 4.447-52.323 21.6706c4.006 7.8534 10.235 11.8584 18.971 11.8584 8.753 0 14.823-4.305 19.27-10.8349zm-41.065-14.0823 34.977-14.5235c-1.924-4.8883-7.712-8.2941-14.524-8.2941-8.735 0-20.894 7.7117-20.453 22.8176z"/><path d="m62.2764 73.0765v-16.6059h55.9586c.547 2.8942.83 6.3177.83 10.0236 0 12.4588-3.406 27.8647-14.383 38.8408-10.6762 11.118-24.3173 17.047-42.3879 17.047-33.4941 0-61.658846-27.282-61.658846-60.7761s28.164746-60.776432 61.658846-60.776432c18.5294 0 31.7294 7.270592 41.6469 16.747032l-11.7175 11.7177c-7.1118-6.6706-16.7471-11.8589-29.9471-11.8589-24.4588 0-43.5882 19.7118-43.5882 44.1706 0 24.4589 19.1294 44.1711 43.5882 44.1711 15.8647 0 24.9-6.3711 30.6883-12.1593 4.6941-4.6941 7.7823-11.4 9.0003-20.5588z"/></g></svg>