<svg fill="none" height="84" viewBox="0 0 480 84" width="480" xmlns="http://www.w3.org/2000/svg" xmlns:xlink="http://www.w3.org/1999/xlink"><clipPath id="a"><path d="m0 0h480v83.1681h-480z"/></clipPath><mask id="b" height="84" maskUnits="userSpaceOnUse" width="271" x="209" y="0"><path d="m319.931 30.239c-.437-19.723-14.4-30.1517249-31.505-30.1517249-9.381 0-17.846 3.1417049-23.606 9.2505949-5.76-6.10889-14.225-9.2505949-23.607-9.2505949-17.105 0-31.068 10.4723249-31.504 30.1953249v.1309 44.9876c0 4.1453 3.36 7.4615 7.461 7.4615h7.069c.698 0 1.266-.5672 1.266-1.2654v-51.2273c.305-9.7306 7.2-14.8795 15.708-14.8795 8.509 0 15.403 5.1489 15.709 14.8795v44.9875c0 4.1453 3.36 7.4616 7.461 7.4616h7.069c.698 0 1.266-.5673 1.266-1.2654v-51.2274c.305-9.7305 7.199-14.8795 15.708-14.8795s15.403 5.149 15.709 14.8795v44.9876c0 4.1453 3.36 7.4615 7.461 7.4615h7.069c.698 0 1.266-.5672 1.266-1.2654v-51.2273c.043.0436 0 0 0-.0436zm159.136-28.88632h-12c-3.316 0-6.414 1.65813-8.29 4.40713l-13.265 19.63569c-1.746 2.5745-5.498 2.5745-7.244 0l-13.265-19.63569c-1.832-2.749-4.974-4.40713-8.29-4.40713h-12c-.742 0-1.178.82907-.785 1.43996l23.65 35.08246c1.702 2.5308 1.702 5.847 0 8.3779l-23.65 35.0824c-.437.6109.043 1.4399.785 1.4399h12c3.316 0 6.414-1.6581 8.29-4.4071l13.265-19.6357c1.746-2.5744 5.498-2.5744 7.244 0l13.265 19.6357c1.832 2.749 4.974 4.4071 8.29 4.4071h12c.742 0 1.178-.829.785-1.4399l-23.693-35.0388c-1.702-2.5308-1.702-5.8471 0-8.3779l23.65-35.08243c.436-.61089 0-1.48359-.742-1.48359zm-80.55 0h-7.069c-3.578 0-6.589 2.53083-7.33 5.89071-6.284-4.79983-14.182-7.24339-22.691-7.24339-20.683 0-37.482 14.3995-37.482 41.584 0 27.1846 16.756 41.5841 37.482 41.5841 8.466 0 16.276-2.4 22.56-7.1125.349 3.7962 3.534 6.807 7.461 6.807h7.069c.698 0 1.265-.5672 1.265-1.2654v-78.97911c-.043-.69816-.567-1.26541-1.265-1.26541zm-37.09 66.36862c-12.348 0-22.384-9.0324-22.384-26.0936 0-17.0613 10.036-26.0937 22.384-26.0937 12.349 0 22.385 9.0324 22.385 26.0937 0 17.0612-10.036 26.0936-22.385 26.0936z" fill="#fff"/></mask><mask id="c" height="84" maskUnits="userSpaceOnUse" width="271" x="209" y="0"><path d="m319.931 30.239c-.437-19.723-14.4-30.1517249-31.505-30.1517249-9.381 0-17.846 3.1417049-23.606 9.2505949-5.76-6.10889-14.225-9.2505949-23.607-9.2505949-17.105 0-31.068 10.4723249-31.504 30.1953249v.1309 44.9876c0 4.1453 3.36 7.4615 7.461 7.4615h7.069c.698 0 1.266-.5672 1.266-1.2654v-51.2273c.305-9.7306 7.2-14.8795 15.708-14.8795 8.509 0 15.403 5.1489 15.709 14.8795v44.9875c0 4.1453 3.36 7.4616 7.461 7.4616h7.069c.698 0 1.266-.5673 1.266-1.2654v-51.2274c.305-9.7305 7.199-14.8795 15.708-14.8795s15.403 5.149 15.709 14.8795v44.9876c0 4.1453 3.36 7.4615 7.461 7.4615h7.069c.698 0 1.266-.5672 1.266-1.2654v-51.2273c.043.0436 0 0 0-.0436zm159.136-28.88632h-12c-3.316 0-6.414 1.65813-8.29 4.40713l-13.265 19.63569c-1.746 2.5745-5.498 2.5745-7.244 0l-13.265-19.63569c-1.832-2.749-4.974-4.40713-8.29-4.40713h-12c-.742 0-1.178.82907-.785 1.43996l23.65 35.08246c1.702 2.5308 1.702 5.847 0 8.3779l-23.65 35.0824c-.437.6109.043 1.4399.785 1.4399h12c3.316 0 6.414-1.6581 8.29-4.4071l13.265-19.6357c1.746-2.5744 5.498-2.5744 7.244 0l13.265 19.6357c1.832 2.749 4.974 4.4071 8.29 4.4071h12c.742 0 1.178-.829.785-1.4399l-23.693-35.0388c-1.702-2.5308-1.702-5.8471 0-8.3779l23.65-35.08243c.436-.61089 0-1.48359-.742-1.48359zm-80.55 0h-7.069c-3.578 0-6.589 2.53083-7.33 5.89071-6.284-4.79983-14.182-7.24339-22.691-7.24339-20.683 0-37.482 14.3995-37.482 41.584 0 27.1846 16.756 41.5841 37.482 41.5841 8.466 0 16.276-2.4 22.56-7.1125.349 3.7962 3.534 6.807 7.461 6.807h7.069c.698 0 1.265-.5672 1.265-1.2654v-78.97911c-.043-.69816-.567-1.26541-1.265-1.26541zm-37.09 66.36862c-12.348 0-22.384-9.0324-22.384-26.0936 0-17.0613 10.036-26.0937 22.384-26.0937 12.349 0 22.385 9.0324 22.385 26.0937 0 17.0612-10.036 26.0936-22.385 26.0936z" fill="#fff"/></mask><mask id="d" height="84" maskUnits="userSpaceOnUse" width="271" x="209" y="0"><path d="m319.931 30.239c-.437-19.723-14.4-30.1517249-31.505-30.1517249-9.381 0-17.846 3.1417049-23.606 9.2505949-5.76-6.10889-14.225-9.2505949-23.607-9.2505949-17.105 0-31.068 10.4723249-31.504 30.1953249v.1309 44.9876c0 4.1453 3.36 7.4615 7.461 7.4615h7.069c.698 0 1.266-.5672 1.266-1.2654v-51.2273c.305-9.7306 7.2-14.8795 15.708-14.8795 8.509 0 15.403 5.1489 15.709 14.8795v44.9875c0 4.1453 3.36 7.4616 7.461 7.4616h7.069c.698 0 1.266-.5673 1.266-1.2654v-51.2274c.305-9.7305 7.199-14.8795 15.708-14.8795s15.403 5.149 15.709 14.8795v44.9876c0 4.1453 3.36 7.4615 7.461 7.4615h7.069c.698 0 1.266-.5672 1.266-1.2654v-51.2273c.043.0436 0 0 0-.0436zm159.136-28.88632h-12c-3.316 0-6.414 1.65813-8.29 4.40713l-13.265 19.63569c-1.746 2.5745-5.498 2.5745-7.244 0l-13.265-19.63569c-1.832-2.749-4.974-4.40713-8.29-4.40713h-12c-.742 0-1.178.82907-.785 1.43996l23.65 35.08246c1.702 2.5308 1.702 5.847 0 8.3779l-23.65 35.0824c-.437.6109.043 1.4399.785 1.4399h12c3.316 0 6.414-1.6581 8.29-4.4071l13.265-19.6357c1.746-2.5744 5.498-2.5744 7.244 0l13.265 19.6357c1.832 2.749 4.974 4.4071 8.29 4.4071h12c.742 0 1.178-.829.785-1.4399l-23.693-35.0388c-1.702-2.5308-1.702-5.8471 0-8.3779l23.65-35.08243c.436-.61089 0-1.48359-.742-1.48359zm-80.55 0h-7.069c-3.578 0-6.589 2.53083-7.33 5.89071-6.284-4.79983-14.182-7.24339-22.691-7.24339-20.683 0-37.482 14.3995-37.482 41.584 0 27.1846 16.756 41.5841 37.482 41.5841 8.466 0 16.276-2.4 22.56-7.1125.349 3.7962 3.534 6.807 7.461 6.807h7.069c.698 0 1.265-.5672 1.265-1.2654v-78.97911c-.043-.69816-.567-1.26541-1.265-1.26541zm-37.09 66.36862c-12.348 0-22.384-9.0324-22.384-26.0936 0-17.0613 10.036-26.0937 22.384-26.0937 12.349 0 22.385 9.0324 22.385 26.0937 0 17.0612-10.036 26.0936-22.385 26.0936z" fill="#fff"/></mask><g clip-path="url(#a)"><path d="m59.1252 82.8189h-22.1228v-31.548h-14.3123v31.548h-22.6901v-81.37901h22.6465v30.36991h14.3122v-30.36991h22.1229v81.37901zm101.4078.3491c22.646 0 41.147-18.8503 41.147-41.8022 0-23.301-18.501-41.3222209-41.147-41.3222209-22.952 0-34.559 16.6685209-37.352 23.4755209 0-10.0796-10.079-22.12284-21.774-22.12284h-37.7873v81.42264h35.1696c14.3127 0 24.3917-12.2177 24.3917-22.9519 3.186 6.6325 14.443 23.301 37.352 23.301zm-64.5363-33.0752c3.2727 0 5.8903 3.1853 5.8903 6.807 0 3.7962-2.6176 6.9816-5.8903 6.9816h-11.2578v-13.7886zm0-30.5444c3.2727 0 5.8903 3.1853 5.8903 6.807s-2.6176 6.807-5.8903 6.807h-11.2578v-13.614zm14.8793 21.8174c2.618-.1745 6.895-3.1854 8.509-4.9744-.611 2.1818-.611 9.0761 0 11.2578-1.789-2.6617-5.891-5.8034-8.509-6.2834zm29.017 0c0-11.476 9.338-20.7266 20.814-20.6829 11.52.0872 20.683 9.4687 20.552 20.9883-.174 11.3451-9.338 20.4648-20.683 20.4648-11.432 0-20.683-9.2506-20.683-20.7702zm20.64 16.3194c8.814 0 16.232-7.2434 16.232-16.3194 0-9.0761-7.418-16.2322-16.232-16.2322-9.076 0-16.32 7.1561-16.32 16.2322 0 9.076 7.244 16.3194 16.32 16.3194z" fill="#fff"/><path d="m319.931 30.239c-.437-19.723-14.4-30.1517316-31.505-30.1517316-9.381 0-17.846 3.1417116-23.606 9.2505916-5.76-6.10888-14.225-9.2505916-23.607-9.2505916-17.105 0-31.068 10.4723316-31.504 30.1953316v.1309 44.9876c0 4.1453 3.36 7.4615 7.461 7.4615h7.069c.698 0 1.266-.5672 1.266-1.2654v-51.2273c.305-9.7306 7.2-14.8795 15.708-14.8795 8.509 0 15.403 5.1489 15.709 14.8795v44.9875c0 4.1453 3.36 7.4616 7.461 7.4616h7.069c.698 0 1.266-.5673 1.266-1.2654v-51.2274c.305-9.7305 7.199-14.8795 15.708-14.8795s15.403 5.149 15.709 14.8795v44.9876c0 4.1453 3.36 7.4615 7.461 7.4615h7.069c.698 0 1.266-.5672 1.266-1.2654v-51.2273c.043.0436 0 0 0-.0436zm159.136-28.88632h-12c-3.316 0-6.414 1.65812-8.29 4.40712l-13.265 19.6357c-1.746 2.5744-5.498 2.5744-7.244 0l-13.265-19.6357c-1.832-2.749-4.974-4.40712-8.29-4.40712h-12c-.742 0-1.178.82906-.785 1.43995l23.65 35.08247c1.702 2.5308 1.702 5.847 0 8.3779l-23.65 35.0824c-.437.6109.043 1.4399.785 1.4399h12c3.316 0 6.414-1.6581 8.29-4.4071l13.265-19.6357c1.746-2.5744 5.498-2.5744 7.244 0l13.265 19.6357c1.832 2.749 4.974 4.4071 8.29 4.4071h12c.742 0 1.178-.829.785-1.4399l-23.693-35.0388c-1.702-2.5308-1.702-5.8471 0-8.3779l23.65-35.08243c.436-.61089 0-1.48359-.742-1.48359zm-80.55 0h-7.069c-3.578 0-6.589 2.53083-7.33 5.89071-6.284-4.79983-14.182-7.24339-22.691-7.24339-20.683 0-37.482 14.3995-37.482 41.584 0 27.1846 16.756 41.5841 37.482 41.5841 8.466 0 16.276-2.4 22.56-7.1125.349 3.7962 3.534 6.807 7.461 6.807h7.069c.698 0 1.265-.5672 1.265-1.2654v-78.97911c-.043-.69816-.567-1.26541-1.265-1.26541zm-37.09 66.36862c-12.348 0-22.384-9.0324-22.384-26.0936 0-17.0613 10.036-26.0937 22.384-26.0937 12.349 0 22.385 9.0324 22.385 26.0937 0 17.0612-10.036 26.0936-22.385 26.0936z" fill="#fff"/><g mask="url(#b)"><path d="m274.768 89.1461c26.654 0 48.261-28.1319 48.261-62.8342 0-34.70241-21.607-62.8342-48.261-62.8342-26.653 0-48.26 28.13179-48.26 62.8342 0 34.7023 21.607 62.8342 48.26 62.8342z" fill="#fff"/></g><g mask="url(#c)"><path d="m322.854 148.969c54.849 0 99.313-31.472 99.313-70.2953s-44.464-70.29577-99.313-70.29577-99.313 31.47247-99.313 70.29577 44.464 70.2953 99.313 70.2953z" fill="#fff"/></g><g mask="url(#d)"><path d="m383.812 58.7761c29.834 0 54.02-24.1855 54.02-54.01993 0-29.83437-24.186-54.01997-54.02-54.01997s-54.02 24.1856-54.02 54.01997c0 29.83443 24.186 54.01993 54.02 54.01993z" fill="#fff"/></g></g></svg>