<svg fill="none" height="246" viewBox="0 0 480 246" width="480" xmlns="http://www.w3.org/2000/svg" xmlns:xlink="http://www.w3.org/1999/xlink"><clipPath id="a"><path d="m0 0h480v245.76h-480z"/></clipPath><g clip-path="url(#a)" fill="#fff"><path d="m0 116.445v126.601h42.3292v-45.393h38.714v45.393h42.3178v-126.601h-42.3178v44.669h-38.714v-44.669z"/><path d="m198.367 113.744c-10.01 0-19.262 1.656-27.763 4.97-8.502 3.316-15.888 7.93-22.159 13.837s-11.162 12.894-14.66 20.972-5.241 16.819-5.241 26.223v.363c0 9.764 1.832 18.683 5.51 26.761 3.679 8.078 8.746 15.008 15.198 20.796 6.452 5.787 13.992 10.257 22.615 13.392s17.875 4.702 27.764 4.702c11.578 0 22.076-1.755 31.483-5.252s17.542-8.077 24.417-13.743v-58.587h-61.329v27.124h21.714v12.655c-1.685.964-3.62 1.682-5.791 2.164s-5.063.726-8.681.725c-4.461.001-8.524-.717-12.203-2.163-3.678-1.446-6.846-3.5-9.5-6.153-2.653-2.652-4.74-5.841-6.247-9.579-1.508-3.738-2.258-7.845-2.258-12.304v-.351c0-4.342.696-8.326 2.082-11.942 1.386-3.617 3.339-6.751 5.873-9.404s5.548-4.728 9.044-6.234c3.496-1.507 7.296-2.269 11.396-2.269 5.306 0 10.253.972 14.835 2.9s8.987 4.642 13.209 8.141l23.691-28.586c-6.875-6.026-14.68-10.718-23.422-14.094-8.743-3.376-18.603-5.064-29.577-5.064z"/><path d="m255.835 116.445v35.815h34.876v90.786h39.617v-90.786h34.875v-35.815z"/><path d="m336.727 116.445 51.373 127.502h40.527l51.373-127.502h-46.67l-24.604 71.079-24.604-71.079z"/><path d="m167.437 0-165.06029 108.052 327.58929.569z"/></g></svg>