<svg fill="none" height="533" viewBox="0 0 480 533" width="480" xmlns="http://www.w3.org/2000/svg" xmlns:xlink="http://www.w3.org/1999/xlink"><clipPath id="a"><path d="m0 0h480v532.961h-480z"/></clipPath><g clip-path="url(#a)"><path d="m102.998 476.697 7.385-1.915 8.721 33.274-7.336 1.917zm13.788-5.04 27.653 14.418-4.942-18.957 7.286-1.914 9.075 34.584-27.678-14.217 4.965 18.856-7.284 1.916zm33.803-7.462 7.84-2.117 14.418 17.14 4.234-21.98 7.839-2.017-7.99 39.425zm38.164-10.083 22.762-5.949 1.74 6.756-15.428 3.932 1.664 6.353 14.394-3.832 1.764 6.553-14.418 3.833 1.865 7.159 15.755-4.135 1.74 6.655-23.116 6.05zm33.652 16.032c3.201 1.513 7.184 2.42 12.276 1.008 3.78-.907 5.47-2.924 4.966-4.84-.63-2.217-2.999-2.62-8.822-3.124-5.572-.506-10.185-2.219-11.571-7.563-1.613-6.05 2.95-10.789 9.453-12.503 3.705-1.009 7.058-.907 10.109 0l1.915 7.26c-2.797-1.31-5.899-1.714-10.008-.606-3.15.807-4.512 2.319-4.082 3.833.679 2.52 5.015 2.42 8.922 2.923 6.932.807 10.134 2.823 11.47 7.866 1.436 5.646-1.563 11.09-10.285 13.309-4.688 1.31-8.773 1.108-12.326.1zm29.694-25.509-9.049 2.419-1.765-6.756 25.309-6.554 1.765 6.655-8.898 2.319 7.033 26.619-7.387 1.916zm18.578-11.999 7.386-2.017 8.772 33.375-7.387 2.016zm30.35-8.571c3.831-1.009 7.536-.908 10.89.202l1.865 7.159c-3.201-1.412-7.032-1.713-10.99-.706-5.949 1.613-9.403 7.36-7.814 13.41 1.562 5.95 7.386 9.176 13.334 7.663 2.823-.704 5.167-2.318 6.604-4.537l-1.185-4.436-8.771 2.219-1.715-6.453 15.655-4.135 3.554 13.512c-2.016 4.94-6.452 8.974-12.401 10.486-9.907 2.621-19.814-2.52-22.435-12.502-2.648-9.884 3.502-19.261 13.409-21.882zm33.148-10.184 26.644 30.652-7.864 2.118-3.983-4.639-13.863 3.63-1.185 6.05-7.814 2.017zm10.461 22.585-6.555-7.663-1.889 9.882zm15.225-20.063-9.125 2.318-1.765-6.654 25.36-6.655 1.765 6.655-8.925 2.319 7.008 26.719-7.36 1.916zm18.502-12.1 7.412-1.916 8.771 33.375-7.41 1.914zm30.198-8.47c9.882-2.622 19.814 2.924 22.385 12.603 2.521 9.681-3.378 19.36-13.309 21.88-9.882 2.623-19.763-2.823-22.334-12.603-2.571-9.58 3.378-19.359 13.258-21.88zm7.361 27.829c5.797-1.513 9.176-7.462 7.613-13.31-1.461-5.848-7.31-9.378-13.209-7.865-5.898 1.613-9.225 7.563-7.612 13.31 1.563 5.949 7.26 9.376 13.208 7.865zm15.226-34.585 27.628 14.317-4.941-18.955 7.26-1.915 9.074 34.685-27.627-14.319 4.941 18.856-7.261 1.916zm-219.279 110.509 12.653-3.226c11.622-3.126 19.561 2.42 22.082 11.999 2.596 9.881-1.638 18.25-13.31 21.274l-12.654 3.328zm19.208 23.494c8.418-2.218 9.553-7.26 8.116-12.705-1.512-5.646-4.916-9.478-13.386-7.259l-4.788 1.31 5.192 19.964zm16.308-32.77 7.336-1.915 8.772 33.374-7.335 1.815zm18.754 19.863c3.253 1.613 7.21 2.42 12.327 1.109 3.782-1.109 5.47-3.026 4.966-4.94-.63-2.319-2.999-2.623-8.848-3.126-5.57-.403-10.158-2.219-11.595-7.563-1.563-5.949 2.925-10.789 9.428-12.503 3.781-1.007 7.135-.907 10.184 0l1.915 7.36c-2.796-1.411-5.899-1.814-10.032-.704-3.15.806-4.487 2.318-4.058 3.831.605 2.52 4.941 2.42 8.923 2.924 6.907.806 10.109 2.722 11.469 7.864 1.437 5.647-1.562 11.091-10.284 13.411-4.689 1.21-8.773 1.009-12.403 0zm39.123-35.693c3.932-1.009 7.738-.807 11.243.807l2.016 7.663c-3.504-2.017-7.487-2.823-11.495-1.715-5.948 1.512-9.402 7.259-7.815 13.309 1.613 6.05 7.387 9.175 13.336 7.663 4.006-1.008 7.108-3.63 9.176-7.158l2.016 7.764c-2.319 3.024-5.521 5.041-9.454 6.15-9.855 2.52-19.812-2.621-22.434-12.503-2.596-9.982 3.504-19.359 13.411-21.98zm32.266-8.469c9.932-2.522 19.763 2.923 22.333 12.603 2.522 9.68-3.327 19.36-13.259 21.98-9.856 2.623-19.813-2.923-22.333-12.603-2.546-9.68 3.402-19.36 13.259-21.98zm7.309 27.929c5.849-1.613 9.176-7.462 7.663-13.41-1.561-5.748-7.36-9.379-13.209-7.765-5.899 1.513-9.201 7.462-7.663 13.31 1.564 5.949 7.336 9.377 13.209 7.865zm10.286-31.963 7.864-2.016 14.419 17.04 4.133-21.983 7.866-2.016-7.966 39.425zm38.113-10.083 22.788-5.949 1.815 6.654-15.478 4.135 1.664 6.25 14.419-3.73 1.714 6.553-14.419 3.731 1.916 7.159 15.729-4.134 1.714 6.655-23.089 6.05zm28.586-7.462 13.964-3.63c6.251-1.714 12.604 1.816 14.217 7.967 1.159 4.436-.302 8.57-3.428 11.09l11.495 10.689-8.319 2.217-9.831-9.276h-.1l-4.84 1.312 2.924 11.091-7.311 1.915zm17.292 12.302c2.823-.806 4.285-3.126 3.578-5.849-.654-2.62-2.972-3.932-5.292-3.326l-6.453 1.714 2.319 8.973zm26.719-1.513-17.746-17.746 8.017-2.117 11.645 11.897 4.236-15.93 8.015-2.119-6.756 24.099 3.277 12.403-7.411 1.915zm-42.45-214.339c-5.445 40.51-31.358 70.052-73.907 81.345 0 0-99.873 26.519-107.712 28.636-1.814.403-3.352.605-4.764.605-.252 0-.555 0-.907 0-.53 0-.933-.101-1.362-.302h-.05c-.404-.102-.756-.303-1.184-.505-.404-.201-.706-.504-.984-.705l-.101-.102c-.252-.301-.555-.604-.807-1.008h-.076c-.151-.202-.251-.403-.352-.606-.1-.201-.252-.403-.352-.604-.051 0-.051-.101-.051-.101-.1-.202-.227-.505-.327-.705-.101-.304-.202-.504-.303-.807-.051 0-.051-.101-.051-.101-.101-.302-.201-.505-.302-.806-.102-.303-.151-.606-.251-.909-.051 0-.051-.101-.051-.201-.127-.303-.227-.504-.277-.807-.454-1.816-3.656-13.813-8.345-31.358-4.712-17.544-10.914-40.532-17.191-64.203-.076-.049-.076-.152-.126-.201-14.041-52.482-28.888-108.141-30.401-113.687-2.218-8.469-.731-10.94 7.891-13.209 8.621-2.268 105.947-28.1302 105.947-28.1302 43.104-11.3951 81.546 3.0241 107.156 37.7092l-34.282-130.12-359.861 95.234 97.5277 364.121 358.0213-96.293zm-225.908 116.333c0 .101-.051.202-.051.301v.202c-.049.101-.049.201-.049.303 0 .101 0 .201-.051.201 0 .101-.05.202-.05.303s0 .101-.051.101c-.075.202-.126.302-.176.403 0 .1 0 .1-.051.1 0 .102-.1.203-.1.303-.051.101-.101.101-.101.101 0 .102-.101.202-.101.303-.05 0-.101 0-.101.1-.1.102-.1.202-.201.303 0 0-.05.1-.102.1-.049.102-.1.203-.226.203 0 .1-.05.1-.102.1-.1.101-.201.202-.301.303v.101c-1.488 1.209-3.883 2.218-7.487 3.126-11.571 3.126-25.612 6.956-34.006 9.176-1.513.403-2.848.604-4.083.806-.329 0-.58 0-.882 0h-.101c-.58.1-1.135 0-1.614 0h-.049c-.252-.1-.505-.1-.655-.1-.051 0-.127 0-.127-.103-.454 0-.857-.201-1.235-.301 0 0-.05-.102-.102-.102-.15 0-.301-.101-.504-.201 0-.1 0-.1-.049-.1-.379-.303-.681-.506-.984-.807 0 0 0 0 0-.103-.15-.1-.302-.3-.428-.402 0 0-.051 0-.051-.101-.15-.101-.252-.303-.352-.504 0 0 0 0-.051 0-.1-.202-.201-.403-.301-.606-.051-.101-.051-.101-.051-.101-.101-.201-.227-.403-.328-.706-.1-.301-.201-.504-.303-.704 0-.102 0-.102-.049-.102-.051-.302-.152-.504-.202-.807-.05-.101-.05-.101-.101-.201-.051-.202-.1-.504-.202-.807-.05-.1-.1-.403-.277-.908-.051-.301-.152-.605-.251-.907-.051-.303-.152-.706-.252-1.21-.202-.706-.429-1.412-.681-2.42 0-.101-.05-.202-.101-.404-3.554-13.712-12.906-49.104-22.813-86.914-.05-.102-.05-.202-.1-.302-14.243-54.323-29.7458-113.258-31.2832-119.106-2.3194-8.822-.6301-10.435 7.9412-12.704 5.9478-1.513 24.375-6.555 34.028-9.024.303-.101.607-.202.934-.252.1-.051.2-.051.251-.051.252-.1.454-.1.655-.201.127 0 .177 0 .278-.051.202-.051.404-.051.605-.101.05-.05.151-.05.278-.05.15-.051.352-.051.553-.101.05 0 .102-.051.202-.051.201 0 .428-.049.579-.1h.152c.252 0 .455-.051.731-.1.455 0 .858-.051 1.286-.051h.05.504c.051 0 .101.051.101.051.176 0 .327 0 .479.049h.05c.201 0 .302.05.504.102 2.848.655 3.983 3.124 5.268 8.066 1.185 4.334 16.638 63.119 30.98 117.718 0 .101 0 .152.05.252 6.202 23.569 12.176 46.357 16.739 63.7 4.486 17.242 7.637 28.938 7.99 30.551.101.201.152.403.201.605v.202c.051.201.101.301.101.504.05 0 .05.1.126.201 0 .102 0 .202.051.403 0 0 .05.102.05.202s0 .202.05.404v.2c0 .103.05.203.05.506v.101c.05.1.05.303.05.503v.607zm160.572-163.42c-.101-.354-.203-.657-.303-.958-1.714-5.646-3.63-10.738-6.05-16.033-13.486-28.232-35.744-40.735-62.842-33.526 0 0-36.702 9.782-41.669 11.092-3.931 1.008-5.721 2.873-5.721 5.696.05.657.151 1.261.303 1.968.554 2.116 8.823 32.971 16.889 62.968 5.52 20.569 10.94 40.861 13.713 51.246.126.504.226.908.377 1.311.252 1.009.505 1.816.707 2.623.378 1.613.68 2.62.782 3.124 1.083 3.933 3.781 6.252 8.62 5.042 3.201-.806 36.148-9.579 36.148-9.579 38.44-10.284 51.851-37.382 40.004-81.394-.202-.858-.454-1.665-.655-2.471-.103-.404-.203-.757-.303-1.109z" fill="#fff"/></g></svg>