<svg fill="none" height="211" viewBox="0 0 480 211" width="480" xmlns="http://www.w3.org/2000/svg" xmlns:xlink="http://www.w3.org/1999/xlink"><clipPath id="a"><path d="m0 0h480v210.494h-480z"/></clipPath><g clip-path="url(#a)"><path d="m105.33 210.494c58.124 0 105.33-47.067 105.33-105.224 0-58.159-47.206-105.27-105.33-105.27-58.2135 0-105.33 47.111-105.33 105.27 0 58.157 47.1165 105.224 105.33 105.224z" fill="#fff"/><g fill="#000"><path d="m101.092 59.072v92.35h29.359v-8.304h-20.897v-84.046z"/><path d="m71.6952 84.2696c6.9847 0 12.615-5.6793 12.615-12.6151 0-6.9411-5.6303-12.6423-12.615-12.6423-6.9848 0-12.6151 5.7012-12.6151 12.6423 0 6.9412 5.6303 12.6151 12.6151 12.6151z"/><path d="m109.552 17.1798c-1.101-.0545-3.194-.1227-4.194-.1227-48.6185 0-88.1861 39.5813-88.1861 88.1689 0 23.601 9.1704 45.722 25.7806 62.356 16.6784 16.597 38.81 25.767 62.4055 25.767 23.505 0 45.631-9.17 62.279-25.767 16.651-16.634 25.865-38.755 25.865-62.356v-3.921h-3.567-59.402v8.116h54.57c0 .177 0 1.038-.038 1.261-2.774 41.538-37.466 74.437-79.707 74.437-21.3826 0-41.4321-8.314-56.5217-23.415-15.1386-15.038-23.4806-35.071-23.4806-56.48 0-21.287 8.342-41.4237 23.4806-56.5079 15.0896-15.0705 35.1391-23.3852 56.5217-23.3852.921 0 3.161 0 4.194.0545z"/></g><path d="m289.874 35.4334h-31.65v137.0186h97.214v-26.671h-65.564zm135.191 84.8036h25.778v23.958c-4.753 1.809-14.022 3.613-22.84 3.613-28.487 0-37.976-14.468-37.976-43.854 0-28.0237 9.036-44.5468 37.523-44.5468 15.831 0 24.873 4.9763 32.324 14.4737l19.679-18.0928c-11.985-17.1689-33.016-22.3687-52.679-22.3687-44.323 0-67.604 24.1892-67.604 70.3056 0 45.893 21.025 70.76 67.381 70.76 21.249 0 42.05-5.423 53.349-13.334v-66.4684h-54.935z" fill="#fff"/></g></svg>