<svg fill="none" height="208" viewBox="0 0 480 208" width="480" xmlns="http://www.w3.org/2000/svg" xmlns:xlink="http://www.w3.org/1999/xlink"><clipPath id="a"><path d="m0 0h480v207.039h-480z"/></clipPath><mask id="b" height="208" maskUnits="userSpaceOnUse" width="211" x="127" y="0"><path d="m179.504 207.039v-119.3665l52.967 80.3105 52.919-80.3105v119.3665h52.441v-207.039h-60.377l-44.983 77.3469-45.032-77.3469h-60.328v207.039z" fill="#fff"/></mask><g clip-path="url(#a)"><path d="m55.9785 157.466v-157.466h-55.9785v174.485c0 17.974 14.5802 32.554 32.5545 32.554h23.424 67.8335v-49.573z" fill="#fff"/><path d="m342.42 207.039h6.645v-109.0886l84.517 109.0886h46.418v-207.039h-54.592v108.037l-82.988-108.037z" fill="#fff"/><g mask="url(#b)"><path d="m133.708 210.338h-6.645v-213.68431h6.645zm10.756-213.68431h-6.645v213.68431h6.645zm10.756 0h-6.645v213.68431h6.645zm10.755 0h-6.644v213.68431h6.644zm10.709 0h-6.645v213.68431h6.645zm10.755 0h-6.644v213.68431h6.644zm10.756 0h-6.644v213.68431h6.644zm10.708 0h-6.644v213.68431h6.644zm10.756 0h-6.644v213.68431h6.644zm10.756 0h-6.645v213.68431h6.645zm10.708 0h-6.644v213.68431h6.644zm10.756 0h-6.645v213.68431h6.645zm10.756 0h-6.645v213.68431h6.645zm10.708 0h-6.597v213.68431h6.645v-213.68431zm10.756 0h-6.645v213.68431h6.645zm10.756 0h-6.645v213.68431h6.645zm10.756 0h-6.645v213.68431h6.645zm10.708 0h-6.645v213.68431h6.645zm10.756 0h-6.645v213.68431h6.645zm10.756 0h-6.645v213.68431h6.645z" fill="#fff"/></g></g></svg>