<svg fill="none" height="146" viewBox="0 0 480 146" width="480" xmlns="http://www.w3.org/2000/svg" xmlns:xlink="http://www.w3.org/1999/xlink"><clipPath id="a"><path d="m0 0h480v145.532h-480z"/></clipPath><g clip-path="url(#a)" fill="#fff"><path d="m34.2626 108.897h3.7503c17.1313 0 27.9657-9.0788 43.4301-31.2708h.2778l-11.2511 34.8468h-70.4697v-.275c6.75992-3.851 8.42672-7.428 10.8344-17.24l17.409-69.0979c1.065-4.31 1.6669-7.4278 1.6669-9.8121 0-3.2554-.8797-5.3646-3.7504-7.42792v-.27511h39.8187v.27511c-6.7599 3.85152-8.4268 7.42792-10.8344 17.28592z"/><path d="m107.788 98.9469c-.185.917-.278 1.8801-.278 2.8431 0 2.522 1.204 4.172 3.612 4.172 1.389-.046 2.731-.458 3.889-1.192v.275c-4.676 6.419-10.51 8.941-16.9924 8.941-9.7695 0-13.9828-5.823-13.9828-13.709-.0463-2.1554.2315-4.3104.7408-6.4196l9.6305-38.836c1.2038-4.7685 1.9447-7.6113 1.9447-9.6746 0-2.6593-.8797-4.4476-3.1485-6.2357v-.321h29.7717zm8.242-95.82908c7.686 0 13.056 5.50215 13.056 12.65498.047 7.8405-6.343 14.2597-14.26 14.3056-.047 0-.093 0-.139 0-7.686 0-13.057-5.5022-13.057-12.655-.139-7.79469 6.158-14.21388 14.029-14.30558.093-.04593.232-.04593.371 0z"/><path d="m160.062 38.7902h11.297l-1.806 3.7139h-10.232l-16.854 67.5849c-6.158 24.851-16.992 35.122-39.217 35.443v-.275c7.964-5.365 11.437-18.295 18.336-48.0982l12.779-54.6088h-6.899l.463-1.6507 7.639-3.2554 1.343-4.1725c5.417-21.275 21.623-33.4714 38.8-33.4714 9.492 0 17.131 4.63098 17.131 12.334 0 8.8034-6.482 13.7095-13.982 13.7095-4.955 0-8.427-2.6594-9.168-5.8231 4.491-.7336 9.492-4.631 9.492-13.11346 0-2.84278-1.482-4.76852-4.214-4.76852-5.417 0-9.908 7.42791-12.779 24.85138z"/><path d="m160.386 86.7047c0-23.6592 19.678-49.5652 45.374-49.5652 12.316 0 18.474 6.2358 18.474 15.0392 0 16.6899-18.196 23.7968-39.216 24.7138-.463 2.797-.695 5.6397-.741 8.4825 0 11.9213 5.695 17.699 13.659 17.699 6.76 0 11.436-3.2558 17.131-10.7296h.926c-6.297 14.4436-17.131 21.5956-30.188 21.5956-14.909 0-25.419-9.353-25.419-27.2353zm25.095-12.013c12.64-3.8515 22.085-18.2946 22.085-30.0784 0-2.9804-1.065-4.7686-3.009-4.7686-6.76 0-15.928 18.2947-19.076 34.847z"/><path d="m247.246 94.5911c-.324 1.0087-.463 2.0633-.463 3.1179 0 4.31 2.871 6.832 6.482 6.832 2.408 0 5.556-1.33 8.427-4.035l.139.275c-5.556 8.758-12.918 13.113-22.41 13.113-10.834 0-16.529-6.235-16.529-15.9099.093-2.4759.417-4.9061 1.065-7.2903l12.177-48.2355h-5.417l.463-1.9258c15.603-3.9891 25.697-12.6549 35.327-27.6941h1.343l-6.482 25.9059h14.122l-1.667 3.714h-13.52z"/><path d="m291.741 98.9469c-.185.9171-.278 1.8801-.324 2.8431 0 2.522 1.204 4.172 3.611 4.172 1.389-.046 2.732-.458 3.89-1.192v.275c-4.677 6.419-10.511 8.941-16.993 8.941-9.769 0-13.983-5.823-13.983-13.709-.046-2.1554.232-4.3104.741-6.4195l9.631-38.836c1.204-4.7686 1.945-7.6114 1.945-9.6746 0-2.6594-.927-4.4476-3.149-6.2358v-.321h29.771zm8.242-95.82905c7.686 0 13.056 5.50215 13.056 12.65495 0 7.8406-6.389 14.2139-14.306 14.2597-.047 0-.093 0-.093 0-7.64 0-13.057-5.5021-13.057-12.6549-.139-7.79473 6.158-14.21389 14.029-14.30558.139 0 .232-.0001.371.04583z"/><path d="m403.557 98.947c-.277.9171-.463 1.88-.463 2.843 0 2.522 1.204 4.172 3.751 4.172 1.342-.046 2.639-.458 3.75-1.192v.275c-4.491 6.419-10.371 8.941-16.807 8.941-9.909 0-14.261-5.823-14.261-13.709 0-2.1094.463-4.1728.926-6.4194l8.566-34.0675c.555-1.7882.88-3.6223.926-5.5022 0-2.3843-.926-3.8515-3.287-3.8515-4.677 0-9.492 6.0982-12.779 18.6156l-10.835 43.467h-24.215l13.242-52.6831c.555-1.6965.88-3.4388.926-5.227 0-2.5219-1.065-4.1725-3.612-4.1725-4.676 0-9.306 6.0982-12.64 19.0283l-10.788 43.0083h-24.354l14.446-57.4515c1.065-4.7685 1.806-7.6113 1.806-9.6746 0-2.6593-.926-4.4475-3.01-6.2357v-.321h29.633l-4.353 17.1025c5.556-11.7379 12.455-18.6156 22.827-18.6156 9.908 0 14.26 6.6943 14.26 15.3143-.046 1.0546-.139 2.1092-.324 3.1179 5.695-11.7379 12.918-18.4322 23.15-18.4322 10.094 0 14.261 6.4192 14.261 14.9017-.046 2.7969-.417 5.5938-1.065 8.3449z"/><path d="m416.151 86.7047c0-23.6592 19.678-49.5652 45.375-49.5652 12.316 0 18.474 6.2358 18.474 15.0392 0 16.6899-18.196 23.7968-39.217 24.7138-.463 2.797-.694 5.6397-.74 8.4825 0 11.9213 5.695 17.699 13.658 17.699 6.76 0 11.437-3.2558 17.132-10.7296h.879c-6.297 14.4436-17.131 21.5956-30.188 21.5956-14.816 0-25.373-9.353-25.373-27.2353zm25.095-12.013c12.64-3.8515 22.086-18.2946 22.086-30.0784 0-2.9804-1.065-4.7686-3.01-4.7686-6.713 0-15.881 18.2947-19.076 34.847z"/></g></svg>