<svg fill="none" height="495" viewBox="0 0 480 495" width="480" xmlns="http://www.w3.org/2000/svg" xmlns:xlink="http://www.w3.org/1999/xlink"><clipPath id="a"><path d="m0 0h480v494.421h-480z"/></clipPath><g clip-path="url(#a)" fill="#fff"><path d="m447.932 202.739c8.978-2.386 18.152 1.916 25.337 6.987 6.919 9.784 9.803 24.156 2.312 34.442-11.308 13.658-37.346 9.837-43.416-7.167-4.336-13.082 3.205-28.887 15.767-34.262z"/><path d="m388.794 243.344c-2.932 1.792-6.213 3.046-9.603 3.618-8.76-1.236-11.434-11.233-13.153-18.529-1.703-12.11-4.228-25.607 1.04-37.128 6.451-6.899 15.647-10.573 23.76-15.214 4.268-2.616 9.569.18 11.453 4.41 11.578 20.535 4.462 48.347-13.497 62.843zm-106.241 80.655c-4.983 36.159-10.575 72.431-20.878 107.516-3.866 12.133-7.721 24.677-15.48 34.978-2.653 3.709-7.599 7.384-12.221 4.768-7.436-5.394-10.41-14.638-13.063-23.025-5.376-19.551-7.403-39.909-7.958-60.122-.448-20.409 8.012-39.619 18.152-56.859 18.441-31.269 40.211-60.389 60.176-90.654-2.131 27.865-5.128 55.676-8.728 83.398zm-9.68-110.528c-5.301 7.08-11.86 15.071-21.248 15.984-6.058-2.544-5.465-10.321-3.478-15.409 5.072-12.901 11.666-25.769 22.344-34.927 5.879-5.25 13.015-8.764 20.112-12.022-.184 16.97-8.194 32.737-17.73 46.374zm-75.67 10.303c-3.028 9.497-7.775 19.176-16.2 24.981-5.017 3.422-13.725 3.693-15.856-3.209-5.127-14.585-2.853-30.461-2.222-45.605 13.098-4.389 26.375-8.169 39.671-11.915.86 12.185-2.095 24.136-5.393 35.748zm-12.256-68.381c3.421-2.419 8.87-1.72 11.199 1.849 1.826 2.883 2.634 6.27 3.801 9.442-12.098 4.783-24.784 7.939-37.416 10.913 6.199-8.513 13.346-16.665 22.416-22.204zm242.681 19.695c-2.777-11.271-9.315-23.188-21.109-26.843-11.522-4.014-23.31 1.864-32.325 8.8-11.147 9.156-22.003 18.759-31.663 29.51-4.965 5.52-11.128 9.733-16.774 14.481.643-11.038 1.346-22.114 3.493-32.991.953-4.066.323-8.19-1.269-11.988-6.471-.788-15.234 1.524-19.071-5.374-4.1-5.539-8.885-14.426-17.235-11.668-24.228 9.249-48.832 17.636-73.74 24.857-3.799-11.022-10.356-21.88-21.519-26.646-13.118-5.987-29.462-3.191-40.339 6.126-14.047 12.114-20.822 30.283-34.442 42.774-2.649 3.045-6.735 6.02-6.236 10.556 3.513 5.841 8.621 10.538 12.868 15.857-23.959 20.359-49.065 39.371-74.9399 57.235-.216-11.788 1.2542-23.511 2.9942-35.14 6.5568-43.453 15.193-86.55 24.3-129.54 5.4471-26.2876 11.8949-52.4116 20.4247-77.8929 2.797-7.4026 2.295-17.54263-5.1415-22.00663-10.6968-5.664002-23.4561-5.952035-35.2128-4.353634-3.4387.806404-7.5974.662444-10.0161 3.672044-2.473 64.24182-9.2981 128.42912-20.5725 191.77512-4.8019 24.728-9.2268 49.778-18.5456 73.289-2.41873 6.881-8.08125 11.789-11.5575 18.062 3.94125 9.14 11.0212 16.578 19.9781 20.913 8.1 4.262 19.7494 7.831 26.9701.141 27.9376-25.157 55.6598-50.582 84.9018-74.256 3.175 10.611 5.916 22.742 15.555 29.477 7.06 5.503 16.648 5.612 25.105 4.215 15.213-3.536 27.633-15.037 35.084-28.423 8.534-17.524 9.428-37.416 11.882-56.428 8.1-4.032 16.471-7.491 24.585-11.468-12.759 17.434-23.278 38.472-21.808 60.64-.069 7.095 6.846 11.97 13.279 12.937 11.488 1.663 22.436-4.159 31.341-10.877 13.174-9.785 20.252-25.035 29.118-38.368-.753 8.728-2.381 17.364-3.688 26.04-26.846 29.548-52.953 59.882-76.445 92.192-14.284 20.505-28.528 41.665-35.948 65.749-3.799 11.756-3.44 24.441-.823 36.392 3.135 14.805 7.776 29.302 13.796 43.168 4.086 8.659 8.226 17.616 15.09 24.446 5.663 5.665 13.671 7.502 20.91 10.234 16.058.926 30.336-9.36 39.551-21.724 11.556-15.59 21.216-32.934 26.11-51.819 4.477-15.572 7.326-31.543 10.121-47.472 8.745-52.415 13.335-105.402 20.142-158.084 2.222-1.416 4.462-2.83 6.722-4.212 1.181 15.752 5.696 31.736 15.393 44.419 8.406 10.2 23.166 10.003 34.978 7.511 16.378-3.924 28.009-17.452 36.178-31.412 9.694-16.899 13.26-37.344 9.55-56.482z"/></g></svg>