<svg fill="none" height="97" viewBox="0 0 480 97" width="480" xmlns="http://www.w3.org/2000/svg" xmlns:xlink="http://www.w3.org/1999/xlink"><clipPath id="a"><path d="m0 0h480v96.7089h-480z"/></clipPath><g clip-path="url(#a)" fill="#fff"><path d="m15.7266 63.7772c0 5.5595 1.2202 9.8279 2.8152 12.4101 2.0911 3.3823 5.2101 4.8152 8.3898 4.8152 4.1013 0 7.8532-1.0177 15.0836-11.0177 5.7924-8.0152 12.6177-19.2658 17.2101-26.319l7.7772-11.9493c5.4026-8.2988 11.6557-17.5241 18.8253-23.77726 5.8532-5.1038 12.1671-7.93924 18.5212-7.93924 10.669 0 20.831 6.18228 28.608 17.7772 8.511 12.6987 12.643 28.6937 12.643 45.2 0 9.8127-1.934 17.0228-5.225 22.719-3.18 5.5089-9.378 11.0127-19.803 11.0127v-15.7064c8.927 0 11.155-8.2025 11.155-17.5898 0-13.3773-3.119-28.2228-9.99-38.8304-4.876-7.5241-11.195-12.1215-18.147-12.1215-7.5191 0-13.5697 5.6708-20.3697 15.7822-3.6152 5.3722-7.3266 11.919-11.4937 19.3064l-4.5874 8.1265c-9.2151 16.3393-11.5493 20.0608-16.1569 26.2026-8.076 10.7544-14.9722 14.8304-24.0507 14.8304-10.7696 0-17.5797-4.6633-21.79742-11.6912-3.44304-5.7266-5.13418-13.2405-5.13418-21.8025z"/><path d="m12.3999 18.8861c7.2101-11.11395 17.6152-18.8861 29.5494-18.8861 6.9114 0 13.7822 2.04557 20.9569 7.9038 7.8481 6.4051 16.2127 16.9519 26.6481 34.3342l3.7418 6.2379c9.0329 15.0481 14.1719 22.7899 17.1799 26.4406 3.868 4.6886 6.577 6.086 10.096 6.086 8.927 0 11.154-8.2025 11.154-17.5898l13.874-.4355c0 9.8127-1.934 17.0228-5.225 22.719-3.18 5.5089-9.378 11.0127-19.803 11.0127-6.481 0-12.223-1.4076-18.572-7.3975-4.8811-4.5975-10.5875-12.7646-14.9773-20.1063l-13.0582-21.8127c-6.5519-10.9468-12.5621-19.1089-16.0406-22.8051-3.7417-3.9746-8.5518-8.7746-16.2278-8.7746-6.2127 0-11.4886 4.3595-15.9038 11.0278z"/><path d="m41.6962 15.8127c-6.2127 0-11.4886 4.3595-15.9038 11.0278-6.243 9.4228-10.0658 23.4582-10.0658 36.9367 0 5.5595 1.2202 9.8279 2.8152 12.4101l-13.40762 8.8304c-3.44304-5.7266-5.13418-13.2405-5.13418-21.8025 0-15.5696 4.27342-31.7975 12.4-44.3291 7.2101-11.11395 17.6152-18.8861 29.5494-18.8861z"/><path d="m176.172 3.05835h18.193l30.931 55.95945 30.937-55.95945h17.798v91.94935h-14.841v-70.4709l-27.129 48.8h-13.924l-27.124-48.8v70.4709h-14.841zm144.36 34.28355c-10.643 0-17.053 8.0101-18.587 17.9291h36.121c-.744-10.2177-6.638-17.9291-17.534-17.9291zm-33.301 23.5797c0-20.8708 13.488-36.0607 33.559-36.0607 19.742 0 31.529 14.9974 31.529 37.1747v4.0759h-50.374c1.787 10.7899 8.946 18.0608 20.491 18.0608 9.21 0 14.967-2.8102 20.425-7.9494l7.884 9.6557c-7.428 6.8304-16.876 10.7696-28.836 10.7696-21.727 0-34.678-15.843-34.678-35.7266zm83.083-22.2633h-13.661v-12.1519h13.661v-20.09615h14.319v20.09615h20.755v12.1519h-20.755v30.8c0 10.5165 3.362 14.2532 11.625 14.2532 3.773 0 5.935-.324 9.13-.8557v12.0203c-3.98 1.124-7.778 1.6405-11.889 1.6405-15.458 0-23.185-8.4456-23.185-25.3519zm95.367 11.8178c-2.876-7.2608-9.291-12.6076-18.719-12.6076-12.253 0-20.096 8.6936-20.096 22.8557 0 13.8076 7.22 22.9215 19.509 22.9215 9.661 0 16.557-5.6203 19.306-12.6127zm14.319 44.5316h-14.055v-9.5899c-3.93 5.6456-11.079 11.2304-22.659 11.2304-18.623 0-31.068-15.5898-31.068-35.924 0-20.5266 12.744-35.8633 31.858-35.8633 9.448 0 16.861 3.7772 21.869 10.4456v-8.8001h14.055z"/></g></svg>