<svg fill="none" height="143" viewBox="0 0 480 143" width="480" xmlns="http://www.w3.org/2000/svg" xmlns:xlink="http://www.w3.org/1999/xlink"><clipPath id="a"><path d="m0 0h480v142.312h-480z"/></clipPath><g clip-path="url(#a)" fill="#fff"><path d="m0 0v142.292h97.9948v-142.292zm83.8215 127.967h-69.6989v-113.6321h69.6989z"/><path d="m156.393 49.6114h-.137c-7.818-12.7333-15.71-23.9807-23.67-35.3029h-6.073v49.5268h6.703v-35.52h.067c7.895 12.808 15.782 24.1302 23.745 35.52h6.073v-49.5268h-6.708zm48.389 14.2239-15.573-49.5268h-6.978l-16.899 49.5268h7.261l4.262-13.5148h14.728l3.842 13.5148zm-25.766-19.6028c1.956-6.5102 3.912-12.5138 5.656-20.1648h.143c1.956 7.6486 3.7 13.6546 5.516 20.1648zm33.653 19.6028h8.379v-42.8744h12.85v-6.6524h-34.073v6.6524h12.846zm32.256-49.5268h-8.307v49.5268h8.307zm25.841 50.371c12.779 0 20.739-11.5296 20.739-26.318 0-13.8669-8.802-24.9069-20.739-24.9069-11.942 0-20.744 11.04-20.744 24.9069 0 14.7908 7.96 26.318 20.744 26.318zm0-44.1455c8.309 0 11.797 8.7003 11.797 17.8299 0 9.4794-3.068 19.2435-11.797 19.2435s-11.8-9.7617-11.8-19.2435c0-9.1296 3.49-17.8299 11.8-17.8299zm32.531 7.7813h.078c7.887 12.808 15.774 24.1302 23.737 35.52h6.073v-49.5268h-6.703v35.3029h-.14c-7.817-12.7333-15.71-23.9807-23.669-35.3029h-6.074v49.5268h6.698zm43.637 22.0052h14.738l3.84 13.5148h9.354l-15.568-49.5268h-6.983l-16.901 49.5268h7.27zm7.829-26.2528h.138c1.951 7.6486 3.698 13.6546 5.519 20.1648h-11.32c1.961-6.5102 3.91-12.5162 5.663-20.1648zm47.402 33.1127h-16.544v-42.8719h-8.312v49.5268h24.859zm-252.603 63.2996c-1.748.922-3.63 1.206-5.863 1.206-7.191 0-14.174-6.937-14.174-18.679 0-11.2473 6.074-18.3966 15.013-18.3966 3.213 0 6.703 1.2012 8.937 2.6146l2.72-5.8685c-2.79-2.1274-7.33-3.8231-11.869-3.8231-14.661 0-23.74 11.8167-23.74 25.3286 0 14.577 9.079 25.899 23.457 25.899 4.75 0 9.429-1.267 13.901-3.044v-20.452h-8.382zm24.364-15.21h13.689v-6.648h-13.689v-13.5847h13.969v-6.65h-22.343v49.5267h24.856v-6.657h-16.482zm39.804-27.7342c-11.942 0-20.736 11.0376-20.736 24.9072 0 14.786 7.957 26.32 20.736 26.32 12.777 0 20.734-11.534 20.734-26.32 0-13.8696-8.796-24.9072-20.734-24.9072zm0 44.1502c-8.731 0-11.802-9.764-11.802-19.246 0-9.1293 3.49-17.832 11.802-17.832 8.307 0 11.798 8.7003 11.798 17.832 0 9.482-3.068 19.246-11.798 19.246zm52.576-1.206c-1.744.922-3.633 1.206-5.866 1.206-7.193 0-14.176-6.937-14.176-18.679 0-11.2473 6.076-18.3966 15.018-18.3966 3.21 0 6.703 1.2012 8.929 2.6146l2.726-5.8685c-2.791-2.1274-7.333-3.8231-11.875-3.8231-14.656 0-23.732 11.8167-23.732 25.3286 0 14.577 9.076 25.899 23.462 25.899 4.742 0 9.419-1.267 13.893-3.044v-20.452h-8.379zm44.269-27.7989c0-9.6289-5.799-14.2938-15.151-14.2938h-13.059v49.5267h8.378v-18.679h3.77l7.889 18.679h9.564l-9.838-20.522c5.369-2.899 8.447-8.77 8.447-14.7109zm-16.34 10.1839c-.842.072-2.8.145-3.495.215v-18.0403h3.707c4.95 0 7.741 2.8945 7.741 7.9912 0 6.6476-3.973 9.6241-7.953 9.8341zm34.772-24.4777-16.901 49.5267h7.258l4.262-13.517h14.733l3.85 13.517h9.349l-15.572-49.5267zm-3.21 29.9317c1.954-6.515 3.908-12.5287 5.654-20.1677h.142c1.952 7.639 3.698 13.6527 5.517 20.1677zm87.068-10.9006h-17.388v-19.0311h-8.31v49.5267h8.31v-23.848h17.388v23.848h8.375v-49.3917h-8.375zm16.402 30.4906h8.307v-49.5217h-8.307zm37.636-6.223c-8.1 0-14.946-6.937-14.946-18.679 0-11.2473 6.221-18.3966 14.736-18.3966 3.213 0 6.565 1.4834 8.591 2.757l2.651-6.0085c-2.863-1.9827-6.908-3.8231-11.24-3.8231-14.593 0-23.602 11.8167-23.602 25.3292 0 14.576 9.079 25.898 23.467 25.898 4.047 0 8.515-1.628 11.028-3.394l-2.301-6.158c-2.166 1.414-5.172 2.475-8.384 2.475zm-99.638-43.2987h-13.049v49.5267h8.379v-18.679h3.766c9.99 0 16.059-8.213 16.059-16.5539-.002-9.6289-5.791-14.2938-15.155-14.2938zm-1.184 24.4777c-.837.065-2.858.133-3.488.198v-18.0257h3.765c4.892 0 7.685 2.8945 7.685 7.9912-.002 6.65-3.982 9.6265-7.962 9.8365z"/></g></svg>