<svg fill="none" height="186" viewBox="0 0 480 186" width="480" xmlns="http://www.w3.org/2000/svg" xmlns:xlink="http://www.w3.org/1999/xlink"><clipPath id="a"><path d="m0 0h480v185.746h-480z"/></clipPath><g clip-path="url(#a)" fill="#fff"><path d="m328.072 118.905c-11.837 35.155-47.128 60.659-87.915 60.659-40.79 0-75.965-25.504-87.768-60.659h-.813c10.991 38.578 46.477 66.841 88.581 66.841 42.101 0 77.596-28.263 88.581-66.841zm-87.915-113.85002c41.206 0 76.723 26.07832 88.209 61.78912h.3c-10.998-38.5678-46.408-66.84434414-88.509-66.84434414-42.104 0-77.59 28.26284414-88.581 66.84434414h.437c11.428-35.7313 46.92-61.78912 88.144-61.78912z"/><path d="m194.708 80.9928c0-.4608-.153-.8295-1.45-.9319v-.6212h10.67v.6212c-1.294.1024-1.454.4711-1.454.9319v13.872c0 9.1072-6.363 12.1212-14.289 12.1212-7.912 0-14.285-3.014-14.285-12.1212v-13.872c0-.4608-.153-.8295-1.45-.9319v-.6212h10.67v.6212c-1.301.1024-1.454.4711-1.454.9319v13.872c0 3.9902 2.379 5.5942 6.519 5.5942 4.144 0 6.523-1.604 6.523-5.5942z"/><path d="m242.578 104.681c0 .864.733 1.048 1.72 1.106v.741h-11.391v-.741c.615 0 1.782-.058 1.782-.802 0-1.413-7.881-8.4308-14.841-16.5684l-.123.1229v16.1415c0 .864.741 1.048 1.601 1.106v.741h-10.534v-.741c.802-.058 1.543-.242 1.543-1.106v-23.4086c0-.8567-.741-1.0513-1.662-1.1093v-.7339h14.653v.7339c-.553.058-1.29.2526-1.29 1.1093 0 .4369 5.973 6.5367 11.148 12.1346v-12.1346c0-.8567-.737-1.0513-1.724-1.1093v-.7339h10.838v.7339c-.987.058-1.72.2526-1.72 1.1093z"/><path d="m265.604 79.4292v.7339c-1.235.058-1.966.2526-1.966 1.1093v23.4086c0 .864.731 1.048 1.966 1.106v.738h-12.189v-.738c1.229-.058 1.963-.242 1.963-1.106v-23.4086c0-.8567-.734-1.0513-1.963-1.1093v-.7339z"/><path d="m272.385 79.4292h11.632v.7339c-.491 0-1.536 0-1.536.6212 0 .6793 5.12 13.8584 5.55 15.7084h.113c2.154-5.2361 6.407-15.1622 6.407-15.7084 0-.6212-1.041-.6212-1.406-.6212v-.7339h10.277v.7339c-.679.058-1.109.2526-1.283.8636-.809 2.5907-9.554 23.2893-9.554 23.7743 0 .672.734 1.051 1.294.986v.738h-12.995v-.738c.556.065 1.287-.314 1.287-.986 0-.249-7.885-23.7743-8.739-24.3205-.501-.3174-.747-.3174-1.047-.3174z"/><path d="m335.199 100.973c.734 0 1.359-.43 1.608-1.546h.744v8.254h-.628c-.424-1.113-.738-1.294-1.724-1.294h-27.474v-.731c.867-.064 1.73-.249 1.73-1.112v-23.4026c0-.8635-.863-1.0479-1.73-1.1127v-.7407h27.969c.491 0 1.113-.2356 1.113-1.3551h.744v8.2569h-.744c0-1.2288-.622-1.478-1.113-1.478h-17.989v4.987h11.585c.489 0 1.113-.2389 1.113-1.4166h.737v8.0147h-.737c0-1.1811-.624-1.42-1.113-1.42h-11.585v6.0961z"/><path d="m345.476 81.041c0-.8602-.734-1.0445-1.355-1.106v-.7441h19.773c6.045 0 10.107 2.9594 10.107 8.5676 0 4.4306-3.02 6.8404-6.843 8.3184l5.481 8.2431c.441.683 1.287 1.239 2.158 1.239v.731h-12.439v-.731c.55 0 1.482-.191 1.482-.798 0-.809-4.195-7.5133-4.687-8.5543h-5.915v8.2463c0 .861.744 1.041 1.607 1.106v.731h-10.591v-.731c.488-.065 1.222-.245 1.222-1.106zm7.762 9.9807h8.762c2.574 0 4.239-1.0991 4.239-3.328 0-1.9081-1.054-3.3178-4.686-3.3178h-8.315z"/><path d="m382.32 97.1962.802.3687c0 .1877-.061.3584-.061.6656 0 1.6008 7.086 3.2085 12.083 3.2085 1.522 0 5.594-.246 5.594-2.6453 0-4.8129-20.149-.1331-20.149-10.4689 0-3.8264 3.646-9.1888 13.674-9.1888 5.858 0 10.903 1.6111 12.258 1.6111.693 0 1.044-.4949 1.358-.7441l.683.2492-3.7 7.762-.795-.3686c0-.1844.058-.4301.058-.6861 0-.6076-4.366-2.2665-8.51-2.2665-1.529 0-7.001 0-7.001 2.7034 0 4.3691 20.125-.1297 20.125 10.5951 0 4.8095-4.113 8.9945-13.547 8.9945-5.905 0-12.804-2.212-13.299-2.212-.553 0-.986.416-1.42.864l-.669-.198z"/><path d="m436.861 106.526v-.737c.239 0 .791 0 .791-.553 0-.686-1.348-3.079-1.785-4.195h-14.295c-.358 1.116-1.782 3.509-1.782 4.195 0 .553.55.553.802.553v.737h-9.24v-.737c.495 0 1.048-.184 1.236-.614 4.925-11.5171 10.646-23.5322 10.646-24.389 0-.4369-.181-.5632-.788-.6212v-.7339h12.861v.7339c-.607.058-.795.1843-.795.6212 0 .7373 8.626 18.0364 11.329 24.389.195.43.744.614 1.229.614v.737zm-3.086-9.9155-5.175-10.7727-5.045 10.7727z"/><path d="m453.031 81.1162c0-.85-.737-1.0445-1.662-1.1025v-.7408h11.527v.7408c-.878.058-1.615.2525-1.615 1.1025v18.9788h16.876c.509 0 1.106-.2427 1.106-1.5467h.737v9.3667h-.737c0-1.297-.597-1.547-1.106-1.547h-26.788v-.73c.925-.055 1.662-.246 1.662-1.106z"/><path d="m1.44045 80.9508c0-.454-.1536-.8226-1.44045-.925v-.6178h12.4042v.6178c-1.1844.0512-1.4404.3584-1.4404.6622 0 .5768 8.9055 10.0353 12.5032 14.0017v-13.7389c0-.6144-.4164-.8738-1.0854-.925v-.6178h9.4243v.6178c-1.2868.1024-1.4404.471-1.4404.925v23.9822c0 .464.1536.826 1.4404.925v.618h-9.7793v-.618c.9284 0 1.1878-.201 1.1878-.56 0-.679-1.2902-1.351-14.8755-16.5237v16.1587c0 .464.1536.826 1.43704.925v.618h-9.77594v-.618c1.28685-.099 1.44045-.461 1.44045-.925z"/><path d="m39.8543 80.9508c0-.454-.1571-.8226-1.4439-.925v-.6178h19.6065c5.5536 0 9.6223 2.0548 9.6223 7.1544 0 3.0823-2.0582 4.9836-4.9426 5.6116v.0956c3.451.9353 5.97 2.7785 5.97 6.5912 0 4.1132-3.0856 7.6152-10.3937 7.6152h-19.8625v-.618c1.2868-.099 1.4439-.461 1.4439-.925zm7.7176 8.6427h7.0009c4.4135 0 5.557-.3004 5.557-2.3791 0-2.0515-1.1435-2.3553-5.557-2.3553h-7.0009zm0 11.4215h8.7485c3.6012 0 5.0416-.816 5.0416-3.0826 0-2.2528-1.4404-3.0925-5.0416-3.0925h-8.7485z"/><path d="m99.0552 89.3861-.5223-.3516c.0513-.2116.1127-.4096.1127-.7783 0-1.041-3.9698-2.3654-8.3389-2.3654-4.1712 0-9.5745 1.8057-9.5745 7.0418 0 5.26 5.4033 7.0623 9.5745 7.0623 1.7988 0 8.6393-1.4029 8.6393-2.8843 0-.3141-.2048-.5189-.3004-.7749l.5564-.3652 5.304 8.0865-.621.358c-.153-.358-.351-.409-.713-.409-1.035 0-5.8235 2.785-13.4831 2.785-8.2434 0-16.985-4.635-16.985-13.8584 0-9.2093 8.7416-13.8413 16.985-13.8413 4.1097 0 7.0486.5188 9.1035 1.0889 2.0106.5666 3.0376.9796 3.5536.9796.307 0 .57-.1604.778-.413l.56.157z"/><path d="m158.265 93.8413c2.986.5597 5.246 3.1812 5.246 6.3287 0 3.403-2.646 6.188-5.997 6.417l-36.763.024c-3.553 0-6.434-2.878-6.434-6.434 0-3.1988 2.331-5.8476 5.39-6.3426-1.157-1.1708-1.871-2.7716-1.871-4.5398 0-3.5533 2.881-6.4342 6.445-6.4342.993 0 1.935.2287 2.782.6349-.028-.2287-.038-.4642-.038-.6963 0-3.5568 2.878-6.4377 6.434-6.4377 2.339 0 4.38 1.2493 5.516 3.113 1.117-1.8705 3.165-3.1198 5.506-3.1198 3.554 0 6.438 2.8843 6.438 6.4376 0 .2526-.014.5018-.048.751.85-.413 1.802-.6451 2.809-.6451 3.557 0 6.435 2.8808 6.435 6.4342 0 1.7545-.71 3.3519-1.85 4.5091z"/><g clip-rule="evenodd" fill-rule="evenodd"><path d="m142.133 83.1026c-.273.355-1.966.9387-2.059 1.833-.088 1.4302 2.059 14.8107 2.059 14.8107s3.27-7.3354 4.789-10.561c1.836-3.9391 2.727-5.2805 2.239-7.291-.495-2.8673-2.997-4.1609-5.24-3.9391-2.502.3994-4.249 2.3246-4.249 4.8778h1.925s.491.0478.536.2696z"/><path d="m156.588 85.516c-1.7-1.2493-5.772-1.9217-7.517 2.1948l-6.939 15.3502 14.053-9.5304c3.891-2.915 2.15-6.6697.403-8.0146z"/><path d="m138.243 83.3259c.583-3.625-2.956-5.5946-5.376-5.3693-2.055.396-5.278 2.5942-4.028 6.4411l6.847 15.4865z"/><path d="m121.459 105.116h14.722l-12.889-8.9905c-3.178-2.0173-6.53.2185-7.158 2.5464-.809 2.6521.215 6.2631 5.325 6.4441z"/><path d="m121.324 93.1728 14.364 9.8852s-5.95-13.3805-7.114-15.9712c-1.522-3.1813-5.417-3.0448-7.25-1.6623-2.147 1.6145-2.908 5.376 0 7.7483z"/><path d="m141.596 105.116s13.739.041 15.66-.041c3.803-.181 4.881-3.751 4.656-5.4611-.584-2.775-3.355-5.772-7.52-3.3109z"/></g></g></svg>