<svg fill="none" height="130" viewBox="0 0 480 130" width="480" xmlns="http://www.w3.org/2000/svg" xmlns:xlink="http://www.w3.org/1999/xlink"><clipPath id="a"><path d="m0 0h480v129.723h-480z"/></clipPath><g clip-path="url(#a)"><path d="m66.0014 121.361c-7.2206 1.268-14.5683 1.648-22.1691 2.661l-23.1834-67.9014v70.8154c-7.2206.76-13.80796 1.773-20.6489 2.787v-129.723h19.2563l26.3493 73.6036v-73.6036h20.3958zm39.9056-73.8551c7.854 0 19.889-.3801 27.11-.3801v20.2687c-8.995 0-19.509 0-27.11.3802v30.1509c11.908-.7598 23.816-1.7742 35.85-2.1544v19.5078l-56.1201 4.435v-119.714h56.1201v20.2692h-35.85zm111.226-27.2362h-21.029v93.2383c-6.841 0-13.681 0-20.268.252v-93.4903h-21.029v-20.2697h62.327zm32.938 25.8431h27.744v20.2688h-27.744v45.9864h-19.891v-112.368h56.629v20.2692h-36.738zm69.675 48.5189c11.529.2527 23.183 1.141 34.458 1.7733v20.016c-18.115-1.141-36.231-2.279-54.727-2.661v-113.76h20.269zm51.56 23.1833c6.461.38 13.302.76 19.889 1.519v-119.334h-19.889zm108.694-117.815-25.717 61.6945 25.717 68.0285c-7.602-1.014-15.203-2.407-22.804-3.674l-14.568-37.4974-14.82 34.4574c-7.349-1.268-14.443-1.648-21.789-2.661l26.096-59.4143-23.564-60.9337h21.789l13.301 34.0777 14.189-34.0777z" fill="#fff"/></g></svg>