<svg fill="none" height="206" viewBox="0 0 480 206" width="480" xmlns="http://www.w3.org/2000/svg" xmlns:xlink="http://www.w3.org/1999/xlink"><clipPath id="a"><path d="m0 0h480v205.451h-480z"/></clipPath><mask id="b" height="207" maskUnits="userSpaceOnUse" width="480" x="0" y="-1"><path d="m.00097656 205.451h479.99902344v-205.45331212h-479.99902344z" fill="#fff"/></mask><mask id="c" height="207" maskUnits="userSpaceOnUse" width="480" x="0" y="-1"><path d="m.00097656 205.451h479.99902344v-205.45331212h-479.99902344z" fill="#fff"/></mask><g clip-path="url(#a)" fill="#fff"><g mask="url(#b)"><path d="m350.357 152.552h6.383l.042-149.25515-6.342.02115s-.126 12.1177-.126 16.5279z"/><path d="m364.179 3.31163-.104 149.23337h-7.329l.041-149.23337z"/><path d="m465.177 3.30726s0 111.26374.042 116.21974l-7.119-9.639-83.06-106.58074h-10.856l-.127 149.23374 9.136.021s6.238-1.05 6.238-11.992v-93.3283l78.689 105.3413 21.885-.021-.022-149.25474z"/><path d="m465.23 119.683-90.283-116.3882s9.808.63004 14.554 6.9724c15.898 21.274 66.362 86.2723 68.567 89.2964v-96.24797h7.121z"/><path d="m78.9554 152.341c-32.8037 0-60.1268-29.968-60.1268-74.4692 0-44.5013 27.3231-74.23884 60.1268-74.23884 32.8456 0 60.1476 29.73754 60.1476 74.23884 0 44.5012-27.302 74.4692-60.1476 74.4692zm18.9001-150.26222c-.042-.021-.0836-.02083-.1256-.02083-.777-.18901-1.5533-.37821-2.3303-.52522-4.8302-1.00805-9.7871-1.53303485-14.8484-1.53303485-.147 0-.2934 0-.4614 0-.1471 0-.2945 0-.4205 0-43.9972 0-79.67808906 35.15590485-79.67808906 78.50210485 0 43.3672 35.68088906 78.5232 79.67808906 78.5232 43.9977 0 79.6777-35.156 79.6777-78.5232 0-37.1929-26.273-68.3166-61.4915-76.42302z"/><path d="m111.457 108.863c-1.281 6.426-3.991 11.76-8.107 16.003-6.4265 6.552-14.3432 9.849-23.7097 9.849-9.4085 0-17.3045-3.297-23.7518-9.849-4.0952-4.243-6.8046-9.577-8.0856-16.003-1.0501-5.523-1.5331-15.8139-1.5331-30.8716 0-15.0368.483-25.3275 1.5331-30.8717 1.281-6.4264 3.9904-11.7605 8.0856-16.0027 6.4473-6.5523 14.3433-9.8285 23.7518-9.8285 9.3665 0 17.2832 3.2762 23.7097 9.8285 4.116 4.2422 6.826 9.5763 8.107 16.0027 1.029 5.5442 1.554 15.8349 1.554 30.8717 0 15.0577-.525 25.3486-1.554 30.8716zm14.679-64.8094c-1.68-8.4844-5.481-15.7088-11.382-21.6311-1.155-1.134-2.332-2.2051-3.529-3.2131-8.841-7.3714-19.3621-11.06743-31.5847-11.06743-12.0756 0-22.4711 3.61223-31.2286 10.77353-1.344 1.0921-2.6246 2.268-3.9056 3.507-5.9013 5.9223-9.6818 13.1467-11.3619 21.6311-1.0291 5.7753-1.5548 17.095-1.5548 33.9378 0 16.8638.5257 28.1626 1.5548 33.9376 1.6801 8.505 5.4606 15.709 11.3619 21.631 1.092 1.071 2.205 2.079 3.3391 3.024 8.8624 7.498 19.4675 11.257 31.7951 11.257 12.6846 0 23.5427-4.011 32.5937-11.971.84-.735 1.68-1.512 2.52-2.31 5.901-5.922 9.702-13.126 11.382-21.631 1.008-5.775 1.533-17.0738 1.533-33.9376 0-16.8428-.525-28.1625-1.533-33.9378z"/><path d="m114.745 133.558c-.819.798-1.659 1.575-2.52 2.31-9.052 7.959-19.9092 11.971-32.5938 11.971-12.3277 0-22.9117-3.76-31.7952-11.257-1.134-.945-2.2475-1.953-3.3185-3.024-5.9223-5.922-9.7024-13.126-11.3824-21.631-1.0291-5.775-1.5331-17.074-1.5331-33.9378 0-16.8428.504-28.1624 1.5331-33.9376 1.68-8.4845 5.4601-15.7088 11.3824-21.6311 1.26-1.2391 2.5628-2.4153 3.9069-3.5073 8.7364-7.1614 19.1522-10.77358 31.2068-10.77358 12.2226 0 22.7448 3.71738 31.5858 11.06768 1.197 1.0081 2.373 2.0791 3.528 3.2132 5.922 5.9223 9.703 13.1466 11.384 21.6311 1.029 5.7752 1.533 17.0948 1.533 33.9376 0 16.8638-.504 28.1628-1.533 33.9378-1.681 8.505-5.462 15.709-11.384 21.631zm-35.7855-129.9127c-32.8247 0-60.1255 29.7376-60.1255 74.2388 0 44.5009 27.3008 74.4489 60.1255 74.4489 32.8455 0 60.1475-29.948 60.1475-74.4489 0-44.5012-27.302-74.2388-60.1475-74.2388z"/><path d="m207.369 97.4889-23.206-82.9961c-2.373-9.95447-10.017-11.17248-10.017-11.17248l29.086 108.95368z"/><path d="m279.321 152.552-34.043-114.7083-32.572 114.7083h6.51l26.125-92.3002 27.365 92.3002z"/><path d="m316.869 3.32228-29.36 109.24772-3.969-12.6219 23.207-83.0381c3.045-10.96252 10.122-13.58772 10.122-13.58772z"/><path d="m340.954 3.31165h-7.603l-39.901 149.25435 7.603.021z"/><path d="m149.749 3.32212s2.372 9.57648 4.304 16.10778c.399 1.3441.777 2.7301 1.092 4.1162l31.334 117.0809 3.214 11.929h8.336l-40.111-149.23388z"/><path d="m205.745 152.552h6.951l32.573-114.7083 34.043 114.7083 2.855.021h4.453l-41.372-136.4655z"/><path d="m316.869 3.32214-29.339 109.12186-4.221-14.9321-.02.0629-21.737-78.0609c-.126-.42-.232-.8189-.316-1.2389l-4.158-14.95286h-6.929-4.747-.125-4.894-6.699l-14.386 51.51566-11.929 42.737v-.0839l-4.347 13.8611-28.876-108.02986h-7.33-8.904l40.112 149.23386h7.728l39.503-136.444 41.373 136.465h6.824l39.882-149.25486z"/><path d="m379.425 47.2331-.02 10.8786s63.591 84.5293 67.371 89.4223c3.823 4.872 11.34 5.04 11.34 5.04z"/><path d="m458.058 3.31159s-6.909 3.73829-6.909 10.60561c0 6.8884-.063 76.7588-.063 76.7588l6.972 8.8836z"/><path d="m59.8217 193.837c0 4.663-.1468 6.343-1.5959 7.834-1.071 1.05-2.4149 1.575-3.9479 1.575-1.5331 0-2.8979-.525-3.948-1.575-1.4491-1.491-1.5958-3.171-1.5958-7.834 0-4.683.1467-6.342 1.5958-7.833 1.0501-1.05 2.4149-1.596 3.948-1.596 1.533 0 2.8769.546 3.9479 1.596 1.4491 1.491 1.5959 3.15 1.5959 7.833zm2.4367 0c0-5.229-.1467-7.224-2.3098-9.366-1.4071-1.407-3.2976-2.247-5.6707-2.247-2.3732 0-4.2837.84-5.7117 2.247-2.1422 2.142-2.2688 4.137-2.2688 9.366 0 5.23.1266 7.225 2.2688 9.346 1.428 1.428 3.3385 2.268 5.7117 2.268 2.3731 0 4.2636-.84 5.6707-2.268 2.1631-2.121 2.3098-4.116 2.3098-9.346z"/><path d="m79.8337 189.123c0 3.003-1.9532 4.536-4.8094 4.536h-5.8591v-9.052h5.8591c2.8562 0 4.8094 1.491 4.8094 4.516zm2.4354 0c0-4.054-2.9191-6.7-7.0563-6.7h-8.4843v22.828h2.4367v-9.387h6.0476c4.1372 0 7.0563-2.667 7.0563-6.741z"/><path d="m99.3524 188.795c0 2.793-1.8692 4.179-4.5363 4.179h-6.0898v-8.379h6.0898c2.6671 0 4.5363 1.407 4.5363 4.2zm2.8986 16.465-5.4186-10.375c2.9401-.609 4.9566-2.772 4.9566-6.111 0-3.948-2.7935-6.342-6.7627-6.342h-8.7367v22.828h2.4367v-10.144h5.4604l5.208 10.144z"/><path d="m118.725 197.966h-8.527l4.285-12.054zm5.125 7.288-8.359-22.828h-2.059l-8.399 22.828h2.583l1.848-5.167h9.954l1.849 5.167z"/><path d="m143.891 205.251v-22.828h-2.435v10.207h-10.838v-10.207h-2.435v22.828h2.435v-10.416h10.838v10.416z"/><path d="m188.459 182.426h-2.582l-4.474 18.417-5.019-18.417h-2.183l-5.042 18.417-4.451-18.417h-2.605l5.839 22.828h2.268l5.061-18.271 5.062 18.271h2.289z"/><path d="m192.286 205.262h2.436v-22.828h-2.436z"/><path d="m216.891 205.251v-22.828h-2.415v18.229l-12.139-18.229h-2.31v22.828h2.436v-18.312l12.118 18.312z"/><path d="m236.385 184.601v-2.184h-14.175v22.828h2.437v-10.059h10.017v-2.184h-10.017v-8.401z"/><path d="m253.903 188.795c0 2.793-1.89 4.179-4.557 4.179h-6.091v-8.379h6.091c2.667 0 4.557 1.407 4.557 4.2zm2.856 16.465-5.397-10.375c2.962-.609 4.956-2.772 4.956-6.111 0-3.948-2.772-6.342-6.741-6.342h-8.779v22.828h2.457v-10.144h5.482l5.187 10.144z"/><path d="m275.366 205.251v-2.184h-11.719v-8.232h9.996v-2.205h-9.996v-8.023h11.719v-2.184h-14.177v22.828z"/><path d="m294.016 182.426h-2.645l-5.335 10.92-5.376-10.92h-2.646l6.824 13.398v9.43h2.437v-9.43z"/><path d="m325.621 205.251v-22.828h-2.456v18.229l-12.098-18.229h-2.31v22.828h2.437v-18.312l12.117 18.312z"/><path d="m344.468 205.251v-2.184h-11.739v-8.232h9.997v-2.205h-9.997v-8.023h11.739v-2.184h-14.176v22.828z"/><path d="m362.842 184.601v-2.184h-15.646v2.184h6.594v20.644h2.437v-20.644z"/><path d="m391.296 182.426h-2.584l-4.451 18.417-5.02-18.417h-2.205l-5.04 18.417-4.453-18.417h-2.603l5.859 22.828h2.268l5.061-18.271 5.083 18.271h2.267z"/><path d="m407.465 193.837c0 4.663-.169 6.343-1.618 7.834-1.029 1.05-2.394 1.575-3.927 1.575s-2.877-.525-3.948-1.575c-1.428-1.491-1.596-3.171-1.596-7.834 0-4.683.168-6.342 1.596-7.833 1.071-1.05 2.415-1.596 3.948-1.596s2.898.546 3.927 1.596c1.449 1.491 1.618 3.15 1.618 7.833zm2.435 0c0-5.229-.146-7.224-2.309-9.366-1.407-1.407-3.298-2.247-5.671-2.247s-4.305.84-5.734 2.247c-2.121 2.142-2.247 4.137-2.247 9.366 0 5.23.126 7.225 2.247 9.346 1.429 1.428 3.361 2.268 5.734 2.268s4.264-.84 5.671-2.268c2.163-2.121 2.309-4.116 2.309-9.346z"/><path d="m427.432 188.795c0 2.793-1.889 4.179-4.535 4.179h-6.111v-8.379h6.111c2.646 0 4.535 1.407 4.535 4.2zm2.898 16.465-5.438-10.375c2.961-.609 4.977-2.772 4.977-6.111 0-3.948-2.794-6.342-6.763-6.342h-8.735v22.828h2.415v-10.144h5.501l5.209 10.144z"/><path d="m451.198 205.251-8.213-14.007 7.184-8.821h-3.004l-10.605 13.105v-13.105h-2.457v22.828h2.457v-6.384l4.789-5.775 6.971 12.159z"/></g><g mask="url(#c)"><path d="m350.357 152.552h6.383l.042-149.25515-6.342.02115s-.126 12.1177-.126 16.5279z"/><path d="m364.179 3.31163-.104 149.23337h-7.329l.041-149.23337z"/><path d="m465.177 3.30726s0 111.26374.042 116.21974l-7.119-9.639-83.06-106.58074h-10.856l-.127 149.23374 9.136.021s6.238-1.05 6.238-11.992v-93.3283l78.689 105.3413 21.885-.021-.022-149.25474z"/><path d="m465.23 119.683-90.283-116.3882s9.808.63004 14.554 6.9724c15.898 21.274 66.362 86.2723 68.567 89.2964v-96.24797h7.121z"/><path d="m78.9554 152.341c-32.8037 0-60.1268-29.968-60.1268-74.4692 0-44.5013 27.3231-74.23884 60.1268-74.23884 32.8456 0 60.1476 29.73754 60.1476 74.23884 0 44.5012-27.302 74.4692-60.1476 74.4692zm18.9001-150.26222c-.042-.021-.0836-.02083-.1256-.02083-.777-.18901-1.5533-.37821-2.3303-.52522-4.8302-1.00805-9.7871-1.53303485-14.8484-1.53303485-.147 0-.2934 0-.4614 0-.1471 0-.2945 0-.4205 0-43.9972 0-79.67808906 35.15590485-79.67808906 78.50210485 0 43.3672 35.68088906 78.5232 79.67808906 78.5232 43.9977 0 79.6777-35.156 79.6777-78.5232 0-37.1929-26.273-68.3166-61.4915-76.42302z"/><path d="m111.457 108.863c-1.281 6.426-3.991 11.76-8.107 16.003-6.4265 6.552-14.3432 9.849-23.7097 9.849-9.4085 0-17.3045-3.297-23.7518-9.849-4.0952-4.243-6.8046-9.577-8.0856-16.003-1.0501-5.523-1.5331-15.8139-1.5331-30.8716 0-15.0368.483-25.3275 1.5331-30.8717 1.281-6.4264 3.9904-11.7605 8.0856-16.0027 6.4473-6.5523 14.3433-9.8285 23.7518-9.8285 9.3665 0 17.2832 3.2762 23.7097 9.8285 4.116 4.2422 6.826 9.5763 8.107 16.0027 1.029 5.5442 1.554 15.8349 1.554 30.8717 0 15.0577-.525 25.3486-1.554 30.8716zm14.679-64.8094c-1.68-8.4844-5.481-15.7088-11.382-21.6311-1.155-1.134-2.332-2.2051-3.529-3.2131-8.841-7.3714-19.3621-11.06743-31.5847-11.06743-12.0756 0-22.4711 3.61223-31.2286 10.77353-1.344 1.0921-2.6246 2.268-3.9056 3.507-5.9013 5.9223-9.6818 13.1467-11.3619 21.6311-1.0291 5.7753-1.5548 17.095-1.5548 33.9378 0 16.8638.5257 28.1626 1.5548 33.9376 1.6801 8.505 5.4606 15.709 11.3619 21.631 1.092 1.071 2.205 2.079 3.3391 3.024 8.8624 7.498 19.4675 11.257 31.7951 11.257 12.6846 0 23.5427-4.011 32.5937-11.971.84-.735 1.68-1.512 2.52-2.31 5.901-5.922 9.702-13.126 11.382-21.631 1.008-5.775 1.533-17.0738 1.533-33.9376 0-16.8428-.525-28.1625-1.533-33.9378z"/><path d="m114.745 133.558c-.819.798-1.659 1.575-2.52 2.31-9.052 7.959-19.9092 11.971-32.5938 11.971-12.3277 0-22.9117-3.76-31.7952-11.257-1.134-.945-2.2475-1.953-3.3185-3.024-5.9223-5.922-9.7024-13.126-11.3824-21.631-1.0291-5.775-1.5331-17.074-1.5331-33.9378 0-16.8428.504-28.1624 1.5331-33.9376 1.68-8.4845 5.4601-15.7088 11.3824-21.6311 1.26-1.2391 2.5628-2.4153 3.9069-3.5073 8.7364-7.1614 19.1522-10.77358 31.2068-10.77358 12.2226 0 22.7448 3.71738 31.5858 11.06768 1.197 1.0081 2.373 2.0791 3.528 3.2132 5.922 5.9223 9.703 13.1466 11.384 21.6311 1.029 5.7752 1.533 17.0948 1.533 33.9376 0 16.8638-.504 28.1628-1.533 33.9378-1.681 8.505-5.462 15.709-11.384 21.631zm-35.7855-129.9127c-32.8247 0-60.1255 29.7376-60.1255 74.2388 0 44.5009 27.3008 74.4489 60.1255 74.4489 32.8455 0 60.1475-29.948 60.1475-74.4489 0-44.5012-27.302-74.2388-60.1475-74.2388z"/><path d="m207.369 97.4886-23.206-82.996c-2.373-9.95452-10.017-11.17253-10.017-11.17253l29.086 108.95293z"/><path d="m279.321 152.552-34.043-114.7083-32.572 114.7083h6.51l26.125-92.3002 27.365 92.3002z"/><path d="m316.869 3.32228-29.36 109.24772-3.969-12.6219 23.207-83.0381c3.045-10.96252 10.122-13.58772 10.122-13.58772z"/><path d="m340.954 3.31165h-7.603l-39.901 149.25435 7.603.021z"/><path d="m149.749 3.32212s2.372 9.57648 4.304 16.10778c.399 1.3441.777 2.7301 1.092 4.1162l31.334 117.0809 3.214 11.929h8.336l-40.111-149.23388z"/><path d="m205.745 152.552h6.951l32.573-114.7083 34.043 114.7083 2.855.021h4.453l-41.372-136.4655z"/><path d="m316.869 3.32214-29.339 109.12186-4.221-14.9321-.02.0629-21.737-78.0609c-.126-.42-.232-.8189-.316-1.2389l-4.158-14.95286h-6.929-4.747-.125-4.894-6.699l-14.386 51.51566-11.929 42.737v-.0839l-4.347 13.8611-28.876-108.02986h-7.33-8.904l40.112 149.23386h7.728l39.503-136.444 41.373 136.465h6.824l39.882-149.25486z"/><path d="m379.425 47.2331-.02 10.8786s63.591 84.5293 67.371 89.4223c3.823 4.872 11.34 5.04 11.34 5.04z"/><path d="m458.058 3.31159s-6.909 3.73829-6.909 10.60561c0 6.8884-.063 76.7588-.063 76.7588l6.972 8.8836z"/></g></g></svg>