<svg fill="none" height="384" viewBox="0 0 480 384" width="480" xmlns="http://www.w3.org/2000/svg" xmlns:xlink="http://www.w3.org/1999/xlink"><clipPath id="a"><path d="m0 0h480v384h-480z"/></clipPath><g clip-path="url(#a)"><path d="m362.667 170.667v-53.333h10.667v-117.334h-373.334v117.334h10.6666v96h96.0004v53.333h-10.6665v117.333h373.3325v-96h10.667v-117.333z" fill="#fff"/><g fill="#000"><path d="m424.163 341.307h-17.785l-30.176-76.013v76.013h-20.119v-127.946h17.964l29.997 76.012v-76.012h20.119z"/><path d="m298.411 120.694v50.135h-20.117v-50.135l-24.79-77.8128h22.275l12.572 50.6751 12.754-50.6751h22.094z"/><path d="m315.001 231.511h-33.591v36.299h28.921v18.152h-28.921v37.195h33.591v18.15h-53.709v-127.946h53.709z"/><path d="m200.755 170.829-14.731-46.004-14.729 46.004h-22.095l25.328-66.309-23.352-61.6388h22.094l12.754 42.769 12.754-42.769h22.094l-23.89 61.6388 25.866 66.309z"/><path d="m176.308 319.744c1.796 2.876 4.671 4.852 9.521 4.852 8.801 0 12.573-7.549 12.573-16.353v-19.946h-12.573v-16.535h32.692v35.401c0 23.363-13.472 35.583-32.692 35.583-11.856 0-19.581-4.672-24.789-10.961-8.442-10.066-9.342-24.082-9.342-54.449 0-30.371.9-44.387 9.342-54.45 5.208-6.292 12.932-10.965 24.789-10.965 9.879 0 17.425 3.234 22.813 8.625 6.287 6.47 9.52 15.815 9.879 26.776h-20.119c-.178-7.008-1.615-17.25-12.573-17.25-4.85 0-7.725 1.978-9.521 4.852-3.951 6.109-4.49 19.048-4.49 42.411 0 23.36.538 36.3 4.49 42.409z"/><path d="m84.1221 59.5944c-4.8494 0-7.7242 1.9776-9.5213 4.8504-3.7709 6.1099-4.4894 19.0493-4.4894 42.4112 0 23.36.7181 36.299 4.4894 42.41 1.7971 2.875 4.6719 4.85 9.5213 4.85 4.8499 0 7.9046-1.975 9.6998-4.85 3.7714-6.11 4.3104-19.05 4.3104-42.41 0-23.3619-.539-36.3013-4.3104-42.4112-1.7952-2.8728-4.8504-4.8504-9.6998-4.8504zm24.7889 101.7116c-5.21 6.289-12.9339 10.961-24.7894 10.961-11.856 0-19.5801-4.673-24.7881-10.961-8.4432-10.245-9.3418-24.082-9.3418-54.45 0-30.3704.8986-44.2073 9.3418-54.4491 5.208-6.2923 12.9316-10.9646 24.7881-10.9646 11.8551 0 19.5794 4.6723 24.7894 10.9646 8.621 10.0632 9.34 24.0787 9.34 54.4491 0 30.368-.719 44.384-9.34 54.45z"/></g></g></svg>