<svg fill="none" height="299" viewBox="0 0 480 299" width="480" xmlns="http://www.w3.org/2000/svg"><path d="m213.833 153.569c-1.18-.489-3.115-2.66.104-8.706l7.477-15.628c.227-.472-.319-1.063-.659-.662l-6.538 6.574c-3.094 3.229-8.342 12.304-9.358 13.984l-7.943 13.13c.59-.018 1.084.445 1.102 1.035.009.195-.041.387-.135.556l-7.26 12.194c-1.773 3.024 1.412 5.138 1.843 4.442 11.411-18.379 18.048-16.912 18.048-16.912l3.81-8.821c.2-.442.008-.963-.438-1.163-.016-.009-.034-.015-.053-.023zm25.943-153.569c-65.242 0-118.13 52.8625-118.13 118.072-.034 25.244 8.064 49.827 23.095 70.108 4.956-2.139 7.71-5.336 9.677-7.785l21.995-28.116c.463-.593 1.068-1.059 1.759-1.356l3.311-1.424 36.165-45.852 5.244-4.1035 10.777-14.9919c.278-.3878.617-.7291 1.005-1.0099l4.701-3.4162c1.162-.8438 2.73-.8573 3.906-.0326l5.705 4.0027c3.027 2.1231 5.48 4.9623 7.142 8.2642l22.853 40.1212c.373.766 1.007 1.373 1.788 1.713 4.481 2.23 7.219 2.624 13.085 8.993 2.737 2.969 14.73 16.376 31.538 37.212 2.443 3.343 5.713 5.992 9.489 7.69 14.986-20.265 23.057-44.813 23.021-70.017 0-65.21-52.886-118.072-118.126-118.072zm-86.272 124.58-7.66-2.487-4.731 6.509v-8.044l-7.66-2.487 7.66-2.486v-8.047l4.731 6.511 7.66-2.487-4.733 6.51zm-1.816 26.327-2.488 7.653-2.488-7.653h-8.05l6.512-4.73-2.487-7.652 6.512 4.73 6.514-4.73-2.488 7.652 6.513 4.73zm1.537-60.9453 2.488 7.6522-6.513-4.73-6.513 4.73 2.488-7.6522-6.512-4.7299h8.05l2.487-7.6522 2.489 7.6522h8.05zm12.927-17.3103-4.729-6.5102-7.659 2.4864 4.732-6.5093-4.732-6.5098 7.659 2.4864 4.732-6.5097v8.0467l7.659 2.4821-7.659 2.4873v8.0463zm20.133-28.1693-2.488 7.6527-2.488-7.6522h-8.05l6.513-4.7299-2.488-7.6527 6.513 4.729 6.512-4.7299-2.487 7.6589 6.513 4.7299h-8.051zm25.369-12.9206-4.732 6.5102v-8.0443l-7.659-2.4864 7.659-2.4874v-8.0462l4.732 6.5102 7.656-2.4864-4.732 6.5098 4.733 6.5093zm32.147-7.3757 2.488 7.6522-6.513-4.73-6.513 4.73 2.485-7.6489-6.512-4.7299h8.05l2.489-7.6522 2.487 7.6522h8.051zm28.826 5.8416v8.0462l-4.73-6.5102-7.659 2.4869 4.732-6.5093-4.732-6.5098 7.66 2.4864 4.73-6.5102v8.0462l7.659 2.4874zm53.418 81.5346 7.659 2.487 4.73-6.511v8.047l7.66 2.486-7.66 2.487v8.046l-4.73-6.509-7.659 2.486 4.737-6.51zm-30.291-59.4253-2.489-7.6527h-8.05l6.511-4.7299-2.482-7.6531 6.51 4.7299 6.51-4.7289-2.482 7.6521 6.511 4.7299h-8.05zm17.646 20.5167v-8.0458l-7.66-2.4874 7.66-2.4821v-8.05l4.729 6.5097 7.66-2.4864-4.73 6.5098 4.73 6.5093-7.66-2.4864zm14.46 12.5808 2.49-7.6522 2.49 7.6522h8.049l-6.51 4.7299 2.489 7.6522-6.517-4.73-6.51 4.73 2.489-7.6522-6.518-4.7299zm4.979 65.6728-2.489 7.653-2.49-7.653h-8.05l6.517-4.73-2.489-7.652 6.511 4.73 6.517-4.73-2.49 7.652 6.511 4.73zm-50.276 35.401c.568-.824 1.49-3.086-.241-7.277l-5.227-14.051c-.71-1.794.844-2.882 1.887-1.703 0 0 9.879 11.387 12.432 16.141l4.872 8.085c4.191.27 15.758.586 26.893.586-1.121-1.113-2.157-2.31-3.099-3.578-19-23.546-31.05-36.643-31.171-36.773-3.85-4.184-5.63-4.988-8.567-6.326-.425-.192-.887-.401-1.361-.627v3.575c.029.241-.144.46-.386.489-.195.023-.383-.086-.458-.268l-27.934-49.0484-.078-.1551c-1.165-2.3102-2.882-4.2974-4.999-5.7849l-2.724-1.9147-13.327 30.7301c1.592-.001 2.884 1.29 2.885 2.882.001.394-.08.784-.237 1.146l-12.312 28.47h11.302c4.368 0 8.694.85 12.737 2.506l2.979 1.22s-8.988 18.485-8.988 28.217c.012 1.771.26 3.531.734 5.236h20.718l-.96-5.834c8.128 1.814 16.35 3.17 24.63 4.06zm-159.863 29.951c0-19.014-20.169-28.17-44.1292-28.17-25.6311 0-49.1483 11.355-57.7801 28.962-2.3822 4.691-3.6202 9.881-3.6135 15.143-.1089 4.549 1.1502 9.027 3.6135 12.853 3.6984 5.461 10.3037 8.893 19.993 8.893 11.8925 0 21.3173-6.516 21.3173-17.872 0 0 .1747-3.167-3.5237-3.167-2.9947 0-3.7886 2.112-3.6999 3.167.4426 8.892-4.8441 16.024-14.2694 16.024-10.5668 0-14.9746-8.98-14.9746-18.575 0-19.633 14.798-32.664 30.2122-38.297 7.2034-2.721 14.8531-4.066 22.5529-3.965 17.4398 0 31.7095 6.692 31.7095 24.654 0 14.964-12.5954 27.73-27.6593 28.875l.6163-2.024c3.084-11.006 6.8712-23.066 13.0354-31.959.3547-.531.9696-1.409 1.6747-2.288l-.8798-1.058c-1.3181.8-2.5839 1.682-3.7906 2.641-28.8879 22.539-29.7653 85.925-68.2604 85.925-1.3258 0-2.6491-.089-3.9629-.264-8.0141-1.32-12.2448-6.692-12.2448-14.172 0-1.497.52946-3.523.52946-4.666.06111-2.126-1.61333-3.899-3.73971-3.96-.01674-.001-.03265-.001-.04855-.001h-.43923c-3.43442 0-4.8441667 2.725-4.93248 6.602-.263015 11.181 8.01407 17.694 20.78831 18.928 1.4079.088 2.8176.175 4.3153.175 30.0341 0 48.443-22.714 56.2834-50.27 3.971-.466 7.8917-1.29 11.7134-2.463 13.9205-3.878 29.5935-13.206 29.5935-29.671zm286.095 6.602h-10.574l-2.376 5.548-4.142 9.331h-4.929l-1.504 3.17h5.113l-6.169 13.647c-4.397 9.595-11.27 19.016-15.234 19.016-.88 0-1.411-.354-1.411-1.231s.262-1.675 1.234-4.139c1.234-2.908 3.262-7.132 4.758-10.213 2.199-4.489 5.724-11.444 5.724-14.878s-2.199-6.164-6.518-6.164c-4.844 0-9.248 2.909-13.305 7.13l2.646-6.338h-9.95l-8.107 18.489c-3.255 6.515-9.866 17.343-14.007 17.343-.88 0-1.235-.529-1.235-1.408.086-.791.294-1.564.618-2.29.354-.792 5.198-12.149 5.198-12.149l8.809-20.161h-10.745l-8.546 19.631c-2.638 6.076-9.333 16.376-13.652 16.376-.753.074-1.423-.476-1.497-1.23 0 0 0 0 0-.001v-.355c0-1.055.795-2.993 1.412-4.402l4.49-9.859 9.247-20.16h-10.652l-2.121 4.577c-1.581 3.081-4.226 6.691-8.453 6.691-2.028 0-2.993-.791-3.432-1.584-.617-6.779-4.936-10.39-11.277-10.39-8.808 0-15.063 5.194-19.205 11.534-2.714 4.37-4.845 9.075-6.339 13.996-3.789 6.253-7.75 11.096-10.922 11.096-.793 0-1.323-.443-1.323-1.498 0-1.056 1.058-3.432 1.41-4.316l6.959-14.789c1.938-4.576 3.262-7.57 3.262-10.564 0-3.17-2.198-5.461-5.816-5.461-5.021 0-10.483 2.908-14.798 7.66.146-.754.205-1.523.176-2.29 0-3.522-1.761-5.372-5.374-5.372-4.579 0-9.335 2.732-13.65 7.66l2.819-6.87h-9.691l-8.19 18.493c-3.875 8.717-10.129 17.347-13.653 17.347-.792 0-1.321-.444-1.321-1.499 0-1.672 1.85-5.81 2.554-7.483l10.835-24.561c.792-1.848-4.406-2.995-11.011-2.995-6.782 0-13.741 3.347-18.849 7.66-3.611 2.991-6.253 4.49-7.577 4.49-.432.092-.857-.183-.95-.614-.013-.059-.019-.118-.018-.178 0-1.497 3.611-5.725 3.611-8.981 0-1.496-.791-2.466-2.82-2.466-3.873 0-8.455 3.698-11.802 7.571l2.819-6.78h-9.511l-8.19 18.489c-3.877 8.717-10.307 17.786-13.83 17.786-.794 0-1.32-.439-1.32-1.497 0-1.673 1.762-5.721 2.73-7.836l10.835-24.649c.792-1.848-4.405-2.995-11.013-2.995-9.777 0-19.29 6.603-24.31 13.383-5.5485 7.304-9.3347 15.053-9.4241 21.393-.0863 5.106 2.5527 8.275 7.8391 8.275 5.902 0 10.66-4.665 13.389-8.188-.162.697-.281 1.402-.355 2.114 0 3.519 1.41 6.073 5.725 6.073 3.786 0 8.808-3.169 12.86-8.188l-3.263 7.485h10.304l10.13-22.979c3.355-7.482 7.143-11.354 8.196-11.354.242-.047.477.112.524.354.008.028.008.057.008.086 0 .793-1.584 2.908-1.584 4.841 0 1.934 1.053 3.433 3.876 3.433 2.198 0 4.666-1.057 6.869-2.467-5.197 7.046-8.723 14.44-8.723 20.516-.087 5.107 2.552 8.275 7.84 8.275 5.548 0 10.744-5.282 13.563-8.804-.106.818-.165 1.641-.176 2.465 0 3.435 1.939 6.339 5.902 6.339 4.403 0 7.927-2.731 12.331-8.098l-3.262 7.394h10.568l9.688-21.922c4.228-9.508 9.952-14.617 12.771-14.617.704-.072 1.335.44 1.409 1.145v.004.262c-.116 1.069-.414 2.111-.88 3.081l-13.904 32.135h10.834l9.866-22.364c4.225-9.594 8.896-14.263 12.419-14.263 1.056 0 1.498.532 1.498 1.673-.094 1.226-.423 2.423-.969 3.526l-9.514 20.247c-.876 1.949-1.412 4.032-1.586 6.161 0 3.082 1.673 5.816 6.432 5.816 6.17 0 10.834-4.666 16.117-11.621v1.496c.442 5.546 3.524 10.389 11.714 10.389 9.689 0 17.532-6.692 22.284-17.342 1.797-3.744 2.96-7.763 3.439-11.89 1.061.539 2.247.783 3.433.71 1.6.018 3.178-.377 4.581-1.146l-1.673 3.608c-1.944 4.051-4.057 8.541-5.724 12.329-1.055 2.24-1.683 4.657-1.85 7.128 0 3.784 2.113 6.516 6.425 6.516 4.313 0 10.22-4.05 14.447-9.772h.092c-.283 1.183-.432 2.393-.447 3.608 0 3.171.972 6.165 5.376 6.165 5.113 0 9.071-3.699 12.95-8.366l-3.262 7.396h10.659l8.546-19.368c4.844-10.917 9.688-17.518 14.177-17.518.771-.027 1.43.551 1.503 1.32v.26c0 1.85-2.645 6.869-5.021 11.886-2.205 4.579-3.879 8.098-5.021 10.831-1.06 2.301-1.687 4.776-1.851 7.305 0 3.343 1.851 5.897 5.993 5.897 6.163 0 12.418-5.986 15.759-10.477-.754 2.153-1.168 4.409-1.228 6.689 0 6.166 3.695 9.247 8.893 9.247 3.454-.027 6.812-1.135 9.603-3.168 4.05-2.819 7.312-7.044 10.043-10.918l-1.851-1.762c-2.553 3.61-5.375 7.045-8.284 9.158-1.532 1.295-3.455 2.039-5.461 2.113-2.198 0-3.61-1.146-3.61-3.961 0-2.814 1.32-6.604 3.348-11.711.085-.086 2.993-6.603 5.723-12.851 2.291-5.287 4.582-10.39 5.022-11.447h6.957l1.411-3.17h-6.872zm-300.449 50.799c-1.497 0-2.554-.528-2.554-2.465.087-5.195 4.402-14.438 9.779-21.834 3.786-5.107 8.718-8.89 14.003-8.89l-6.695 14.963c-5.021 11.271-10.482 18.226-14.533 18.226zm65.885 0c-1.496 0-2.553-.528-2.64-2.465.087-5.195 4.403-14.438 9.777-21.834 3.785-5.107 8.719-8.89 14.004-8.89l-6.696 14.964c-5.107 11.536-10.304 18.226-14.446 18.226zm116.97-29.139c-.262 5.721-5.283 19.541-11.184 27.82-2.376 3.345-4.405 4.312-6.163 4.312-2.468 0-3.177-2.026-2.823-5.018.525-5.193 4.844-17.343 10.837-25.707 2.73-3.786 4.581-5.37 6.694-5.37 2.114 0 2.731 1.762 2.639 3.963zm164.395-6.781 9.702-22.392h-11.482l-9.702 22.392h-24.404l-4.071 9.39h24.411l-9.702 22.392h11.482l9.703-22.392h24.403l4.064-9.39z" fill="#fff"/></svg>