<svg fill="none" height="74" viewBox="0 0 480 74" width="480" xmlns="http://www.w3.org/2000/svg" xmlns:xlink="http://www.w3.org/1999/xlink"><clipPath id="a"><path d="m0 0h480v73.5173h-480z"/></clipPath><mask id="b" height="148" maskUnits="userSpaceOnUse" width="554" x="-37" y="-37"><path d="m-36.7611-36.7686h553.5541v147.0456h-553.5541z" fill="#fff"/></mask><g clip-path="url(#a)"><g mask="url(#b)"><path d="m455.727 32.2895v10.0078h7.033v9.9294c.022.8873-.026 1.8442-.179 2.6098-.279 1.8522-2.039 5.0057-7.031 5.0057-4.963 0-6.691-3.1535-6.99-5.0057-.126-.7656-.18-1.7225-.18-2.6098v-31.3618c0-1.1093.075-2.3235.31-3.2425.341-1.6715 1.822-4.9678 6.823-4.9678 5.249 0 6.559 3.4751 6.859 4.9678.198.9886.209 2.6469.209 2.6469v3.8082h17.282v-2.2513s.078-2.3491-.132-4.5413c-1.299-12.87232-11.905-16.944867-24.066-16.944867-12.183 0-22.574 4.110437-24.088 16.944867-.136 1.1736-.345 3.2848-.345 4.5413v28.8497c0 1.2565.04 2.2292.273 4.5254 1.128 12.5181 11.977 16.9555 24.112 16.9555 12.209 0 22.984-4.4374 24.131-16.9555.204-2.2962.225-3.2689.252-4.5254v-18.3864zm-119.159-30.10352h-17.354v50.76412c.027.8846 0 1.8785-.153 2.6072-.362 1.7041-1.806 4.9836-6.594 4.9836-4.726 0-6.208-3.2795-6.543-4.9836-.174-.7287-.196-1.7226-.174-2.6072v-50.76412h-17.349v49.18862c-.022 1.268.077 3.8584.152 4.5369 1.198 12.8177 11.3 16.9792 23.914 16.9792 12.639 0 22.735-4.1615 23.954-16.9792.096-.6785.222-3.2689.147-4.5369zm-159.456 0-8.657 53.63922-8.652-53.63922h-27.994l-1.485 68.62002h17.15l.465-63.52361 11.8 63.52361h17.4l11.811-63.52361.466 63.52361h17.193l-1.535-68.62002zm-103.6476 0-12.711 68.62002h18.5361l9.5787-63.52361 9.3487 63.52361h18.4071l-12.658-68.62002zm323.7546 55.24722-16.159-55.24722h-25.465v67.90452h16.846l-.978-57.0147 17.354 57.0147h24.422v-67.90452h-16.955zm-155.815-37.3886c-.305-1.3552-.217-2.795-.059-3.5474.49-2.1967 1.966-4.5924 6.219-4.5924 3.963 0 6.286 2.4706 6.286 6.1784v4.1959h16.918v-4.7827c0-14.78527-13.256-17.107905-22.853-17.107905-12.087 0-21.958 3.984435-23.761 15.109505-.477 3.0275-.595 5.7149.164 9.1443 2.939 13.8715 27.088 17.8955 30.593 26.668.619 1.6618.442 3.7809.126 5.0294-.525 2.283-2.061 4.5792-6.613 4.5792-4.27 0-6.841-2.4548-6.841-6.1546l-.005-6.5855h-18.209v5.2347c0 15.1685 11.881 19.7451 24.677 19.7451 12.256 0 22.378-4.188 24.002-15.5404.775-5.8656.191-9.6861-.121-11.125-2.837-14.2275-28.575-18.5071-30.523-26.4486zm-223.1648-.1683c-.3321-1.3834-.2546-2.8434-.0696-3.6047.4688-2.1861 1.9535-4.6241 6.2807-4.6241 4.0135 0 6.3766 2.4944 6.3766 6.2321v4.2471h17.1158v-4.8207c0-14.92705-13.4582-17.30608181-23.1603-17.30608181-12.1885 0-22.14782 4.04612181-23.969978 15.25138181-.498715 3.076-.584211 5.7819.136546 9.2491 2.971142 14.0292 27.358832 18.0859 30.907132 26.9632.6643 1.6504.4635 3.7694.1339 5.0665-.563 2.3067-2.1111 4.6355-6.7018 4.6355-4.2866 0-6.8507-2.4971-6.8507-6.248l-.0238-6.6031h-18.41366948v5.2471c0 15.3421 12.04936948 19.9556 24.94546948 19.9556 12.3982 0 22.5796-4.225 24.2405-15.7086.8256-5.9194.2062-9.7717-.0722-11.2326-2.8963-14.4019-28.9211-18.6674-30.8746-26.6997z" fill="#fff"/></g></g></svg>