<svg fill="none" height="638" viewBox="0 0 480 638" width="480" xmlns="http://www.w3.org/2000/svg"><g fill="#fff"><path d="m241.193 401.033c-79.154 0-143.3909-64.134-143.3909-143.302 0-79.311 64.2369-143.399 143.3909-143.399 79.224 0 143.38 64.088 143.38 143.399 0 79.168-64.156 143.302-143.38 143.302zm0-358.3008c-118.662 0-214.8876 96.2498-214.8876 214.9988 0 118.658 96.2256 214.878 214.8876 214.878 118.714 0 215.09-96.22 215.09-214.878 0-118.749-96.376-214.9988-215.09-214.9988z"/><path d="m241.193 184.057c-40.674 0-73.631 32.876-73.631 73.674 0 40.663 32.956 73.638 73.631 73.638 40.714 0 73.741-32.976 73.741-73.638 0-40.797-33.027-73.674-73.741-73.674z"/><path d="m46.8366 528.684h-23.7011v-14.626h64.7933v14.626h-23.7011v64.462h-17.3911z"/><path d="m80.3977 593.146h17.6033l6.208-17.616h29.574l5.984 17.616h18.051l-29.575-79.088h-17.829zm38.6543-59.601h.218l9.964 29.026h-20.476z"/><path d="m164.677 593.147h17.398v-30.903h17.379c8.759 0 11.965 3.653 13.18 11.956.897 6.316.671 13.96 2.778 18.948h17.38c-3.098-4.429-2.983-13.746-3.32-18.728-.557-7.987-2.983-16.284-11.519-18.498v-.219c8.761-3.542 12.524-10.512 12.524-19.829 0-11.953-8.979-21.812-23.153-21.812h-42.646zm17.398-65.576h19.055c7.741 0 11.953 3.325 11.953 10.959 0 7.971-4.212 11.3-11.953 11.3h-19.055z"/><path d="m299.582 584.169c-6.098 7.875-14.059 10.877-21.705 10.877-24.474 0-38.877-18.306-38.877-41.125 0-23.47 14.402-41.738 38.877-41.738 16.166 0 31.457 9.968 33.345 27.897h-16.623c-1.998-8.759-8.531-13.283-16.722-13.283-15.619 0-21.498 13.283-21.498 27.124 0 13.188 5.879 26.473 21.498 26.473 11.301 0 17.822-6.087 18.824-17.06h-17.492v-12.944h33.221v42.756h-11.084z"/><path d="m324.285 514.058h59.127v14.626h-41.739v16.939h38.316v13.526h-38.316v19.371h42.636v14.626h-60.024z"/><path d="m415.764 528.684h-23.702v-14.626h64.803v14.626h-23.715v64.462h-17.386z"/></g></svg>