<svg fill="none" height="215" viewBox="0 0 854 215" width="854" xmlns="http://www.w3.org/2000/svg"><g fill="#000"><path d="m122.994 88.684h-16.192v41.472h-4.48v-41.472h-16.1916v-3.968h36.8636z"/><path d="m191.241 84.716v45.44h-4.416v-21.248h-26.944v21.248h-4.48v-45.44h4.48v20.224h26.944v-20.224z"/><path d="m258.779 126.188v3.968h-30.528v-45.44h29.952v3.968h-25.472v16.384h22.208v3.776h-22.208v17.344z"/><path d="m365.144 88.684h-16.192v41.472h-4.48v-41.472h-16.192v-3.968h36.864z"/><path d="m407.256 84.716h3.776l18.88 45.44h-4.736l-5.888-14.208h-20.416l-5.824 14.208h-4.8zm11.008 27.712-9.152-22.464-9.28 22.464z"/><path d="m462.026 130.156v-45.44h4.48v41.472h26.24v3.968z"/><path d="m555.466 126.188v3.968h-30.528v-45.44h29.952v3.968h-25.472v16.384h22.208v3.776h-22.208v17.344z"/><path d="m594.018 92.972v37.184h-4.48v-45.44h3.712l29.824 37.888v-37.824h4.48v45.376h-4.16z"/><path d="m661.568 107.116c0-2.773.469-5.483 1.408-8.128.981-2.688 2.389-5.12 4.224-7.296 1.835-2.2187 4.096-3.968 6.784-5.248 2.688-1.3227 5.739-1.984 9.152-1.984 4.053 0 7.509.9386 10.368 2.816 2.901 1.8346 5.035 4.2026 6.4 7.104l-3.52 2.176c-.981-2.0054-2.219-3.584-3.712-4.736-1.493-1.1947-3.093-2.048-4.8-2.56-1.664-.512-3.328-.768-4.992-.768-2.731 0-5.141.5546-7.232 1.664-2.091 1.0666-3.861 2.5173-5.312 4.352-1.408 1.792-2.475 3.8186-3.2 6.08-.725 2.219-1.088 4.48-1.088 6.784 0 2.517.427 4.928 1.28 7.232s2.048 4.352 3.584 6.144c1.536 1.749 3.328 3.157 5.376 4.224 2.091 1.024 4.352 1.536 6.784 1.536 1.707 0 3.456-.299 5.248-.896s3.456-1.515 4.992-2.752c1.579-1.237 2.837-2.837 3.776-4.8l3.712 1.92c-.939 2.261-2.389 4.181-4.352 5.76s-4.16 2.773-6.592 3.584c-2.389.811-4.736 1.216-7.04 1.216-3.115 0-5.973-.661-8.576-1.984-2.603-1.365-4.864-3.157-6.784-5.376-1.877-2.261-3.328-4.779-4.352-7.552-1.024-2.816-1.536-5.653-1.536-8.512z"/><path d="m733.182 84.716 14.848 24.448 14.976-24.448h4.864l-17.6 28.544v16.896h-4.48v-17.024l-17.536-28.416z"/></g><path d="m46 46h762v123h-762z" stroke="#000" stroke-width="2"/></svg>