<svg fill="none" height="189" viewBox="0 0 480 189" width="480" xmlns="http://www.w3.org/2000/svg"><path d="m77.519 187.918c-33.1212 0-77.27901-19.797-77.27901-77.279v-110.39901h401.85101l43.055 94.05951-43.055 93.6185z" fill="#fff"/><path d="m413.083 187.918 43.039-93.8392-43.511-93.83881h25.845l41.304 93.83881-42.342 93.8392z" fill="#fff"/><g fill="#000"><path d="m143.24 60.9828c1.175 0 1.909.7363 1.909 1.9123v14.4046c0 1.1771-.734 1.9109-1.909 1.9109-12.563 0-19.271 5.8841-19.271 5.8841v42.9583c0 1.176-.736 1.913-1.915 1.913h-18.387c-1.177 0-1.915-.737-1.915-1.913v-65.1708c0-1.1788.738-1.9137 1.915-1.9137h13.239c.882 0 1.618.4406 1.912 1.325l3.678 8.8246c5.886-8.3851 15.471-10.1353 20.744-10.1353z"/><path d="m171.694 102.605c-8.533 0-10.741 3.968-10.741 7.355 0 3.676 2.061 5 4.857 5 2.649 0 5.884-1.179 8.385-3.091v-9.264zm2.501-15.1555c0-6.7703-3.238-8.2389-10.153-8.2389h-12.46c-1.178 0-1.913-.7349-1.913-1.9137v-14.4147c0-1.1788.735-1.9137 1.913-1.9137h16.288c20.741 0 28.54 7.7982 28.54 30.5984v36.4861c0 1.176-.589 1.913-1.619 1.913h-13.534c-.883 0-1.472-.146-1.768-.884l-2.351-5.59c-5.886 5.002-10.153 7.503-18.832 7.503-11.327 0-19.94-8.462-19.94-21.968 0-15.2932 8.906-20.3154 30.827-20.3154h5.002"/><path d="m216.361 128.791-19.125-66.058c-.293-1.1745.439-1.7645 1.47-1.7645h20.744c.884 0 1.47.4406 1.616 1.4716l9.857 50.0179 9.565-50.0179c.146-.8816.735-1.4716 1.762-1.4716h19.57c.882 0 1.321.5901 1.031 1.6191l-19.274 66.3494c-.147.587-.442 1.029-1.327 1.029h-24.27c-.737 0-1.472-.295-1.619-1.175z"/><path d="m362.564 111.724h-4.559c-5.886 0-8.533-2.944-8.533-8.239v-67.5981c0-1.1742-.739-2.0574-2.65-1.4684l-17.949 5.1477c-1.028.2944-1.616 1.1773-1.616 2.2067v61.4171c0 16.922 10.004 26.776 26.921 26.776h8.386c1.176 0 1.912-.737 1.912-1.913v-14.417c0-1.178-.736-1.912-1.912-1.912z"/><path d="m93.7784 60.9683c1.1772 0 1.9119.7349 1.9119 1.9136v14.4148c0 1.1788-.7347 1.9137-1.9119 1.9137h-16.0356v24.2746c0 5.884 3.0892 8.239 8.5302 8.239h7.5054c1.1772 0 1.9119.734 1.9119 1.912v14.417c0 1.176-.7347 1.913-1.9119 1.913h-11.3295c-16.036 0-26.9206-8.974-26.9206-26.776v-60.0233c0-1.0294.5883-1.9123 1.6176-2.2067l17.9468-5.1477c1.9151-.589 2.6501.2943 2.6501 1.4685v23.6875"/><path d="m231.565 164.267c-6.057 0-9.954-4.224-9.954-12.05s3.862-12.05 9.954-12.05c2.064 0 4.062.458 6.09 1.539.229.196.198.394.098.621l-1.276 2.817c-.13.261-.328.261-.525.164-1.308-.72-2.488-1.146-4.126-1.146-3.305 0-5.795 2.161-5.795 8.055 0 5.926 2.455 8.056 5.795 8.056 1.606 0 2.818-.427 4.126-1.146.229-.1.395-.1.525.164l1.276 2.814c.131.231.131.427-.098.623-2.028 1.08-3.995 1.539-6.09 1.539z"/><path d="m246.138 154.313v9.331c0 .262-.132.394-.36.394h-3.471c-.23 0-.394-.132-.394-.394v-22.855c0-.261.164-.393.394-.393h3.471c.228 0 .36.132.36.393v9.332c0 .197.064.262.262.262h8.119c.197 0 .263-.065.263-.262v-9.332c0-.261.163-.393.393-.393h3.471c.229 0 .36.132.36.393v22.855c0 .262-.131.394-.36.394h-3.471c-.23 0-.393-.132-.393-.394v-9.331c0-.196-.066-.264-.263-.264h-8.119c-.198 0-.262.068-.262.264z"/><path d="m272.006 145.308-2.914 9.986h5.827zm-5.371 18.401c-.065.197-.165.329-.361.329h-3.471c-.26 0-.391-.197-.295-.459l7.074-22.92c.065-.164.164-.263.393-.263h4.355c.229 0 .327.099.394.263l7.07 22.888c.065.261-.065.491-.326.491h-3.733c-.196 0-.326-.132-.361-.329l-1.374-4.714h-7.991"/><path d="m298.594 140.789c0-.261.165-.393.393-.393h3.471c.229 0 .359.132.359.393v22.855c0 .262-.131.394-.359.394h-3.438c-.261 0-.426-.1-.557-.329l-8.513-15.356v15.291c0 .262-.131.394-.361.394h-3.471c-.229 0-.391-.132-.391-.394v-22.855c0-.261.162-.393.391-.393h3.44c.294 0 .425.099.523.329l8.513 15.355"/><path d="m321.742 140.789c0-.261.165-.393.395-.393h3.469c.23 0 .36.132.36.393v22.855c0 .262-.13.394-.36.394h-3.438c-.261 0-.426-.1-.556-.329l-8.513-15.356v15.291c0 .262-.131.394-.361.394h-3.472c-.228 0-.392-.132-.392-.394v-22.855c0-.261.164-.393.392-.393h3.44c.294 0 .425.099.523.329l8.513 15.355"/><path d="m343.581 150.383c.23 0 .393.132.393.394v2.88c0 .262-.163.392-.393.392h-7.499v6.059c0 .197.066.261.231.261h9.364c.23 0 .393.132.393.36v2.915c0 .262-.163.394-.393.394h-13.425c-.229 0-.394-.132-.394-.394v-22.855c0-.261.165-.393.394-.393h13.425c.23 0 .393.132.393.393v2.914c0 .231-.163.361-.393.361h-9.364c-.165 0-.231.065-.231.262v6.057"/><path d="m355.045 160.108c0 .197.066.261.231.261h8.84c.23 0 .36.132.36.36v2.915c0 .262-.13.394-.36.394h-12.901c-.229 0-.393-.132-.393-.394v-22.855c0-.261.164-.393.393-.393h3.471c.229 0 .359.132.359.393"/><path d="m292.336 75.9748c4.369 0 7.752 3.4921 7.752 12.9844h-16.291c.288-8.9111 4.022-12.9844 8.539-12.9844zm20.781 34.0532c-.419-1.176-1.237-1.436-2.422-.969-3.334 1.309-9.762 2.878-15.448 2.878-5.972 0-10.867-2.16-11.304-9.736h36.612c1.872 0 2.133-.37 2.133-2.023l-.02-5.669c-.433-21.857-11.243-34.5713-29.75-34.5713-20.692 0-31.188 16.321-31.188 37.0143 0 21.13 14.139 33.373 32.79 33.373 8.311 0 17.493-2.484 22.296-4.628.892-.397 1.459-1.162 1.166-2.185"/></g></svg>