<svg fill="none" height="78" viewBox="0 0 480 78" width="480" xmlns="http://www.w3.org/2000/svg" xmlns:xlink="http://www.w3.org/1999/xlink"><clipPath id="a"><path d="m0 0h480v77.8125h-480z"/></clipPath><g clip-path="url(#a)"><path d="m270.071 0c-.552 2.09933-1.131 3.7328-3.658 3.7328-3.186 0-8.31-3.658144-17.096-3.658144-20.757 0-24.188 14.978944-24.189 21.650244 0 5.0318.018 14.3997 18.739 23.3673l7.316 3.5089c7.132 3.3924 12.319 6.0352 12.319 13.3634 0 1.4215-.574 12.2436-13.737 12.2436-13.997 0-20.345-12.3929-22.546-23.442h-3.136v27.0255h3.136c.439-1.7559.976-3.7328 3.285-3.7328 3.407 0 8.367 3.7328 18.813 3.7328 20.238 0 27.25-13.2171 27.25-22.8448 0-11.921-8.353-18.2996-12.095-20.1571l-16.125-7.9882c-9.186-4.5928-11.274-6.934-11.274-12.8408 0-7.10728 6.024-10.45187 11.721-10.45187 12.934 0 19.527 12.57507 21.501 20.23177h3.061v-23.7406zm-184.176.074656c-4.9124 0-8.5108 3.923924-8.5108 8.510784 0 4.69736 3.4879 8.43616 8.5108 8.43616 4.6944 0 8.4361-3.6313 8.4361-8.43616 0-4.69437-3.7417-8.510784-8.4361-8.510784zm319.602 0c-4.915 0-8.585 3.923924-8.585 8.510784 0 4.69736 3.563 8.43616 8.585 8.43616 4.698 0 8.362-3.6313 8.362-8.43616 0-4.69437-3.664-8.510784-8.362-8.510784zm-405.083182 1.567774v2.76228c4.715272.76746 6.330832 1.12282 9.182692 7.68959l28.07069 65.548h2.9862l25.0098-64.2789c2.4129-6.13072 3.8224-8.19123 9.8546-8.95869v-2.76228h-23.3673v2.76228c6.2502.32848 9.4813.73163 9.4813 5.00195 0 2.18894-1.2513 5.09454-2.2397 7.61494l-13.886 35.9842-14.4086-34.5658c-1.096-2.7383-3.2849-7.3252-3.2849-9.40662 0-4.15983 2.5711-4.1897 9.4813-4.62867v-2.76228zm471.079182 12.46757c-4.413 0-8.137 3.3774-8.137 7.9882 0 4.6316 3.724 8.0628 8.137 8.0628 4.375 0 8.063-3.4312 8.063-8.0628 0-4.6108-3.688-7.9882-8.063-7.9882zm0 1.3438c3.635 0 6.496 2.8399 6.496 6.6444 0 3.8493-2.861 6.719-6.496 6.719-3.67 0-6.569-2.8697-6.569-6.719 0-3.8045 2.899-6.6444 6.569-6.6444zm-3.135 2.0904v9.1827h1.418v-3.9568h1.643l2.463 3.9568h1.568l-2.687-4.0315c1.358-.1702 2.389-.8779 2.389-2.5383 0-1.8276-1.022-2.6129-3.211-2.6129zm1.418 1.1945h1.941c.977 0 2.016.1941 2.016 1.3438 0 1.4244-1.051 1.4931-2.24 1.4931h-1.717zm-346.105 5.0019c-12.59 0-22.546 10.3742-22.546 26.5776 0 18.8073 11.189 26.9508 22.247 26.9508 8.765 0 14.97-3.5118 21.651-13.7367l-2.613-1.5678c-2.082 2.5294-5.931 7.391-12.393 7.391-10.407 0-12.811-11.1805-13.14-20.5305h27.623c-.329-5.847-1.768-25.0844-20.829-25.0844zm182.161 0c-15.248 0-24.786 12.7095-24.786 26.8762 0 14.2742 9.538 26.6522 24.786 26.6522 14.916 0 24.636-12.0495 24.636-26.6522 0-15.2627-10.267-26.8762-24.636-26.8762zm63.383 0c-9.356 0-14.063 6.6892-15.603 9.332h-.224v-7.9135h-20.904v2.5383c4.387.66 5.823 1.5469 5.823 6.4951v32.326c0 5.3902-1.875 5.874-5.823 6.6444v2.613h26.428v-2.613c-5.065-.5524-5.45-3.7388-5.45-6.2711v-29.3398c0-.9885 4.778-6.4204 9.183-6.4204 5.949 0 6.047 6.1068 6.047 9.1827v26.5775c0 4.0673-1.517 5.9396-5.151 6.2711v2.613h25.756v-2.613c-5.372-.221-5.375-3.6313-5.375-6.2711v-27.6227c0-12.0824-8.693-15.5285-14.707-15.5285zm77.269 0c-10.204 0-25.831 6.7459-25.831 28.3693 0 13.4978 9.466 25.1591 23.442 25.1591 8.606 0 15.854-4.4226 20.903-11.5717l-1.941-1.941c-2.634 2.9623-5.462 6.1218-11.721 6.1218-8.481 0-15.155-8.899-15.155-24.2633 0-4.9392.791-18.44 9.257-18.44 1.628 0 4.405 1.0362 4.405 4.33 0 5.9248.048 11.2731 6.197 11.2731.878 0 7.465.006 7.465-7.0177 0-7.9016-9.266-12.0196-17.021-12.0196zm-373.8778 1.4185v2.5383c4.1658.7675 5.8232 1.5469 5.8232 6.4951v32.326c0 5.2797-1.8754 5.653-5.8232 6.6444v2.613h26.2043v-2.613c-4.2763-.4419-5.1513-2.8608-5.1513-6.2711v-41.7327zm73.9838 0v2.5383c2.852.5495 3.42 1.3677 6.271 8.5108l16.201 41.0608h2.687l13.364-33.2966h.522l10.975 33.2966h2.538l17.022-44.0471c1.866-4.8347 3.362-5.0855 5.45-5.5245v-2.5383h-14.782v2.5383c3.076.3285 5.226.5913 5.226 4.1061 0 2.4188-5.552 15.4627-8.511 23.8152h-.224c-1.971-8.5734-6.644-22.8507-6.644-25.159 0-2.3084 2.448-2.5413 5.3-2.7623v-2.5383h-25.682v2.5383c2.631.3285 3.865.3792 4.853 2.6876.55 1.3199 1.218 3.5029 2.314 7.2416l-7.465 18.8134c-5.483-14.7282-9.258-23.0747-9.258-25.3831 0-2.8578 2.646-3.1385 4.181-3.3595v-2.5383zm245.544 0v2.5383c4.169.7675 5.823 1.5469 5.823 6.4951v32.326c0 5.2797-1.872 5.653-5.823 6.6444v2.613h26.204v-2.613c-4.276-.4419-5.151-2.8608-5.151-6.2711v-41.7327zm-268.015 2.0157c3.834 0 5.241 2.7981 5.898 5.2259.875 3.3058.86 8.9767.97 12.3929h-14.632c0-15.2059 3.709-17.6188 7.764-17.6188zm181.713 0c6.71 0 8.585 6.5309 8.585 23.442 0 13.9457-.92 23.218-8.511 23.218-8.8 0-8.734-11.3596-8.734-23.218 0-12.5183.516-23.442 8.66-23.442z" fill="#fff"/></g></svg>