<svg fill="none" height="98" viewBox="0 0 480 98" width="480" xmlns="http://www.w3.org/2000/svg" xmlns:xlink="http://www.w3.org/1999/xlink"><clipPath id="a"><path d="m0 0h480v97.6474h-480z"/></clipPath><g clip-path="url(#a)" fill="#fff"><path d="m132.916 47.1843-14.635-35.9081h6.877l8.397 21.4329 9.197-22.3925 9.117 22.3925 8.318-21.4329h6.637l-14.635 35.9081-9.677-23.1123zm65.418-1.3596h-6.718l-3.519-7.4375h-14.715l-3.519 7.4375h-6.717l17.594-35.90801zm-22.553-12.3958h10.077l-5.118-10.6365zm33.429 12.3958h-6.398v-34.5485h9.757c7.598 0 13.036 3.9187 13.036 10.7165 0 4.7184-2.639 7.9173-6.798 9.4368l10.716 14.3952h-7.437l-9.917-13.3555h-3.039v13.3555zm0-18.4738h3.359c3.919 0 6.558-1.9194 6.558-5.3582 0-3.4389-2.639-5.4382-6.558-5.4382h-3.359zm99.887 18.4738h-6.398v-34.5485h9.757c7.597 0 13.035 3.9187 13.035 10.7165 0 4.7184-2.639 7.9173-6.797 9.4368l10.716 14.3952h-7.437l-9.917-13.3555h-3.039v13.3555zm0-18.4738h3.359c3.919 0 6.558-1.9194 6.558-5.3582 0-3.4389-2.639-5.4382-6.558-5.4382h-3.359zm-49.743-16.0747h6.237v35.8281l-24.311-23.4322v22.0727h-6.238v-35.82811l24.312 23.43221zm14.555 0h21.273v5.2783h-15.035v8.957h13.835v5.3582h-13.835v9.6768h15.115v5.2782h-21.353zm72.456 0h9.916c7.678 0 11.756 3.5988 11.756 9.117 0 3.5188-2.159 6.078-4.798 7.1976 3.919 1.0397 6.958 3.9987 6.958 8.3972 0 6.078-4.719 9.8367-12.236 9.8367h-11.596zm9.516 14.6352c3.599 0 5.838-1.5995 5.838-4.6385s-2.239-4.7184-5.838-4.7184h-3.279v9.2769h3.279zm1.68 14.5551c3.679 0 6.078-1.9193 6.078-4.9583s-2.479-4.8784-6.078-4.8784h-4.959v9.9167h4.959zm25.671 5.3582h-6.398v-34.5485h9.757c7.598 0 13.036 3.9187 13.036 10.7165 0 4.7184-2.639 7.9173-6.798 9.4368l10.716 14.3952h-7.437l-9.837-13.3555h-3.039zm0-18.4738h3.359c3.919 0 6.558-1.9194 6.558-5.3582 0-3.4389-2.639-5.4382-6.558-5.4382h-3.359zm57.661 1.1996c0 9.8367-7.837 17.834-17.674 17.834s-17.674-7.9973-17.674-17.834 7.837-17.8341 17.674-17.8341 17.674 7.9974 17.674 17.8341zm-28.87 0c0 6.7977 5.038 11.916 11.276 11.916s11.276-5.1183 11.276-11.916c0-6.7978-5.038-11.916-11.276-11.916s-11.276 5.1182-11.276 11.916zm43.825 12.3959c3.519 0 5.998-1.5995 5.998-4.3986 0-2.2392-1.439-3.1989-3.679-4.3185l-5.758-2.7191c-3.759-1.7594-6.878-3.9987-6.878-8.8771 0-5.998 4.879-9.9167 11.357-9.9167 3.918 0 7.437 1.6795 9.277 3.4389v6.6378c-2.64-2.6392-6.078-4.5585-9.517-4.5585-2.879 0-5.039 1.4395-5.039 3.9987 0 1.9193 1.36 2.879 3.279 3.8387l5.359 2.4791c5.038 2.3193 7.677 4.7185 7.677 9.5169 0 6.3978-5.358 10.3965-12.156 10.3965-4.398 0-8.237-1.6794-10.556-3.4388v-6.5579c3.039 2.3992 6.717 4.4786 10.636 4.4786zm24.152 1.1196c0 2.2392-1.759 3.9986-3.999 3.9986h-.08c-2.239 0-3.998-1.7594-3.998-3.9986 0-2.2393 1.759-3.9987 3.998-3.9987h.08c2.24.08 3.999 1.8394 3.999 3.9987zm-139.633 49.9033h-6.398v-34.4685h9.756c7.598 0 13.036 3.9187 13.036 10.7165 0 4.7184-2.639 7.9173-6.798 9.4368l10.717 14.3952h-7.438l-9.916-13.3555h-3.039v13.2755zm0-18.3938h3.358c3.919 0 6.558-1.9194 6.558-5.3582 0-3.4389-2.639-5.4382-6.558-5.4382h-3.358zm-35.509-16.0747h21.273v5.2783h-15.035v8.957h13.836v5.3582h-13.836v9.6768h15.195v5.2782h-21.353v-34.5485zm-40.066 17.1943c0 9.8367-7.838 17.8341-17.674 17.8341-9.837 0-17.674-7.9974-17.674-17.8341s7.837-17.8341 17.674-17.8341c9.836.08 17.674 7.9974 17.674 17.8341zm-28.951 0c0 6.7977 5.039 11.916 11.277 11.916s11.276-5.1183 11.276-11.916-5.038-11.916-11.276-11.916-11.277 5.1183-11.277 11.916zm-102.605-17.1943c9.836 0 17.754 7.4376 17.754 17.2743s-7.918 17.2742-17.754 17.2742h-10.637v-34.5485zm-4.239 5.2783v23.912h3.839c6.957 0 11.756-5.3582 11.756-11.996s-4.799-11.996-11.756-11.996h-3.839zm34.948-5.2783v34.4685h-6.398v-34.4685zm17.115 29.5902c3.518 0 5.998-1.5995 5.998-4.3986 0-2.2392-1.44-3.1989-3.679-4.3185l-5.758-2.7191c-3.759-1.7594-6.878-3.9987-6.878-8.8771 0-5.998 4.958-9.9167 11.356-9.9167 3.919 0 7.438 1.6795 9.277 3.4389v6.6378c-2.639-2.6391-6.078-4.5585-9.517-4.5585-2.879 0-5.038 1.4395-5.038 3.9987 0 1.9193 1.36 2.879 3.279 3.8387l5.358 2.4792c5.038 2.3192 7.678 4.7184 7.678 9.5168 0 6.3979-5.359 10.3965-12.156 10.3965-4.399 0-8.238-1.6794-10.557-3.4388v-6.5578c3.039 2.3992 6.718 4.4785 10.637 4.4785zm43.425-4.3186v7.3576c-2.559 1.5994-5.598 2.3992-8.957 2.3992-9.837 0-17.754-7.9974-17.754-17.8341s7.917-17.8341 17.754-17.8341c3.279 0 6.398.8798 8.957 2.3992v7.3576c-1.999-2.2393-5.118-3.6788-8.797-3.6788-6.558 0-11.516 5.1183-11.516 11.7561s5.038 11.7561 11.516 11.7561c3.679 0 6.798-1.4395 8.797-3.6788zm40.867-25.2716h7.037l10.717 23.1123 10.636-23.1123h6.798l-17.594 35.9081zm107.084 34.4685v-15.5148l-12.876-19.0336h7.198l8.877 13.1156 8.957-13.1156h7.197l-12.875 19.0336v15.5148zm-278.4673-67.2575v-4.9584l-6.6378-3.5988v-5.1983l-3.3589-1.59942c-9.6768-4.55848-20.3132-7.59747-32.6291-9.2769067l-.7997-.0799733-.7998.0799733c-12.2359 1.6794367-22.9523 4.7184267-32.5491 9.3568767l-3.3589 1.59945v5.1983l-6.6378 3.5188v4.9584l-7.1976 3.8387.559813 4.0786c1.919357 13.7554 6.957677 26.2313 14.954987 37.0277 8.0773 10.9563 18.9537 19.9133 32.3892 26.6311l2.6392 1.3595 2.6391-1.3595c13.4355-6.7178 24.3119-15.6748 32.3892-26.6311 7.9973-10.7964 13.0356-23.2723 14.9545-37.0277l.56-4.0786zm.7197 7.1176c-.6398 4.5585-2.799 19.5935-13.8354 34.3085-11.1962 15.195-25.8313 22.5525-30.3098 24.7918-4.3986-2.2393-19.1137-9.5968-30.3099-24.7918-10.95639-14.6351-13.11567-29.6701-13.75546-34.3085l6.63776-3.5988v-4.9584l6.6378-3.5988v-4.9583c9.117-4.3985 19.1936-7.19761 30.7898-8.79707 11.5961 1.51949 21.6727 4.39857 30.7897 8.79707v4.9583l6.6378 3.5988v4.9584z"/><path d="m40.7063 17.9141.3199 40.3865-.3199.16c-4.2386-10.7964-6.7977-24.232-7.5974-37.7475-2.0794.9597-4.3186 2.0794-6.6378 3.5189.9596 12.2359 3.0389 22.9523 6.7977 33.1889l-2.1593 1.1996c-5.6781-7.9174-9.3569-17.5142-11.836-28.9503-1.7595 1.5994-3.4389 3.3588-5.1983 5.2782 3.2789 13.6754 8.5571 24.072 16.1546 32.4692l5.8381-3.5189c2.879 5.998 6.8777 11.9161 11.3562 16.6345v-63.8187c-2.2393.2399-4.4785.6398-6.7178 1.1996zm37.7474 20.873c2.3992-2.6391 2.8791-4.5585 2.8791-6.8777 0-3.2789-2.7191-6.2379-6.7178-8.7971-2.3992-1.5194-6.078-3.3588-11.4362-4.8783-3.039-.7998-6.3179-1.3596-9.5968-1.4395v63.8986c13.4356-6.8777 29.3502-25.8313 29.4302-35.5081.16-2.959-1.3595-4.8784-4.5585-6.3979zm-18.1539-14.3952c3.2789 0 13.9953 3.3589 13.9953 7.6775 0 1.5195-1.3595 3.7587-5.5981 5.998l-8.3972 4.4785zm8.3172 35.4282c-1.9193 2.1593-4.9583 5.5182-8.3172 8.0773v-18.3139s12.1559-6.7977 12.5558-7.1176c3.5988.9597 3.4389 3.5988 3.4389 3.8387 0 3.3589-3.4389 8.5572-7.6775 13.5155z"/></g></svg>