<svg fill="none" height="501" viewBox="0 0 480 501" width="480" xmlns="http://www.w3.org/2000/svg" xmlns:xlink="http://www.w3.org/1999/xlink"><clipPath id="a"><path d="m0 0h480v500.992h-480z"/></clipPath><g clip-path="url(#a)" fill="#fff"><path d="m239.91.00024414c-11.725 2.50218586-114.913 16.01295586-127.759 22.43245586-2.96 5.9273-9.147 24.4202-11.109 27.3462-8.2926 1.7844-41.8978 8.1766-44.0103 9.4003-1.1827 3.555-8.9046 18.7322-10.6821 20.5097-7.1168 1.7775-40.29464 7.9287-44.4376 10.8957-2.365445 14.2204-11.39654 156.5094 47.8559 249.5344 59.2521 93.025 162.8841 154.945 190.1421 160.873h.213c27.258-5.928 130.676-67.848 189.928-160.873 59.246-93.032 50.449-235.314 48.07-249.5344-4.15-2.967-37.334-9.1182-44.438-10.8957-1.777-1.7775-9.492-16.9547-10.682-20.5097-2.105-1.2237-35.704-7.6228-44.01-9.4003-1.962-2.926-8.142-21.4189-11.11-27.3462-12.804-6.399-116.083-19.88243-127.971-22.43245586zm0 36.31925586c10.159 2.174 98.439 13.9722 109.385 19.4414 2.522 5.0659 7.732 20.7849 9.4 23.287 7.089 1.5178 36.01 6.8588 37.815 7.9048 1.011 3.0354 7.448 16.2143 8.973 17.7323 6.077 1.518 34.487 6.657 38.028 9.187 2.03 12.155 9.626 133.706-41.019 213.215-50.646 79.516-139.07 132.527-162.369 137.586h-.213c-23.299-5.06-111.723-58.077-162.3686-137.586-50.6384-79.509-43.0429-201.06-41.0193-213.215 3.5482-2.537 31.9506-7.669 38.0283-9.187 1.5246-1.518 7.9612-14.6969 8.973-17.7323 1.8049-1.046 30.5116-6.387 37.6006-7.9048 1.675-2.5021 7.085-18.2211 9.614-23.287 10.973-5.4897 99.149-17.3084 109.172-19.4414z"/><path d="m256.147 75.2027c-3.329.3281-3.826 2.6577-3.846 3.6319-.684 113.8014-.359 234.5294-1.282 351.4414.752 3.699 6.65-1.986 10.041-3.845 43.166-23.73 177.802-154.124 100.412-200.824 59.26-38.75 48.699-75.73 22.433-95.925-54.31-41.7787-116.273-52.1514-123.486-54.052-1.803-.4752-3.163-.5367-4.272-.4273zm36.105 46.7873c.841-.458 35.653 12.448 54.693 25.424 21.829 14.876 14.438 29.173 1.709 37.815-6.912 4.71-49.685 35.43-56.829 37.173-.157-5.927-.188-72.765.427-100.412zm31.833 130.109c4.769.146 9.299 1.671 12.605 5.127 2.953 2.824 15.972 16.857-11.751 57.043-10.323 18.226-31.969 41.086-34.396 43.369-.294.082-.415-.371-.641-.214.226-13.064-.125-76.309.641-94.002 1.533-.8 19.235-11.764 33.542-11.323z"/><path d="m108.991 116.181c-3.548 1.518-33.7723 20.763-36.8146 23.798-.8409 26.827 6.3512 99.205 32.8426 155.696 3.35 7.144 6.987 13.844 10.925 19.908 7.554 13.044 7.978 12.012 16.77-.479 6.092-8.238 14.876-20.455 17.078-22.971 3.035 10.125 22.663 73.282 50.269 111.45 12.237 16.934 31.031 32.932 30.956 26.341-.752-64.489-2.598-343.6393-.574-355.0153-8.143-.1915-34.853 3.2884-40.138 6.0298-.437 10.207 3.672 201.6165 1.142 223.3845-18.712-45.586-25.097-165.882-21.398-215.5156-10.125 2.0236-34.819 11.9296-38.36 15.4776-4.553 9.113 1.661 109.064 8.128 142.611-2.208 3.48-8.573 12.928-9.585 14.446-12.811-23.046-25.056-94.297-21.241-145.161z"/></g></svg>