<svg fill="none" height="105" viewBox="0 0 480 105" width="480" xmlns="http://www.w3.org/2000/svg" xmlns:xlink="http://www.w3.org/1999/xlink"><clipPath id="a"><path d="m0 0h480v104.688h-480z"/></clipPath><g clip-path="url(#a)" fill="#fff"><path d="m168.472 25.4279h-21.13c-1.921 0-3.473 1.541-3.473 3.449v4.6967c.037 1.2475 1.071 2.2382 2.328 2.2382h3.472c.111 0 .185.0367.259.1468.073.1101.11.2568.073.3669l-8.274 24.6206c-.074.1468-.222.2569-.407.2202-.148 0-.295-.1101-.332-.2202l-12.376-33.3534v-.0367c-.332-.8072-1.108-1.3943-1.994-1.431h-7.463c-.886.0734-1.662.6238-2.031 1.431v.0367l-12.376 33.3534c-.037.1468-.185.2569-.332.2569-.185 0-.333-.0734-.407-.2202l-8.2746-24.6573c-.0369-.1101 0-.2568.0739-.3669.0739-.0734.1478-.1468.2586-.1468h3.4725c1.2556 0 2.2906-.9907 2.3276-2.2382v-4.6967c0-1.908-1.552-3.449-3.4728-3.449h-21.1305c-.7389 0-1.4408.3669-1.8841.954-.4063.5503-.5541 1.2842-.3324 1.9447.2955.8439.6649 1.8713.9974 2.9354.3325 1.064.7019 2.0547 1.0344 2.972.2955.9174 1.1451 1.5411 2.1426 1.5778h3.5463c.1848 0 .3695.1101.4064.2936l16.439 47.957c.2955.9173 1.1447 1.5777 2.1427 1.5777h5.098c.96 0 1.81-.587 2.142-1.4677 4.507-12.9891 13.152-37.7198 13.484-38.5637.037-.1835.222-.3302.406-.3302.185 0 .37.11.407.2935.332.8806 8.977 25.6113 13.483 38.5637.333.8807 1.183 1.4677 2.143 1.5044h5.098c.997 0 1.847-.6604 2.143-1.5777l16.402-47.957c.147-.2936.332-.2936.406-.2936h3.546c.961 0 1.81-.6238 2.143-1.5411.332-.9173.665-1.9814 1.034-2.9721.37-.9907.739-2.0914 1.035-2.9353.221-.6605.074-1.3944-.333-1.9447-.48-.6238-1.145-.9907-1.921-.9907zm247.361 50.5254h-3.842c-.591 0-1.072-.477-1.072-1.1007v-47.2599c0-.8439-.702-1.5411-1.588-1.5044h-11.23c-.481 0-.924.2202-1.219.5871l-4.655 5.7607c-.554.6605-.406 1.6512.259 2.2016.258.2201.591.3302.886.3302h1.441c.591.0367 1.071.5137 1.108 1.1008v38.7105c0 .2935-.111.6238-.295.8806-1.22 1.5778-3.916 4.9168-5.246 6.5679-.591.6605-.517 1.6512.148 2.2016.295.2568.628.3669.997.4036h19.579c.406.0367.813-.1101 1.108-.4403l4.581-5.6873c1.071-1.2476.332-2.752-.96-2.752z"/><path d="m403.346 19.7038c4.652 0 8.423-3.7455 8.423-8.3659 0-4.62032-3.771-8.36585-8.423-8.36585-4.651 0-8.422 3.74553-8.422 8.36585 0 4.6204 3.771 8.3659 8.422 8.3659z"/><path d="m477.451 30.9684c0-.8072-.443-1.5778-1.515-1.5778h-1.957v5.1003h.738v-1.8713h.665l1.293 1.8713h.85l-1.367-1.9447c.961-.0734 1.293-.844 1.293-1.5778zm-2.734.9173v-1.8713h1.293c.481.0367.813.4036.813.8806v.0734c.037.477-.296.8806-.739.9173z"/><path d="m475.567 27.5193c-2.438 0-4.433 1.9814-4.433 4.4031s1.995 4.4031 4.433 4.4031 4.433-1.9814 4.433-4.4031-1.958-4.4031-4.433-4.4031zm0 8.1457c-2.069 0-3.768-1.6511-3.768-3.7059v-.0367c-.037-2.0181 1.588-3.7059 3.62-3.7426h.148c2.069 0 3.768 1.6878 3.768 3.7426s-1.662 3.7426-3.768 3.7426zm-251.904 40.5085c-3.251.1468-4.876-1.3576-4.876-5.0636v-26.5286c0-11.5948-9.79-18.97-20.835-18.97-17.141 0-23.311 8.0724-24.012 17.0987-.037.8806.628 1.6145 1.477 1.6512h8.534c.812-.0367 1.477-.6605 1.514-1.4311.444-4.6966 3.621-8.1457 8.94-8.1457 5.874 0 9.42 2.9721 9.42 9.6501v5.7607h-3.066c-10.528 0-17.769 1.3577-22.645 4.4031-4.876 3.0455-7.314 8.6595-7.314 15.2274 0 4.8434 1.662 8.8062 5.024 11.9617 3.361 3.1556 7.277 4.5499 12.412 4.5499 3.066 0 6.095-.6972 8.866-2.0181 2.734-1.2108 5.246-2.8253 7.462-4.77.443-.4036 1.145-.4036 1.552.0367.074.0734.147.1468.184.2568 2.402 4.183 5.024 5.5406 10.011 5.5406 4.507 0 6.687-4.1829 8.645-6.7147.739-.9907-.074-2.5685-1.293-2.4951zm-19.764-4.2563h-.074c0 .3669-.591.8806-.812 1.1007-1.367 1.1375-2.882 2.1282-4.507 2.8987-1.478.6238-3.066.9174-4.655.8807-2.327 0-4.655-.8807-6.169-2.5318-1.552-1.6879-2.364-3.9261-2.327-6.201 0-3.4491 1.292-5.7607 3.915-7.4853 2.623-1.7245 6.908-2.5318 12.043-2.5318h2.549zm180.349 4.2563c-3.251.1468-4.877-1.3576-4.877-5.0636v-26.5286c0-11.5948-9.789-18.97-20.835-18.97-17.141 0-23.31 8.0724-24.012 17.0987-.037.8806.628 1.6145 1.478 1.6512h8.533c.813-.0367 1.478-.6605 1.515-1.4311.443-4.6966 3.62-8.1457 8.94-8.1457 5.874 0 9.42 2.9721 9.42 9.6501v5.7607h-3.029c-10.529 0-17.806 1.3577-22.645 4.4031-4.877 3.0455-7.352 8.6595-7.352 15.2274 0 4.8434 1.663 8.8062 5.024 11.9617 3.362 3.1556 7.278 4.5499 12.413 4.5499 3.066 0 6.095-.6972 8.866-2.0181 2.733-1.2108 5.245-2.8253 7.462-4.77.443-.4036 1.145-.4036 1.551.0367.074.0734.148.1468.185.2568 2.401 4.183 5.024 5.5406 10.011 5.5406 4.507 0 6.687-4.1829 8.645-6.7147.738-.9907-.074-2.5685-1.293-2.4951zm-19.727-4.2563h-.074c0 .3669-.591.8806-.813 1.1007-1.367 1.1375-2.881 2.1282-4.507 2.8987-1.477.6238-3.066.9174-4.654.8807-2.328 0-4.655-.8807-6.17-2.5318-1.551-1.6879-2.364-3.9261-2.327-6.201 0-3.4491 1.293-5.7607 3.916-7.4853 2.623-1.7245 6.908-2.5318 12.043-2.5318h2.549v13.8698zm99.335-46.049c-.775-.4037-2.733-.5871-4.432-.5871-2.734 0-4.914.3669-6.798 1.1741l-.147.0734c-.702.3303-1.404.6972-2.032 1.1742-2.401 1.4677-4.507 3.3023-6.354 5.4305 0 0-.813.6237-.961-.4037v-5.3204c0-.8439-.702-1.541-1.551-1.541h-11.23c-.444 0-.887.1834-1.146.5504 0 0-3.546 4.3664-4.691 5.8707-.702.8807-.259 2.5318 1.219 2.5318h1.404c.591 0 1.108.5137 1.108 1.1008v38.894c0 .2935-.074.6237-.259.8806-1.108 1.3576-3.916 4.8801-5.282 6.6046-.518.6972-.407 1.6512.295 2.2016.259.2201.591.3302.924.3302h24.27c.85 0 1.552-.6972 1.552-1.5411v-5.8341c0-.8439-.702-1.5411-1.552-1.5411h-3.842c-.628 0-1.108-.477-1.108-1.1007v-22.6393c.443-10.7508 6.908-14.0532 10.011-15.0072l.444-.1467.11-.0367c.85-.2202 1.7-.3303 2.586-.3303 3.694 0 5.061.5504 7.093 1.0641.85.2202 1.552-.6971 1.552-1.5411v-8.8061c-.074-.6972-.628-1.2476-1.183-1.5044zm-131.991.1834h-17.585c-.591 0-1.108-.5137-1.108-1.1007v-8.6228c0-4.1829 2.18-8.36584 6.687-8.36584 5.097 0 5.873 4.25634 6.095 7.48524.037.8072.702 1.4677 1.514 1.5044h7.278c.813-.0367 1.478-.6972 1.441-1.5411-.148-10.78755-7.056-15.4108-18.139-15.4108-6.76 0-11.193 2.09147-14.518 6.12764-3.324 4.03616-5.024 8.54936-5.024 16.62166v2.1649c0 .587-.48 1.064-1.071 1.064l-30.033.0734c-.85-.0367-1.589.6238-1.589 1.5044v5.8708c0 .8806.739 1.5778 1.589 1.5778h3.214c.628 0 1.108.5137 1.108 1.1008 0 .1467-.037.2935-.074.4036 0 0-8.275 19.1167-11.6 26.7488-.258.5503-.886.8072-1.44.587-.259-.11-.444-.3302-.592-.587-3.398-7.7055-11.747-26.7488-11.747-26.7488-.222-.5504.037-1.2109.591-1.431.111-.0367.259-.0734.406-.0734h2.254c.887 0 1.588-.6972 1.588-1.5778v-5.8341c0-.8439-.701-1.5411-1.588-1.5044h-27.189c-.887 0-1.589.7339-1.552 1.6145 0 .2568.074.477.185.6971.813 1.431 2.623 4.8434 3.14 5.8341.259.477.776.7706 1.293.8073h5.246c.443 0 .849.2568 1.034.6604 0 0 19.321 43.077 20.022 44.5813.739 1.908.739 4.0362-.036 5.9809-.887 3.5225-6.835 9.8336-10.122 8.6961-2.254-.7705-2.549-4.8434-5.246-5.3571-.517-.0734-.998-.0367-1.478.1835-.48.1834-4.876 5.7974-5.837 6.7881-.48.6238-.48 1.4677 0 2.0914 2.402 2.4581 6.428 5.7611 12.265 5.9811 7.167.293 14.222-.661 20.761-12.9893 0 0 20.798-50.4888 23.273-55.9193.222-.3669.591-.5871 1.035-.5871h10.971c.591 0 1.109.477 1.109 1.0641v38.7839c0 .3303-.111.6238-.296.8806-1.293 1.6512-3.916 4.9168-5.246 6.568-.554.6605-.443 1.6512.222 2.1648.295.2202.628.367.997.3303h24.53c.886 0 1.588-.6972 1.588-1.5778v-5.7607c0-.8806-.702-1.5778-1.588-1.5778h-4.212c-.591 0-1.071-.477-1.071-1.1008v-38.8572c0-.5871.48-1.0641 1.071-1.0641h12.967c.48 0 .923-.2202 1.219-.5871 1.108-1.431 3.324-4.3297 4.507-5.8341.517-.6972.406-1.6512-.296-2.2015-.259-.1835-.591-.3303-.923-.3303z"/><path d="m67.1048 44.7281-4.2483-15.8511c-.1477-.5504-.5541-.954-1.1082-1.1008l-15.9587-4.2196c-.5172-.1468-1.1083 0-1.4777.4036l-10.713 10.6408 22.4235 22.2723 10.713-10.6408c.3694-.4036.5172-.9907.3694-1.5044z"/><path d="m.0560079 68.9817 4.2482721 15.8512c.14777.5504.55412.954 1.10825 1.1007l15.99567 4.2197c.5172.1467 1.1082 0 1.4777-.4036l10.713-10.6408-22.3866-22.2724-10.712994 10.6409c-.4063566.4036-.5541226.954-.4432981 1.5043z"/><path d="m21.3713 23.5566-15.95878 4.2196c-.55412.1468-.96048.5504-1.10824 1.1008l-4.2482766 15.8511c-.147766.5137.0000001 1.1008.4063566 1.4677l10.71304 10.6408 22.3865-22.2356-10.713-10.6408c-.3694-.4036-.9235-.5504-1.4776-.4036z"/><path d="m66.5507 67.3306-10.5653-10.4941-22.3865 22.2357 10.5652 10.494c.4803.477 1.1822.6605 1.8471.5137l15.5524-4.1096c.6649-.1834 1.1821-.6971 1.3668-1.3576l4.1375-15.4475c.1477-.6605-.037-1.3576-.5172-1.8346z"/><path d="m33.5988 34.601-22.3865 22.2356 22.3865 22.2356 22.4235-22.2356z"/><path d="m67.1048 44.7281-4.2483-15.8511c-.1477-.5504-.5541-.954-1.1082-1.1008l-15.9587-4.2196c-.5172-.1468-1.1083 0-1.4777.4036l-10.713 10.6408 22.4235 22.2723 10.713-10.6408c.3694-.4036.5172-.9907.3694-1.5044z"/><path d="m.0560079 68.9817 4.2482721 15.8512c.14777.5504.55412.954 1.10825 1.1007l15.99567 4.2197c.5172.1467 1.1082 0 1.4777-.4036l10.713-10.6408-22.3866-22.2724-10.712994 10.6409c-.4063566.4036-.5541226.954-.4432981 1.5043z"/><path d="m21.3713 23.5566-15.95878 4.2196c-.55412.1468-.96048.5504-1.10824 1.1008l-4.2482766 15.8511c-.147766.5137.0000001 1.1008.4063566 1.4677l10.71304 10.6408 22.3865-22.2356-10.713-10.6408c-.3694-.4036-.9235-.5504-1.4776-.4036z"/><path d="m66.5507 67.3306-10.5653-10.4941-22.3865 22.2357 10.5652 10.494c.4803.477 1.1822.6605 1.8471.5137l15.5524-4.1096c.6649-.1834 1.1821-.6971 1.3668-1.3576l4.1375-15.4475c.1477-.6605-.037-1.3576-.5172-1.8346z"/><path d="m33.5988 34.601-22.3865 22.2356 22.3865 22.2356 22.4235-22.2356z"/></g></svg>